<?xml version="1.0" encoding="UTF-8" standalone="no"?>
<svg width="219px" height="300px" viewBox="0 0 219 300" version="1.1" xmlns="http://www.w3.org/2000/svg" xmlns:xlink="http://www.w3.org/1999/xlink" xmlns:sketch="http://www.bohemiancoding.com/sketch/ns">
    <!-- Generator: Sketch 3.3.3 (12081) - http://www.bohemiancoding.com/sketch -->
    <title>icon (brand)</title>
    <desc>Created with Sketch.</desc>
    <defs></defs>
    <g id="02-›-Pages-(Desktop)" fill="transparent" fill-rule="evenodd" sketch:type="MSPage">
        <g id="//-What-We-Do" sketch:type="MSArtboardGroup" transform="translate(-317.000000, -4099.000000)" stroke-linecap="round" stroke-linejoin="round">
            <g id="::-02-offerings" sketch:type="MSLayerGroup" transform="translate(100.000000, 3178.000000)">
                <g id="::-offering-01" transform="translate(0.000000, 720.000000)" sketch:type="MSShapeGroup">
                    <g id="::-graphic" transform="translate(172.000000, 196.000000)">
                        <path d="M220.808341,265.07694 C205.661821,285.093267 182.290601,300.467594 154.440351,300.467594 C127.914008,300.467594 49,295.78967 49,140.898608 C49,5.29927336 154.888955,9.206159 154.888955,9.206159 C154.888955,9.206159 259.468021,-0.946136106 259.468021,121.236258 C259.468021,265.123378 171.001901,277.327686 151.668118,277.327686 C132.335211,277.327686 112.658842,266.375438 104.609378,258.206814 C104.609378,258.206814 115.95503,247.910826 151.877525,247.910826 C187.799144,247.910826 184.189283,256.868012 194.140933,245.928031 C204.092583,234.987174 183.142248,231.516626 151.308008,231.516626 C126.809145,231.516626 113.576202,238.113384 98.4200443,240.996891 C94.7611175,241.693454 88.4193283,231.075031 90.1804496,229.336691 C97.7304908,221.882153 126.498102,214.743916 151.798669,214.743916 C183.000307,214.743916 195.628686,219.938786 208.064306,219.938786 C220.499925,219.938786 295.813711,28.3673346 153.834911,28.3673346 C76.2325437,28.3673346 72.9722788,109.725008 73.1150961,142.906812 C90.8384607,145.950661 90.8954123,141.047559 91.8241629,130.540411 C95.72842,88.7466356 103.171567,48.1812641 153.691217,48.3486145 C261.719803,48.3486145 208.480491,203.888049 199.74936,203.888049 C191.018228,203.888049 189.640874,197.944922 151.445568,197.944922 C123.760916,197.944922 102.173598,205.50022 86.6985112,212.609542 C82.3254979,214.617747 77.5652132,193.964437 80.0737159,193.349359 C101.413074,188.120318 137.464368,181.635711 151.71806,181.635711 C168.199878,181.635711 179.856574,184.022425 190.172715,184.022425 C200.488855,184.022425 232.669186,67.1444231 153.542267,65.5786898 C110.800465,64.7331764 108.871993,120.103358 107.512162,138.833453 C105.927153,160.651205 82.6120087,157.303322 74.4442608,158.467765 C69.5087401,159.171338 71.169977,177.532561 75.8137298,178.359675 C87.6798326,180.473897 117.979006,166.257004 151.994933,167.196268 C168.46098,167.650129 176.030297,167.718471 182.003214,167.718471 C187.976132,167.718471 204.013727,85.5538365 153.565923,85.5538365 C120.157188,85.5538365 123.335093,152.952214 123.335093,152.952214 C123.335093,152.952214 166.717382,155.148796 171.204299,152.189061 C175.692091,149.229326 178.264555,105.987225 153.706988,105.987225 C139.190442,105.987225 137.53271,131.960698 153.671065,131.960698" id="icon-(brand)"></path>
                    </g>
                </g>
            </g>
        </g>
    </g>
</svg>