<?xml version="1.0" encoding="UTF-8" standalone="no"?>
<svg width="103px" height="91px" viewBox="0 0 103 91" version="1.1" xmlns="http://www.w3.org/2000/svg" xmlns:xlink="http://www.w3.org/1999/xlink" xmlns:sketch="http://www.bohemiancoding.com/sketch/ns">
    <!-- Generator: Sketch 3.3.2 (12043) - http://www.bohemiancoding.com/sketch -->
    <title>icon (brand)</title>
    <desc>Created with Sketch.</desc>
    <defs>
        <path d="M7.33160992,90.8293854 L4.07678651,90.8293854 L0.534362139,90.8293854 L0.534362139,87.574562 L4.07678651,87.574562 L4.07678651,3.57094264 L0.534362139,3.57094264 L0.534362139,0.316164855 L10.8744906,0.316164855 L10.8744906,3.57094264 L7.33160992,3.57094264 L7.33160992,87.574562 L10.8744906,87.574562 L10.8744906,90.8293854 L7.33160992,90.8293854 L7.33160992,90.8293854 Z M56.6397754,90.7067797 C56.1289106,90.7035856 55.6182284,90.695418 55.1076831,90.6770294 C53.8104444,90.6303963 52.5151678,90.5302402 51.2266443,90.3729107 C47.8388117,89.9591905 44.5001674,89.1537892 41.2957187,87.9791562 C36.9846701,86.3988339 32.9228027,84.1528725 29.28296,81.3547519 C25.2726992,78.271905 21.7778661,74.5236473 18.9868181,70.3048154 C16.5830709,66.6714063 14.7041053,62.6933142 13.4388983,58.5240356 C12.7434634,56.2323081 12.23342,53.8846392 11.9153387,51.5109616 C11.5848006,49.0442461 11.4613736,46.5490579 11.5363424,44.0616267 C11.6142771,41.4779634 11.9112777,38.9010077 12.4274354,36.3681754 C12.94989,33.8041783 13.6966121,31.2862668 14.6566509,28.8520849 C16.7467429,23.5527531 19.8495297,18.6651794 23.7445311,14.5090876 C27.825654,10.1542806 32.7640587,6.6159629 38.2064837,4.16485254 C42.0110479,2.45138413 46.0526103,1.27241639 50.1814614,0.669882556 C51.6619014,0.453828207 53.1530186,0.311328158 54.6475581,0.242245521 C55.3535333,0.20962063 56.059828,0.19556683 56.7665333,0.193285369 L58.3991924,1.82065145 C58.3991924,19.0661689 58.4832871,36.3119146 58.3987361,53.5572039 C58.3969109,53.6881598 58.3931694,53.8188875 58.3876026,53.9497521 C58.3624609,54.4277638 58.3086184,54.9031746 58.2172231,55.3732468 C58.0544637,56.2104517 57.7797301,57.0254808 57.3988174,57.7887207 C56.9437116,58.7004838 56.33844,59.5354072 55.6164945,60.2544324 C54.8328127,61.0349659 53.9145247,61.6780184 52.9157923,62.152973 C52.0743439,62.5531412 51.1763609,62.8342172 50.2565671,62.9832422 C48.9489706,63.1951443 47.5999884,63.1377428 46.3178986,62.8021855 C45.4730736,62.5810663 44.6608279,62.2404898 43.9096341,61.7953311 C43.2530753,61.4062052 42.6444728,60.9379581 42.0948688,60.4087505 C41.1862086,59.5337189 40.4386194,58.4928252 39.9252451,57.3392273 C39.3887368,56.1337946 39.1141857,54.8184411 39.1164216,53.4993004 C39.1188399,52.0544512 39.4508838,50.6145756 40.0710305,49.3100362 C40.7691119,47.8415511 41.8312688,46.5506093 43.152326,45.6007458 C44.2006116,44.8469968 45.4021202,44.317059 46.6641331,44.0456564 C47.3217414,43.9042515 47.9911677,43.8356251 48.6633773,43.8259517 L48.7579667,43.8254954 L53.9801851,43.8221645 L53.9822384,47.0769879 C52.1973147,47.078083 50.4121628,47.0559529 48.6274215,47.0815965 C48.51636,47.0842886 48.4055266,47.089034 48.294602,47.0959241 C47.9970995,47.1173242 47.7014221,47.1551051 47.4091214,47.2150163 C46.8629853,47.3268992 46.3321349,47.5111956 45.835689,47.7650309 C44.5631358,48.4157036 43.5528136,49.5128581 42.9627365,50.8105531 C42.3739371,52.1054647 42.208805,53.5859959 42.5435409,54.9716184 C42.6912427,55.5830956 42.9350396,56.1700698 43.2610147,56.7079927 C43.5393074,57.1672508 43.8762791,57.5895948 44.2557773,57.9691843 C44.8336714,58.5472609 45.5121779,59.0243143 46.2630067,59.3498332 C47.0541261,59.6927824 47.9150581,59.8624775 48.7768572,59.8532147 C49.7228422,59.8430394 50.6639448,59.6196388 51.5178956,59.2135387 C52.4920338,58.7502653 53.3518252,58.0479403 53.981919,57.1709011 C54.4626685,56.5017486 54.8032906,55.737733 54.9840279,54.9340199 C55.0880169,54.4716591 55.1374334,54.0000811 55.1440496,53.5265411 L55.1444146,53.4544469 L55.1444146,3.47913665 C54.9354328,3.4867111 54.7266791,3.49711456 54.5178342,3.50747239 C53.775675,3.5491775 53.034839,3.60534707 52.2956,3.68364681 C50.6584693,3.85699221 49.0315139,4.12647837 47.4261411,4.49123834 C42.909031,5.51753072 38.5714718,7.30240886 34.6371381,9.7470855 C29.6442065,12.8495073 25.3189672,17.00204 22.0137235,21.8629206 C20.4749238,24.1259017 19.1575626,26.5392311 18.0887438,29.0585115 C17.0018102,31.6205465 16.1724079,34.2910421 15.6166896,37.0180723 C14.9865501,40.110182 14.7099002,43.2721043 14.7813099,46.4266347 C14.8237451,48.3024975 14.987554,50.1753031 15.2799004,52.0288532 C15.8558324,55.6802402 16.9263395,59.2507265 18.448302,62.6192123 C19.7856488,65.5790885 21.4689107,68.3812244 23.4483062,70.9560812 C25.5601177,73.7031883 28.0079427,76.1910302 30.720326,78.3471933 C32.8967484,80.0773163 35.2429116,81.5936209 37.7161978,82.8638471 C40.2851228,84.1831247 42.9907073,85.2360645 45.7771467,85.9951978 C50.8487887,87.3768962 56.1808367,87.7728665 61.4045153,87.1998092 C63.7578422,86.9416391 66.0891302,86.4846168 68.3650244,85.8324384 C71.019276,85.0718906 73.5970531,84.0467389 76.0491217,82.7776079 C78.9377706,81.2825665 81.6507014,79.4504165 84.1184208,77.3315781 C86.4449634,75.3339309 88.5528051,73.0827222 90.3931228,70.6298323 C92.2441633,68.1627061 93.8231624,65.4917998 95.0896926,62.6793973 C96.1181296,60.3957005 96.9403681,58.019559 97.5428563,55.5885255 C98.0041677,53.7270815 98.336759,51.833834 98.5385771,49.9267608 C98.636543,49.001309 98.7006977,48.0734388 98.7407145,47.1437891 L98.7431329,47.0778549 L59.4543225,47.0778549 L59.4543225,43.8230771 L100.401618,43.8230771 L102.02903,45.4561012 C102.026931,46.0618747 102.016984,46.6673744 101.992983,47.2726916 C101.949361,48.3730402 101.866133,49.4718831 101.742935,50.566163 C101.371011,53.869399 100.633916,57.1301999 99.5459333,60.2712696 C98.4519272,63.4295872 97.0038383,66.4643409 95.2397671,69.303254 C93.3449225,72.3525178 91.0869607,75.1747762 88.5293061,77.6940566 C86.1735152,80.0145305 83.5644821,82.0773819 80.7619811,83.8325098 C78.0116343,85.5549671 75.0760329,86.9803326 72.0204723,88.0735631 C68.8950078,89.1917983 65.6460705,89.9613807 62.3514584,90.3663857 C61.2606463,90.5004443 60.1649519,90.5949881 59.0672498,90.6497888 C58.4616588,90.6800409 57.855794,90.6962393 57.2495643,90.7045438 C57.0462861,90.7059583 56.8430535,90.7066884 56.6397754,90.7067797 L56.6397754,90.7067797 Z M100.433057,38.3542784 L101.941604,38.3542784 L101.941604,41.6090562 L95.854347,41.6090562 L95.854347,38.3542784 L97.1107932,38.3542784 C97.058274,38.0993479 97.0052984,37.8445088 96.9514103,37.5898977 C96.9074694,37.386939 96.8624334,37.1842996 96.8163935,36.9817971 C96.6757186,36.3775294 96.5229064,35.7766838 96.3575917,35.1787129 L96.3016959,34.9803171 L95.820262,33.3051316 L98.9484643,32.4061447 C99.1916681,33.2524298 99.443587,34.0972548 99.6674439,34.949198 C99.8571246,35.6711891 100.02609,36.3980169 100.180636,37.1283125 L100.433057,38.3542784 L100.433057,38.3542784 Z M94.7716113,30.4896263 C94.4907178,29.8865905 94.211969,29.2825509 93.9279727,28.6809753 C93.8405471,28.4980934 93.7522546,28.3156678 93.6630038,28.1336985 C93.393107,27.5900263 93.1125786,27.052286 92.821236,26.519793 L92.723407,26.3430711 L91.8624292,24.8056858 L94.7022549,23.215325 C95.0260855,23.7935385 95.3518325,24.3707025 95.6727884,24.9505586 C95.7775531,25.1420188 95.8813139,25.3339809 95.9841622,25.5264906 C96.3245561,26.1713227 96.6501206,26.8230904 96.9614031,27.4824783 L97.7219966,29.1152742 C96.73855,29.5733916 95.7550579,30.0315089 94.7716113,30.4896263 L94.7716113,30.4896263 Z M90.1896621,22.3033795 C89.8055097,21.8114965 89.423,21.3183359 89.0364292,20.8283237 C88.9113139,20.6713592 88.7855141,20.5149879 88.6588474,20.3592554 C88.1920149,19.790624 87.7117218,19.2340845 87.2176029,18.6889522 L86.0688417,17.4341487 L88.4694862,15.2363261 C88.9030094,15.7098205 89.338084,16.1819004 89.7692345,16.657585 C90.4443644,17.4100564 91.0949002,18.1825591 91.7210243,18.9762794 L92.7548455,20.299983 C91.8997996,20.9678122 91.0447536,21.6355959 90.1896621,22.3033795 L90.1896621,22.3033795 Z M83.8733919,15.3719818 C83.3780867,14.9728174 82.8841504,14.5719647 82.3869288,14.1752643 C82.2293255,14.0508334 82.0711747,13.9271782 81.912385,13.8042531 C81.3273271,13.355946 80.7319571,12.9225597 80.125636,12.503501 L78.7547518,11.5659118 L80.5921948,8.87935465 C81.1110446,9.23421308 81.6310808,9.58742886 82.1481968,9.94484253 C82.8596019,10.4416991 83.5567251,10.9571267 84.2403421,11.4916274 L84.4103565,11.6258686 L84.5798235,11.7610679 L85.9158013,12.837735 C85.2349678,13.6825143 84.5541798,14.5272481 83.8733919,15.3719818 L83.8733919,15.3719818 Z M76.1538863,10.0536226 C75.5539534,9.76647792 74.9550243,9.4772343 74.3537224,9.1930099 C74.1698367,9.10722697 73.9855859,9.02240225 73.8008332,8.93844449 C73.1817359,8.66088195 72.5570719,8.39755574 71.9261111,8.14819206 L70.2966005,7.51358089 L71.4777584,4.48069799 C72.0918364,4.71984073 72.7067358,4.95693015 73.3196274,5.19917567 C74.1352497,5.52624591 74.9407879,5.87535506 75.7372003,6.24686815 L75.9352311,6.34049931 L77.5592206,7.1178843 C77.0907911,8.09644852 76.6223159,9.07505837 76.1538863,10.0536226 L76.1538863,10.0536226 Z M63.5687547,5.86549914 L63.5687547,7.03524979 L60.3139769,7.03524979 L60.3139769,0.879776961 L63.5687547,0.879776961 L63.5687547,2.57093268 L63.6514805,2.58316132 C64.5435773,2.72018586 65.4306093,2.8820327 66.3135347,3.06920375 L68.1147025,3.4604743 C67.8843662,4.52066919 67.6540755,5.58086408 67.4237392,6.6411046 C66.7583283,6.49655124 66.0933737,6.34962515 65.4271872,6.20844835 C65.2232245,6.16628695 65.0191251,6.12522066 64.8147518,6.08520383 C64.4003016,6.00617403 63.9850757,5.93293913 63.5687547,5.86549914 L63.5687547,5.86549914 Z" id="path-2"></path>
    </defs>
    <g stroke="none" stroke-width="1" fill="rgb(0,0,0)" fill-rule="evenodd" sketch:type="MSPage">
        <g sketch:type="MSArtboardGroup" transform="translate(-821.000000, -5144.000000)">
            <g sketch:type="MSLayerGroup" transform="translate(140.000000, 5005.000000)">
                <g transform="translate(620.000000, 99.000000)">
                    <g transform="translate(61.000000, 40.000000)">
                        <g>
                            <mask id="mask-3" sketch:name="icon (brand)" fill="white">
                                <use xlink:href="#path-2"></use>
                            </mask>
                            <use fill="rgb(0,0,0)" sketch:type="MSShapeGroup" xlink:href="#path-2"></use>
                        </g>
                    </g>
                </g>
            </g>
        </g>
    </g>
</svg>