<?xml version="1.0" encoding="UTF-8" standalone="no"?>
<svg width="25px" height="25px" viewBox="0 0 25 25" version="1.1" xmlns="http://www.w3.org/2000/svg" xmlns:xlink="http://www.w3.org/1999/xlink" xmlns:sketch="http://www.bohemiancoding.com/sketch/ns">
    <!-- Generator: Sketch 3.3.2 (12043) - http://www.bohemiancoding.com/sketch -->
    <title>:: clock icon</title>
    <desc>Created with Sketch.</desc>
    <defs></defs>
    <g stroke="none" stroke-width="1" fill="rgb(0,0,0)" fill-rule="evenodd" sketch:type="MSPage">
        <g sketch:type="MSArtboardGroup" transform="translate(-773.000000, -2661.000000)" fill="rgb(0,0,0)">
            <g sketch:type="MSLayerGroup" transform="translate(773.000000, 2657.000000)">
                <path d="M12.5001062,29.0000159 C11.9157255,28.9962744 11.3332156,28.9597506 10.754269,28.8786856 C9.58230075,28.7144177 8.43509741,28.3821402 7.35684385,27.894414 C5.93882996,27.2530206 4.64472971,26.3441127 3.55747883,25.2306716 C2.50461376,24.1525072 1.64808634,22.8848644 1.04384031,21.5042651 C0.52636056,20.3219633 0.195152139,19.0599327 0.0645573178,17.7758988 C-0.0744112504,16.4085728 0.0110187861,15.0185308 0.320491097,13.6792657 C0.607069228,12.4387931 1.08597629,11.2441979 1.73405087,10.1483951 C2.4729895,8.89883607 3.4304473,7.7801391 4.5500351,6.85617629 C5.48139176,6.0875732 6.52338877,5.4543754 7.63540456,4.98357483 C9.12094292,4.35465298 10.7262081,4.02130658 12.3390452,4.00099579 C13.9576727,3.98059591 15.5763002,4.27376614 17.0824166,4.8682131 C18.5331237,5.44074579 19.8727451,6.28783047 21.0139799,7.35067277 C22.1147713,8.37583321 23.0294695,9.59822212 23.6992802,10.9453264 C24.2703876,12.0940442 24.662172,13.3306862 24.8560154,14.5988635 C25.0561836,15.9081078 25.0480771,17.2494217 24.8312505,18.5560826 C24.6299242,19.7700977 24.2471371,20.9527559 23.6992802,22.0546163 C23.0963704,23.2672952 22.2948959,24.3795782 21.3374381,25.3372142 C20.3442583,26.3305722 19.184138,27.1554754 17.9187223,27.765779 C16.85588,28.2782701 15.7202573,28.638074 14.5561283,28.8312047 C13.9820813,28.9264338 13.4034019,28.977478 12.821961,28.9959181 C12.6608109,28.9989469 12.6611672,28.9989469 12.5001062,29.0000159 L12.5001062,29.0000159 Z M12.5001062,26.3274543 C12.9603059,26.3245146 13.4189913,26.2959192 13.8750042,26.231958 C14.7948692,26.1030557 15.6954924,25.8424006 16.5417754,25.4594353 C18.4881371,24.5788556 20.1215522,23.0582188 21.1415459,21.1813414 C21.6009439,20.3359492 21.9346466,19.4231217 22.1277773,18.4804516 C22.3451384,17.4195691 22.3854037,16.3219847 22.248484,15.247918 C22.1208289,14.245919 21.8373687,13.2651216 21.4097731,12.3498888 C20.9083281,11.2768912 20.2112582,10.2968955 19.3638172,9.46958711 C18.4868899,8.61368326 17.4515741,7.92240372 16.3228999,7.4447438 C15.1555639,6.95069273 13.8946914,6.68923584 12.627405,6.67329009 C11.3549517,6.65725525 10.0828548,6.88690972 8.89877138,7.35414699 C7.75789288,7.80428043 6.70493873,8.47088415 5.8074334,9.30656629 C4.94110691,10.1131185 4.22105374,11.0751195 3.69395309,12.1352002 C3.24560129,13.0370706 2.93844512,14.0074454 2.78593603,15.0030304 C2.6219353,16.0742465 2.63556491,17.1731672 2.82629036,18.2399291 C2.98904394,19.1503514 3.28221417,20.0366323 3.69395309,20.8648315 C4.18595527,21.8542699 4.84605597,22.7585455 5.63648424,23.5305337 C6.3991188,24.2752627 7.28219279,24.8954545 8.24241214,25.3585049 C9.11363817,25.7787067 10.0469546,26.0677791 11.0030762,26.2141415 C11.4149933,26.2771228 11.8296719,26.3110632 12.2460431,26.3242474 C12.3735201,26.3266526 12.3729856,26.3266526 12.5001062,26.3274543 L12.5001062,26.3274543 Z M12.7065992,18.2186384 L11.370363,16.8824021 L11.370363,8.7522955 L14.0428355,8.7522955 L14.0428355,15.5461659 L18.8575619,15.5461659 L18.8575619,18.2186384 L12.7065992,18.2186384 L12.7065992,18.2186384 Z" sketch:type="MSShapeGroup"></path>
            </g>
        </g>
    </g>
</svg>