<?xml version="1.0" encoding="UTF-8" standalone="no"?>
<svg width="22px" height="22px" viewBox="0 0 22 22" version="1.1" xmlns="http://www.w3.org/2000/svg" xmlns:xlink="http://www.w3.org/1999/xlink" xmlns:sketch="http://www.bohemiancoding.com/sketch/ns">
    <!-- Generator: Sketch 3.3.2 (12043) - http://www.bohemiancoding.com/sketch -->
    <title>icon (close)</title>
    <desc>Created with Sketch.</desc>
    <defs></defs>
    <g stroke="none" stroke-width="1" fill="rgb(0,0,0)" fill-rule="evenodd" sketch:type="MSPage">
        <g sketch:type="MSArtboardGroup" transform="translate(-1279.000000, -218.000000)" fill="rgb(0,0,0)">
            <g sketch:type="MSLayerGroup" transform="translate(100.000000, 100.000000)">
                <g transform="translate(1179.000000, 118.000000)" sketch:type="MSShapeGroup">
                    <path d="M12.0937143,10.9874286 L21.7737143,1.30742857 C21.9245714,1.15657143 22,0.976380952 22,0.766857143 C22,0.557333333 21.9245714,0.377142857 21.7737143,0.226285714 C21.6228571,0.0754285714 21.4426667,0 21.2331429,0 C21.023619,0 20.8434286,0.0754285714 20.6925714,0.226285714 L11.0125714,9.90628571 L1.30742857,0.226285714 C1.15657143,0.0754285714 0.976380952,0 0.766857143,0 C0.557333333,0 0.377142857,0.0754285714 0.226285714,0.226285714 C0.0754285714,0.377142857 0,0.557333333 0,0.766857143 C0,0.976380952 0.0754285714,1.15657143 0.226285714,1.30742857 L9.90628571,10.9874286 L0.226285714,20.6925714 C0.0754285714,20.8434286 0,21.023619 0,21.2331429 C0,21.4426667 0.0754285714,21.6228571 0.226285714,21.7737143 C0.377142857,21.9245714 0.557333333,22 0.766857143,22 C0.976380952,22 1.15657143,21.9245714 1.30742857,21.7737143 L11.0125714,12.0937143 L20.6925714,21.7737143 C20.8434286,21.9245714 21.023619,22 21.2331429,22 C21.4426667,22 21.6228571,21.9245714 21.7737143,21.7737143 C21.9245714,21.6228571 22,21.4426667 22,21.2331429 C22,21.023619 21.9245714,20.8434286 21.7737143,20.6925714 L12.0937143,10.9874286 Z"></path>
                </g>
            </g>
        </g>
    </g>
</svg>