<?xml version="1.0" encoding="UTF-8" standalone="no"?>
<svg width="110px" height="73px" viewBox="0 0 110 73" version="1.1" xmlns="http://www.w3.org/2000/svg" xmlns:xlink="http://www.w3.org/1999/xlink" xmlns:sketch="http://www.bohemiancoding.com/sketch/ns">
    <!-- Generator: Sketch 3.3.2 (12043) - http://www.bohemiancoding.com/sketch -->
    <title>icon (app)</title>
    <desc>Created with Sketch.</desc>
    <defs>
        <path d="M20.5478225,68.7468445 C43.5580455,68.7468445 66.5692704,68.9617417 89.5784915,68.745492 C89.7553684,68.7426869 89.9321451,68.7376776 90.1089218,68.7303641 C90.94131,68.6908911 91.7695907,68.5943127 92.5872017,68.4323133 C94.0078771,68.1508431 95.3901315,67.6796724 96.6871283,67.0351313 C98.5823307,66.0932908 100.290287,64.7835704 101.694783,63.2006952 C103.105339,61.6109574 104.205623,59.7500184 104.911627,57.7450131 C105.354195,56.4881905 105.641676,55.1781696 105.76801,53.8518185 C105.804628,53.4672077 105.82777,53.0812945 105.837538,52.6950808 C105.844151,52.4345994 105.843499,52.174068 105.842948,51.9135365 C105.841496,51.2086839 105.799167,50.5046829 105.710203,49.8053906 C105.561628,48.637282 105.287171,47.4855035 104.891941,46.3762536 C104.303153,44.7239 103.44692,43.1692771 102.368528,41.7859707 C101.112607,40.1748433 99.5576331,38.7998022 97.8039923,37.7518657 C96.5503756,37.0027313 95.1970246,36.4217075 93.7899243,36.0305346 C93.1266987,35.8461439 92.4535046,35.7084895 91.7732475,35.6045474 L91.4998422,35.5417814 C91.2685648,35.4511139 91.2028434,35.4401436 90.9955102,35.2996339 C90.5266938,34.9817966 90.219426,34.4585796 90.1702351,33.8943369 C90.1545561,33.7141539 90.1689828,33.5870691 90.1789512,33.4129974 C90.1887193,33.2422318 90.190222,33.1969982 90.1978862,33.0261325 C90.2049993,32.8323243 90.2105095,32.6386163 90.2144668,32.444708 C90.2267896,31.4528751 90.1855634,30.462044 90.0790165,29.4756211 C89.8782956,27.616786 89.4565662,25.7826966 88.8242978,24.0232451 C87.8034112,21.1824954 86.232959,18.545923 84.2296569,16.2885012 C82.2666292,14.0765135 79.8933934,12.2335076 77.2612793,10.8844145 C75.3160845,9.88742201 73.2331853,9.16248232 71.0891231,8.73724648 C68.465174,8.21678466 65.7522104,8.14334895 63.1034656,8.51628815 C61.1493543,8.79144664 59.2309591,9.31220901 57.4062871,10.063798 C56.4787731,10.445854 55.5798619,10.8897243 54.7062975,11.3823847 L54.4616955,11.4981486 C54.2325721,11.5688293 54.1764684,11.5995861 53.9357235,11.6201241 C53.4838384,11.6586452 53.0253912,11.5307088 52.6586635,11.2638657 C52.5241149,11.1659347 52.4548869,11.0918478 52.343982,10.9844994 C52.2398395,10.8837633 52.134595,10.7842293 52.0289999,10.6849959 C51.8874383,10.553553 51.7447746,10.4234125 51.6008587,10.2944242 C50.8404534,9.62087944 50.0434305,8.99071489 49.2072853,8.41359838 C47.5633473,7.27900164 45.7808032,6.34637814 43.9103967,5.64523242 C41.7069747,4.81925601 39.3848835,4.31787947 37.0374454,4.15628083 C34.3650568,3.97234091 31.6637648,4.22235293 29.073528,4.90676773 C26.4344009,5.60410642 23.9185516,6.75012427 21.6570223,8.27839853 C19.8296453,9.5132806 18.170379,10.995119 16.7361786,12.6704651 C15.3932969,14.2391641 14.2487317,15.9771759 13.3406536,17.8318033 C12.0552782,20.4570548 11.250491,23.3106783 10.9735291,26.2205056 C10.7633908,28.4278348 10.8513033,30.6625145 11.2388695,32.8458994 C11.3636501,33.5487483 11.5191875,34.2461371 11.7049308,34.9353607 C11.808923,35.3212739 11.9241359,35.7035804 12.0449091,36.0845344 L12.1080758,36.3474202 C12.1303169,36.5859611 12.1489012,36.6471241 12.1197975,36.8867169 C12.0650964,37.3365481 11.8464423,37.7587784 11.510772,38.0630908 C11.3880953,38.1742462 11.311103,38.2203815 11.1876248,38.3043867 C11.0834823,38.3752176 10.980492,38.4476014 10.8777521,38.5203358 C10.7416506,38.6183169 10.6067012,38.7177005 10.4728539,38.8186871 C9.9407706,39.2263405 9.4309785,39.6613444 8.94968907,40.1280569 C7.92664849,41.1201402 7.03069276,42.2427649 6.29147668,43.4611665 C5.45412926,44.8412669 4.81955657,46.3429921 4.41555998,47.9059304 C3.77207081,50.3952307 3.71511555,53.033907 4.246197,55.5493555 C4.52045382,56.8483561 4.95205142,58.1135942 5.52836645,59.3096045 C6.31246547,60.9368617 7.36340762,62.4332269 8.6251894,63.7255151 C10.0745178,65.2098582 11.7996558,66.4214472 13.6901996,67.2761767 C15.0618844,67.8963228 16.5176247,68.3274695 18.0056245,68.5547896 C18.7394807,68.6669469 19.4794481,68.7273585 20.2214694,68.7437889 C20.3302705,68.745492 20.4390214,68.7464939 20.5478225,68.7468445 L20.5478225,68.7468445 Z M20.5419617,72.5400544 C19.6727554,72.5373494 18.8049016,72.4855036 17.9424578,72.375851 C16.101155,72.1417684 14.2933642,71.6552192 12.5837048,70.932133 C10.2361665,69.9392982 8.08143454,68.5028436 6.25791466,66.7223533 C4.67338644,65.1751941 3.34142497,63.371561 2.3318092,61.4003181 C1.58963766,59.9511901 1.02218901,58.4132981 0.646093985,56.8292207 C-0.134147906,53.5430478 -0.0874616296,50.0664731 0.783397723,46.8029922 C1.25461854,45.0370788 1.96548222,43.3363859 2.88974026,41.7596721 C3.74812656,40.2952659 4.78940084,38.9385086 5.98125339,37.7299752 C6.59448665,37.1081761 7.24779396,36.5291561 7.93280988,35.9877556 L8.03795418,35.9058542 C7.96992847,35.6482782 7.97012884,35.6487791 7.90450757,35.3903516 C7.83948742,35.1233582 7.83963769,35.1239092 7.77707207,34.8558137 C7.69727461,34.4980025 7.62098362,34.1396903 7.55340874,33.7793745 C7.40117742,32.9677245 7.28451182,32.1494624 7.20391287,31.3276437 C6.95059474,28.7442195 7.05373534,26.1252296 7.51077996,23.5699574 C8.10036953,20.2734154 9.28445773,17.0904332 10.9890077,14.2080566 C13.0934969,10.6495304 15.9812835,7.56673337 19.3923872,5.23126741 C22.1383618,3.35119302 25.2152479,1.96192565 28.4434136,1.15212914 C31.3873039,0.413664454 34.4487615,0.157440952 37.4749539,0.384761041 C40.1279066,0.584079382 42.7506034,1.15949275 45.2418572,2.09336856 C47.4029008,2.90346562 49.4625571,3.98085665 51.3619171,5.29172914 C52.2810156,5.92605138 53.1589881,6.61607655 53.9991407,7.35148559 L54.0749809,7.41865972 C54.2382826,7.33645781 54.4025362,7.25640989 54.5671404,7.17681279 C54.7640042,7.08354042 54.9614691,6.99192111 55.1597856,6.90180457 C56.1615368,6.45608087 57.1846776,6.06320484 58.2315122,5.73645099 C60.3725688,5.06826618 62.5948757,4.66567219 64.8339635,4.53633317 C67.7997443,4.36501657 70.7912727,4.66882802 73.6590223,5.44571371 C76.1993168,6.13383536 78.6372721,7.19068843 80.8778627,8.5712397 C83.6974734,10.3085503 86.1980946,12.5548013 88.2292481,15.1705853 C89.9687127,17.4107251 91.3602342,19.9184093 92.3363381,22.5814807 C93.0824669,24.6170925 93.5844947,26.7411177 93.8310503,28.8949981 C93.9512725,29.9451889 94.0077268,31.0006394 94.0108826,32.0574924 L94.0104318,32.1724048 C94.1881101,32.2143323 94.1876593,32.214733 94.3650872,32.2587143 C94.5858953,32.3160703 94.5854945,32.31592 94.8059519,32.3758808 C95.6045277,32.6027501 96.3896286,32.8694429 97.1561952,33.1887831 C98.8020868,33.8745003 100.355758,34.7794727 101.765513,35.8711401 C103.691923,37.3629469 105.346531,39.2009937 106.626246,41.2745256 C107.729585,43.0621791 108.551955,45.0209991 109.05263,47.0613196 C109.441348,48.6452467 109.632501,50.2722033 109.636158,51.9026664 C109.63691,52.242294 109.636559,52.5817714 109.625839,52.9212488 C109.609459,53.4375529 109.573643,53.9532058 109.51819,54.4667549 C109.315916,56.3413191 108.850456,58.1861784 108.137238,59.9317041 C107.150465,62.3468674 105.69217,64.5633635 103.869702,66.4299128 C102.049037,68.2945086 99.8705613,69.8040483 97.4828488,70.8487288 C95.8388607,71.567958 94.0990456,72.0656778 92.3236145,72.3254578 C91.3867833,72.4625111 90.4421877,72.5307372 89.4956384,72.5396537 C66.511163,72.6115866 43.5264872,72.5400544 20.5419617,72.5400544 L20.5419617,72.5400544 Z" id="path-2"></path>
    </defs>
    <g stroke="none" stroke-width="1" fill="rgb(0,0,0)" fill-rule="evenodd" sketch:type="MSPage">
        <g sketch:type="MSArtboardGroup" transform="translate(-293.000000, -411.000000)">
            <g sketch:type="MSLayerGroup" transform="translate(100.000000, 152.000000)">
                <g transform="translate(143.000000, 217.000000)">
                    <g transform="translate(0.000000, 2.000000)">
                        <g transform="translate(50.000000, 40.000000)">
                            <g>
                                <mask id="mask-3" sketch:name="icon (app)" fill="white">
                                    <use xlink:href="#path-2"></use>
                                </mask>
                                <use fill="rgb(0,0,0)" sketch:type="MSShapeGroup" xlink:href="#path-2"></use>
                            </g>
                        </g>
                    </g>
                </g>
            </g>
        </g>
    </g>
</svg>