<?xml version="1.0" encoding="UTF-8" standalone="no"?>
<svg width="301px" height="198px" viewBox="0 0 301 198" version="1.1" xmlns="http://www.w3.org/2000/svg" xmlns:xlink="http://www.w3.org/1999/xlink" xmlns:sketch="http://www.bohemiancoding.com/sketch/ns">
    <!-- Generator: Sketch 3.3.3 (12081) - http://www.bohemiancoding.com/sketch -->
    <title>icon (cloud)</title>
    <desc>Created with Sketch.</desc>
    <defs></defs>
    <g id="02-›-Pages-(Desktop)" fill="transparent" fill-rule="evenodd" sketch:type="MSPage">
        <g id="//-What-We-Do" sketch:type="MSArtboardGroup" transform="translate(-268.000000, -4160.000000)" stroke-linecap="round" stroke-linejoin="round">
            <g id="::-02-offerings" sketch:type="MSLayerGroup" transform="translate(100.000000, 3178.000000)">
                <g id="::-offering-01" transform="translate(0.000000, 720.000000)" sketch:type="MSShapeGroup">
                    <g id="::-graphic" transform="translate(160.000000, 196.000000)">
                        <path d="M43.7499022,259.808397 C153.314102,260.285894 223.588859,258.484275 267.899215,256.326226 C288.572121,255.223919 304.606618,237.857933 304.058936,217.163015 C303.511339,196.468097 286.580857,179.974136 265.878658,179.967363 C265.870869,179.96059 265.86308,179.96059 265.855207,179.96059 C252.039969,179.96059 251.176495,205.43217 267.150459,205.43217 C299.529912,205.43217 280.685041,70 179.661008,70 C63.094791,70 27.0138058,200.128907 61.7275752,200.128907 C80.8991596,200.128907 79.7190481,176.237977 57.427648,176.237977 C14.4133065,176.237977 12,235.388326 12,250.310104" id="icon-(cloud)"></path>
                    </g>
                </g>
            </g>
        </g>
    </g>
</svg>