<?xml version="1.0" encoding="UTF-8" standalone="no"?>
<svg width="103px" height="103px" viewBox="0 0 103 103" version="1.1" xmlns="http://www.w3.org/2000/svg" xmlns:xlink="http://www.w3.org/1999/xlink" xmlns:sketch="http://www.bohemiancoding.com/sketch/ns">
    <!-- Generator: Sketch 3.3.2 (12043) - http://www.bohemiancoding.com/sketch -->
    <title>Imported Layers</title>
    <desc>Created with Sketch.</desc>
    <g stroke="none" stroke-width="1" fill="rgb(0,0,0)" fill-rule="evenodd" sketch:type="MSPage">
        <g sketch:type="MSArtboardGroup" transform="translate(-558.000000, -3104.000000)" fill="rgb(0,0,0)">
            <g sketch:type="MSLayerGroup" transform="translate(100.000000, 2808.000000)">
                <g transform="translate(100.000000, 296.000000)" sketch:type="MSShapeGroup">
                    <g transform="translate(288.000000, 0.000000)">
                        <path d="M151.282126,30.9183123 L165.262528,30.9183123 L166.295603,31.5532553 C166.415552,31.7902976 166.534112,32.0278802 166.651437,32.2662347 C167.180247,33.3510255 167.676639,34.4510222 168.13436,35.5677685 C169.118498,37.9688349 169.932053,40.4395242 170.572553,42.9541331 C171.712147,47.427525 172.301781,52.0374612 172.352493,56.6527234 C172.393325,60.3675182 172.087663,64.086481 171.426091,67.7423819 C170.534963,72.6673196 168.997468,77.4763992 166.829508,81.9886163 C165.69717,84.3452999 164.393321,86.6202422 162.924755,88.7836487 C161.305288,91.1692776 159.485828,93.4197515 157.480192,95.4916139 C155.957903,97.0642286 154.328556,98.5338677 152.602261,99.8795671 C151.696391,100.585715 150.76335,101.255408 149.807694,101.892404 L149.650541,101.996198 L149.012356,102.187931 L106.462761,102.187931 C106.250033,102.124044 106.032828,102.073617 105.824731,101.996268 C105.765837,101.974385 105.719756,101.927139 105.667423,101.892404 C105.563992,101.823792 105.45292,101.749415 105.350106,101.679923 C105.033406,101.465836 104.719408,101.247628 104.408189,101.025498 C103.575646,100.431179 102.763404,99.8084467 101.972774,99.1594865 C98.4502532,96.26835 95.3620652,92.8605293 92.7749002,89.1116949 C91.2529203,86.9064528 89.9036086,84.5824194 88.7340661,82.171859 C86.6127266,77.7994282 85.0852665,73.1441058 84.1667373,68.3729252 C83.4239636,64.5146392 83.0791677,60.5812499 83.1226242,56.6526462 C83.1443139,54.6948667 83.2627964,52.7380906 83.4790753,50.7922752 C83.4016564,50.7647965 83.3243919,50.7367003 83.2472818,50.708141 C82.4903828,50.4273335 81.7503878,50.1009854 81.0325456,49.731644 C78.607474,48.483988 76.4419062,46.7447258 74.6966234,44.6493213 C73.5871327,43.3173767 72.6483804,41.8437933 71.9120132,40.2743433 C71.2486653,38.8605801 70.7502667,37.3698612 70.4304024,35.8412432 C69.8711029,33.1686318 69.8568233,30.3830182 70.3880265,27.7046949 C70.8868111,25.1893913 71.8701005,22.7765925 73.2672684,20.6266165 C74.6182011,18.5478073 76.3502076,16.7206287 78.3529874,15.2593182 C80.1780818,13.9277595 82.2246268,12.9035608 84.3859493,12.2453844 C86.3002723,11.6624656 88.2995786,11.3686135 90.3005058,11.3686135 C92.3847954,11.3686135 94.4670781,11.6876287 96.4534941,12.3196386 C99.0316282,13.1399084 101.435705,14.4831223 103.49074,16.2421445 C105.782509,18.2037062 107.629371,20.6732377 108.856263,23.4294429 C109.672905,25.2639543 110.212522,27.2196497 110.453424,29.213167 C110.521812,29.7793361 110.566349,30.3483611 110.587112,30.9183123 L142.004981,30.9183123 L144.781023,20.3992998 L145.077423,19.8805238 L164.558656,0.188414279 L165.960687,0 L171.87918,3.41700603 L172.122629,5.23476771 L152.982255,24.5472699 L151.282126,30.9183123 L151.282126,30.9183123 Z M91.4475096,27.2212707 C91.8099813,27.3148217 92.1609521,27.4526011 92.4901561,27.6315213 C93.0719942,27.9477578 93.5831287,28.3905044 93.9797944,28.9207814 C94.2914769,29.3374386 94.5316839,29.8068147 94.6863673,30.3036696 C94.7430228,30.4856001 94.785553,30.6703094 94.8214451,30.8573343 L94.8315566,30.9183123 L108.26964,30.9183123 C108.262538,30.745104 108.252504,30.5721271 108.241003,30.3991503 C108.191372,29.7203649 108.108009,29.0448986 107.983892,28.3756072 C107.748471,27.1055669 107.374961,25.8615386 106.871468,24.6720818 C106.025495,22.6737018 104.814117,20.8337873 103.316683,19.2634882 C101.796478,17.6692611 99.9855092,16.3557642 97.9952338,15.4111456 C96.4622934,14.6835007 94.8262307,14.1761483 93.1504937,13.9090802 C91.1556643,13.5911455 89.1061862,13.6096705 87.1176862,13.9653497 C85.0574019,14.3339192 83.066509,15.0675076 81.2587817,16.1221182 C79.2658048,17.284791 77.5017655,18.8319339 76.0867673,20.6542496 C74.6355682,22.5233408 73.5578015,24.6768674 72.939145,26.9612265 C72.2794249,29.39695 72.1424174,31.9712247 72.5320591,34.4642212 C72.7467942,35.8380014 73.1223106,37.1860781 73.6492685,38.472791 C74.1881133,39.7885262 74.8844974,41.0390382 75.7176575,42.190982 C77.0634958,44.0518914 78.764859,45.651676 80.7056573,46.8794949 C81.2560029,47.2276098 81.8252595,47.5459303 82.4101851,47.8322953 C82.7309757,47.9893716 83.0567834,48.1350241 83.3856786,48.2741928 C83.5198302,48.329459 83.6541362,48.3841848 83.7893684,48.4367493 C83.8219414,48.2235579 83.8559811,48.0106753 83.8904838,47.7978698 C83.9040688,47.7164372 83.9177309,47.6350817 83.9315475,47.5536491 C83.9487602,47.4513759 83.9662818,47.3491026 83.984112,47.2469066 C83.9961533,47.1772065 84.0083489,47.1075835 84.0205445,47.0378833 C84.0301157,46.9850872 84.0396869,46.9322139 84.0493353,46.8794177 C84.1362483,46.3984635 84.2294134,45.918667 84.3285991,45.4400283 C84.3568497,45.3035611 84.3855633,45.1671711 84.4148945,45.0309355 C84.4706238,44.7718948 84.5282055,44.5133172 84.5874854,44.2550484 L84.5894923,44.2465578 L84.5906501,44.2415406 L84.5935832,44.2286503 L84.597211,44.2129813 L84.6017651,44.193067 L84.6067822,44.1716861 L84.6077857,44.1670549 L84.6085576,44.1637358 C84.7177004,43.6921212 84.8328639,43.2218188 84.9541252,42.7531373 C85.6127648,40.2064956 86.4491667,37.7057032 87.4607067,35.2774669 C87.3992656,35.228453 87.3390594,35.1782812 87.2793936,35.127106 C87.2184928,35.0728433 87.1587498,35.0178088 87.0997787,34.961462 C86.7694169,34.634728 86.4852904,34.2670076 86.2631452,33.8583006 C86.1479817,33.6464214 86.0497222,33.4254341 85.9693702,33.1981946 L80.6175093,33.1981946 L80.6175093,30.8825746 L85.7753213,30.8825746 C85.8091293,30.6869047 85.8555961,30.4933961 85.9146444,30.3036696 C86.0474838,29.8772096 86.2431537,29.4707411 86.4932407,29.100705 C86.7811494,28.6747081 87.1406108,28.2977252 87.5522509,27.9897477 C87.9992427,27.655295 88.5069038,27.4033556 89.0439732,27.250679 C89.0731501,27.24242 89.1024812,27.2343925 89.1318896,27.2266738 L89.1318896,22.1399514 L91.4475096,22.1399514 L91.4475096,27.2212707 L91.4475096,27.2212707 Z M85.9054591,50.0102903 C85.6179363,52.2210127 85.4627898,54.4490251 85.4380898,56.6782724 C85.3963315,60.451498 85.7271564,64.229432 86.4405989,67.9351958 C87.3209204,72.5080822 88.7842379,76.9702819 90.8174294,81.1610909 C91.8528203,83.2950891 93.0354846,85.3579205 94.359942,87.3258116 C95.861776,89.557143 97.5467754,91.6659781 99.4020502,93.6138005 C100.838738,95.1221181 102.377853,96.5334885 104.00998,97.8279973 C104.816973,98.4680655 105.647354,99.0773977 106.497033,99.6596758 C106.601776,99.7308194 106.706442,99.8020633 106.811803,99.8723115 L148.663315,99.8723115 C148.869173,99.7350801 149.073102,99.5949079 149.276568,99.45418 C150.071906,98.8989483 150.85034,98.3203752 151.60778,97.7143775 C153.283517,96.3736335 154.860222,94.909853 156.327862,93.3441851 C158.169629,91.3793044 159.839886,89.2548002 161.32636,87.0093435 C162.637464,85.0289481 163.805848,82.9544614 164.826419,80.8098885 C166.860383,76.5358715 168.304866,71.9866817 169.14752,67.3301243 C169.770422,63.8875693 170.06466,60.3868922 170.038957,56.8888395 C170.005921,52.387197 169.44006,47.8888737 168.32864,43.5257053 C167.714692,41.1155308 166.935023,38.7474235 165.991716,36.446006 C165.553447,35.3767299 165.078204,34.3235859 164.571933,33.2849531 L164.546847,33.2339323 L149.092476,33.2339323 L142.896263,33.2410335 L142.890783,33.2339323 L90.9282704,33.2339323 C90.8070863,33.4802371 90.6886037,33.7277769 90.5710474,33.975857 C90.2336616,34.6946254 89.9110957,35.4200319 89.6052023,36.1525397 C89.5543359,36.2748045 89.503701,36.3971464 89.453452,36.5196427 C89.4407161,36.5508264 89.4280574,36.5820101 89.4153215,36.6132709 C89.1242481,37.3348953 88.8460649,38.0614597 88.5854805,38.7947393 C88.3846391,39.359905 88.1933688,39.9284669 88.011747,40.5001162 L88.0106664,40.5033581 C87.9885908,40.5728267 87.9666696,40.6423725 87.9448256,40.7119955 L87.9414294,40.7228789 L87.9233676,40.7808466 L87.9197397,40.7923475 L87.898822,40.8598092 L87.8779814,40.9271166 L87.8734273,40.941705 L87.8576039,40.9931889 L87.8517377,41.0124086 L87.8361459,41.063275 L87.8313603,41.0790212 L87.8114459,41.1440902 L87.8072006,41.1582926 L87.7917632,41.2091591 L87.7847391,41.2323153 L87.7716944,41.2756174 L87.7645932,41.2991595 L87.7493873,41.3499488 L87.7449876,41.36446 L87.7263083,41.4270589 L87.7190527,41.4513729 L87.7068571,41.4923594 L87.698984,41.5191434 L87.6868656,41.5601299 L87.67961,41.5845983 L87.6614709,41.6462709 L87.6551416,41.6678062 L87.6424829,41.7112627 L87.6345326,41.7384326 L87.623186,41.7774122 L87.6153129,41.8043506 L87.6021911,41.8498139 L87.5965564,41.8693423 L87.5786489,41.9313238 L87.5715477,41.9561781 L87.5598152,41.9970874 L87.5522509,42.0236398 L87.5402096,42.0657069 L87.5335715,42.0890947 L87.5157413,42.1520795 L87.5110328,42.1686748 L87.4971391,42.2178431 L87.490501,42.2415397 L87.478151,42.2854592 L87.4718217,42.3082295 L87.4567701,42.3621835 L87.4535283,42.3736072 L87.435312,42.4392936 L87.4306036,42.4562748 L87.4167099,42.5065238 L87.4113068,42.5262065 L87.3969499,42.5785396 L87.3930906,42.5926648 L87.3744112,42.66113 L87.3561178,42.7283602 L87.35249,42.7418679 L87.3371298,42.7986006 L87.3338107,42.8107962 L87.3156717,42.8784895 L87.2963749,42.9505825 L87.2959889,42.9520491 L87.2779271,43.0200511 L87.2760746,43.0271523 C87.2443506,43.1468699 87.2130897,43.2666646 87.1821376,43.3866137 C86.9409272,44.3232048 86.7248027,45.2662025 86.5336868,46.2142945 L86.5318343,46.2234798 L86.5218,46.2733428 L86.5167828,46.2983515 L86.5107622,46.3283774 L86.5063625,46.3506073 L86.4972544,46.3965338 L86.4966369,46.3995441 C86.3672709,47.0532436 86.2497918,47.7091816 86.1441995,48.3671264 C86.0567463,48.9136899 85.9778608,49.4614884 85.9054591,50.0102903 L85.9054591,50.0102903 Z M75.7410452,33.1981946 L75.7410452,30.8825746 L78.5244204,30.8825746 L78.5244204,33.1981946 L75.7410452,33.1981946 L75.7410452,33.1981946 Z M88.4649139,33.0153378 C88.6680709,32.5841693 88.8767083,32.1556253 89.0903628,31.7293968 L89.1795142,31.5532553 L90.2125123,30.9183123 L92.4507134,30.9183123 C92.3924369,30.7517421 92.3147093,30.5920415 92.2193057,30.4433787 C92.031509,30.1506843 91.7769451,29.9017552 91.4796967,29.7211368 C91.2093867,29.5568822 90.9053458,29.4502093 90.5915021,29.4103034 C90.2863806,29.3714782 89.9732315,29.3940941 89.6772953,29.4782283 C89.3939406,29.5588118 89.1274899,29.6954334 88.8959279,29.8774412 C88.6801894,30.0469445 88.4951713,30.2552731 88.3526835,30.4897683 C88.2278716,30.6950866 88.1359415,30.9200876 88.0819103,31.1541968 C87.9670556,31.6512061 88.0230936,32.1826408 88.2422284,32.643372 C88.3043642,32.7742046 88.3791588,32.8987849 88.4649139,33.0153378 L88.4649139,33.0153378 Z M144.399872,30.9183123 L148.885537,30.9183123 L149.676244,27.9549363 L145.445915,26.9545112 L144.399872,30.9183123 L144.399872,30.9183123 Z M146.037016,24.7147664 L150.27352,25.7167352 L150.824328,23.6525915 L151.120651,23.1360539 L152.081633,22.1664266 L148.616153,19.5960113 L146.941034,21.2891926 L146.037016,24.7147664 L146.037016,24.7147664 Z M89.1318124,21.0624934 L89.1318124,17.8260285 L91.4474324,17.8260285 L91.4474324,21.0624934 L89.1318124,21.0624934 L89.1318124,21.0624934 Z M150.261247,17.9331646 L153.728425,20.5048149 L169.420686,4.67145456 L165.576526,2.45201 L150.261247,17.9331646 L150.261247,17.9331646 Z"></path>
                    </g>
                </g>
            </g>
        </g>
    </g>
</svg>