<?xml version="1.0" encoding="UTF-8" standalone="no"?>
<svg width="28px" height="28px" viewBox="0 0 28 28" version="1.1" xmlns="http://www.w3.org/2000/svg" xmlns:xlink="http://www.w3.org/1999/xlink" xmlns:sketch="http://www.bohemiancoding.com/sketch/ns">
    <!-- Generator: Sketch 3.3.2 (12043) - http://www.bohemiancoding.com/sketch -->
    <title>Shape</title>
    <desc>Created with Sketch.</desc>
    <defs></defs>
    <g stroke="none" stroke-width="1" fill="rgb(0,0,0)" fill-rule="evenodd" sketch:type="MSPage">
        <g sketch:type="MSArtboardGroup" transform="translate(-987.000000, -3697.000000)" fill="rgb(0,0,0)">
            <g sketch:type="MSLayerGroup" transform="translate(100.000000, 3320.000000)">
                <g sketch:type="MSShapeGroup">
                    <g>
                        <g transform="translate(663.000000, 377.000000)">
                            <path d="M245.780204,11.3232678 C245.776608,11.3042308 245.773436,11.2851939 245.768359,11.26658 C245.765186,11.2553693 245.761379,11.2447932 245.757783,11.2337941 C245.752494,11.2172954 245.746995,11.2007967 245.740437,11.184721 C245.735784,11.1735104 245.730496,11.1627228 245.725419,11.1519352 C245.718227,11.1367056 245.710824,11.1216875 245.702362,11.1070925 C245.69644,11.0963049 245.689671,11.0861519 245.683113,11.0757873 C245.674018,11.0618269 245.664711,11.048078 245.654557,11.0347521 C245.647154,11.0248106 245.639539,11.0152921 245.631501,11.0057736 C245.620925,10.9930823 245.609502,10.9810255 245.59808,10.9691803 C245.589196,10.9602964 245.580311,10.9514125 245.571004,10.9427401 C245.558736,10.9315295 245.546044,10.9209534 245.532718,10.9108003 C245.522564,10.902974 245.512623,10.8949362 245.502046,10.8877444 C245.498239,10.8849947 245.494854,10.8818218 245.490835,10.8792836 L238.312453,6.09339177 C238.085907,5.9421537 237.790404,5.9421537 237.563858,6.09339177 L230.385053,10.879072 C230.381034,10.8816103 230.377861,10.8847831 230.373842,10.8875329 C230.363265,10.8949362 230.353324,10.9027625 230.34317,10.9105888 C230.330056,10.9209534 230.317152,10.9315295 230.304884,10.9423171 C230.295577,10.9507779 230.286693,10.9596619 230.27802,10.9687573 C230.266174,10.9806025 230.255175,10.9926592 230.244387,11.0053506 C230.236349,11.014869 230.228734,11.0243875 230.221331,11.0349636 C230.211177,11.0482895 230.20187,11.0618269 230.192775,11.0759988 C230.186217,11.0863634 230.17966,11.0965164 230.173526,11.1073041 C230.165064,11.1218991 230.157661,11.1369171 230.150681,11.1517236 C230.145604,11.1625112 230.140104,11.1735104 230.135662,11.1845095 C230.129105,11.2005852 230.123394,11.2170839 230.118105,11.2335826 C230.11451,11.2445817 230.110702,11.2553693 230.107741,11.2653108 C230.102876,11.2839247 230.09928,11.3027502 230.095895,11.3219987 C230.093991,11.3317287 230.091665,11.3412471 230.090395,11.3511887 C230.086588,11.3803787 230.084473,11.4095687 230.084473,11.4393932 L230.084473,16.2261312 C230.084473,16.2557442 230.086588,16.2853572 230.090818,16.3143357 C230.092299,16.3249118 230.095049,16.3333727 230.097164,16.3435257 C230.100549,16.3625627 230.10351,16.3815996 230.109856,16.4006366 C230.112817,16.4112127 230.116202,16.4217888 230.120432,16.4334225 C230.12572,16.4503442 230.131009,16.4672659 230.137354,16.4827071 C230.141796,16.4932832 230.147931,16.5038593 230.152161,16.5144354 C230.159142,16.5292418 230.166968,16.5440484 230.175429,16.5594895 C230.181352,16.5700655 230.188121,16.5806416 230.194467,16.5903716 C230.203562,16.6051782 230.213504,16.6178695 230.224081,16.6305608 C230.231484,16.6411369 230.238887,16.6495978 230.247349,16.6597508 C230.258136,16.6724421 230.268501,16.6851334 230.281193,16.6963441 C230.289865,16.704805 230.298115,16.715381 230.308691,16.7217267 C230.32096,16.7323028 230.334075,16.7428789 230.346766,16.753878 C230.35692,16.7623388 230.367919,16.7686845 230.37638,16.7769339 C230.380399,16.7790491 230.382726,16.7832795 230.386956,16.7851832 L237.563858,21.5734017 C237.677237,21.6495496 237.807115,21.6876235 237.938261,21.6869889 C238.069408,21.6863544 238.199286,21.648915 238.312664,21.5734017 L245.49147,16.7877215 C245.495489,16.7851832 245.498873,16.7822219 245.502681,16.7794721 C245.513257,16.7720688 245.523199,16.7642425 245.533352,16.7564163 C245.546467,16.7460517 245.55937,16.7352641 245.571639,16.7242649 C245.580946,16.7160156 245.58983,16.7069202 245.598714,16.6980362 C245.610348,16.686191 245.621559,16.6741343 245.632135,16.6614429 C245.640174,16.6519245 245.647789,16.642406 245.655192,16.632253 C245.665345,16.6189271 245.674652,16.6051782 245.683748,16.5912177 C245.690305,16.5810647 245.696863,16.5707001 245.702997,16.5603356 C245.711458,16.545529 245.718862,16.530511 245.726054,16.5152814 C245.73113,16.5044938 245.736418,16.4937062 245.741072,16.4827071 C245.747629,16.4664199 245.753129,16.4499212 245.758417,16.4334225 C245.762013,16.4224233 245.765821,16.4116358 245.768994,16.4006366 C245.773859,16.3820227 245.777243,16.3629857 245.780839,16.3439488 C245.782531,16.3342188 245.78507,16.3247003 245.786127,16.3147588 C245.789935,16.2855687 245.79205,16.2563788 245.79205,16.2265542 L245.79205,11.4406624 C245.79205,11.4108378 245.789723,11.3816478 245.786127,11.3524578 C245.784435,11.3420932 245.781262,11.3336324 245.779147,11.3232678 L245.780204,11.3232678 L245.780204,11.3232678 Z M237.93805,15.4301747 L235.550967,13.8336083 L237.93805,12.2368303 L240.325344,13.8336083 L237.93805,15.4301747 L237.93805,15.4301747 Z M237.263278,11.0643651 L234.337013,13.0215762 L231.97489,11.4415085 L237.263278,7.91607495 L237.263278,11.0643651 L237.263278,11.0643651 Z M233.123059,13.8333967 L231.43465,14.9627116 L231.43465,12.704082 L233.123059,13.8333967 L233.123059,13.8333967 Z M234.337013,14.6460634 L237.263278,16.603063 L237.263278,19.7513531 L231.97489,16.2254965 L234.337013,14.6456404 L234.337013,14.6460634 L234.337013,14.6460634 Z M238.613033,16.6026399 L241.539298,14.6456404 L243.901633,16.2254965 L238.613033,19.7509301 L238.613033,16.6026399 L238.613033,16.6026399 Z M242.753252,13.8338198 L244.441873,12.7042935 L244.441873,14.9631346 L242.753252,13.8333967 L242.753252,13.8338198 L242.753252,13.8338198 Z M241.539298,13.0215762 L238.613033,11.0645767 L238.613033,7.91607495 L243.901633,11.4415085 L241.539298,13.0215762 L241.539298,13.0215762 Z M224,13.9430345 C224,21.6468966 230.244,27.888 237.945931,27.888 C245.644966,27.888 251.888966,21.6468966 251.888966,13.9430345 C251.888966,6.24303448 245.644966,-1.26121336e-13 237.945931,-1.26121336e-13 C230.244,-1.26121336e-13 224,6.24303448 224,13.9430345 Z"></path>
                        </g>
                    </g>
                </g>
            </g>
        </g>
    </g>
</svg>