<?xml version="1.0" encoding="UTF-8" standalone="no"?>
<svg width="268px" height="214px" viewBox="0 0 268 214" version="1.1" xmlns="http://www.w3.org/2000/svg" xmlns:xlink="http://www.w3.org/1999/xlink" xmlns:sketch="http://www.bohemiancoding.com/sketch/ns">
    <!-- Generator: Sketch 3.3.3 (12081) - http://www.bohemiancoding.com/sketch -->
    <title>icon (e-comerce)</title>
    <desc>Created with Sketch.</desc>
    <defs></defs>
    <g id="02-›-Pages-(Desktop)" stroke-width="1" fill="transparent" fill-rule="evenodd" sketch:type="MSPage">
        <g id="//-What-We-Do" sketch:type="MSArtboardGroup" transform="translate(-285.000000, -4853.000000)" stroke-width="8" stroke-linecap="round" stroke-linejoin="round">
            <g id="::-02-offerings" sketch:type="MSLayerGroup" transform="translate(100.000000, 3178.000000)">
                <g id="::-offering-04" transform="translate(0.000000, 1440.000000)" sketch:type="MSShapeGroup">
                    <path d="M208.753388,256.66335 L197.865712,256.66335 C192.969296,256.66335 189,252.70969 189,247.832399 L189,247.830951 C189,242.95366 192.969296,239 197.865712,239 L212.258906,239 C216.527891,239 220.159055,242.100967 220.81112,246.303631 C224.685364,271.272059 237.424593,353.373122 242.15961,383.888401 C243.19203,390.54274 248.933887,395.456947 255.693193,395.472871 C296.618266,395.566972 430.508616,395.876055 430.508616,395.876055 C439.52272,401.524244 454.60555,281.670142 445.894333,276.211601 C378.19946,266.132735 311.20556,265.105594 245.084278,275.347326 C242.34659,277.116412 259.239987,380.555803 268.292606,426.825643 C270.303669,437.104291 278.9037,444.74234 289.396198,444.080742 C289.396562,444.080742 289.396998,444.080742 289.397434,444.080019 C299.329648,443.45389 307.06331,435.246896 307.06331,425.333791 L307.06331,414.138751 C329.523066,410.276296 351.983912,408.363165 374.448755,414.138751 L374.448755,424.168395 C374.448755,433.479982 382.026977,441.028273 391.375144,441.028273 C400.723457,441.028273 408.301606,433.479982 408.301606,424.168395 L408.301606,412.363875 C408.301606,412.363875 423.960343,410.530367 429.280861,411.118856" id="icon-(e-comerce)"></path>
                </g>
            </g>
        </g>
    </g>
</svg>