<?xml version="1.0" encoding="UTF-8" standalone="no"?>
<svg width="107px" height="96px" viewBox="0 0 107 96" version="1.1" xmlns="http://www.w3.org/2000/svg" xmlns:xlink="http://www.w3.org/1999/xlink" xmlns:sketch="http://www.bohemiancoding.com/sketch/ns">
    <!-- Generator: Sketch 3.3.2 (12043) - http://www.bohemiancoding.com/sketch -->
    <title>icon (commerce)</title>
    <desc>Created with Sketch.</desc>
    <defs>
        <path d="M33.1373048,81.1574071 C33.0418785,81.187814 32.9471773,81.2208313 32.8534429,81.2565074 C32.2024749,81.5040647 31.5998484,81.8752799 31.084672,82.3437584 C30.5871885,82.7961392 30.1719825,83.3374684 29.8654,83.9359858 C29.6160057,84.4227858 29.4394621,84.9465671 29.3434074,85.4849959 C29.2350738,86.0921664 29.2273392,86.7177068 29.3204934,87.3273911 C29.4000154,87.8474501 29.553645,88.3558104 29.7763064,88.832507 C30.2993143,89.9524369 31.1966311,90.8829645 32.2966927,91.4465792 C32.7629475,91.6854834 33.2628963,91.8575312 33.7774444,91.9561481 C34.0317212,92.0048764 34.2885118,92.0339781 34.5468977,92.0487223 C34.6431942,92.0529763 34.7392973,92.0554417 34.8356904,92.0560218 C35.0977019,92.0543782 35.3588433,92.0380871 35.6184377,92.0017826 C36.1403337,91.9287867 36.6512561,91.7810065 37.1313849,91.5639043 C37.7649016,91.2774803 38.3431639,90.8713625 38.8287553,90.373879 C39.2991191,89.8920099 39.6818396,89.3259781 39.9518758,88.7089942 C40.172942,88.2038244 40.3171933,87.6659274 40.3799407,87.1181203 C40.4525498,86.4835884 40.4173571,85.8360043 40.2735892,85.2136061 C40.1509949,84.682767 39.9494587,84.1710227 39.6779723,83.6986769 C39.0846758,82.666487 38.1601909,81.83651 37.069411,81.3591366 C36.9798823,81.3199799 36.8893385,81.2832403 36.7979245,81.2489661 L36.7979245,89.3007921 L33.1373048,89.3007921 L33.1373048,81.1574071 L33.1373048,81.1574071 Z M82.9001042,81.2010596 C82.8489588,81.2188009 82.7981034,81.2372674 82.7475381,81.2565074 C82.0963767,81.5041131 81.4939436,81.8754733 80.9785254,82.3440001 C80.4812837,82.7959941 80.0659326,83.3374201 79.7596886,83.9355991 C79.4997074,84.443476 79.3188615,84.9910414 79.2256589,85.553931 C79.1248666,86.1625035 79.1248666,86.7881405 79.2256589,87.396713 C79.3114652,87.9149833 79.4714759,88.4205882 79.6994549,88.8938041 C80.2259917,89.9866628 81.1112231,90.8935029 82.1907879,91.4465792 C82.6570426,91.6854834 83.1570399,91.8575312 83.6715396,91.9561481 C83.9258164,92.0048764 84.182607,92.0339781 84.4409445,92.0487223 C84.5372893,92.0529763 84.6334408,92.0554417 84.729834,92.0560218 C84.9918455,92.0543782 85.2529868,92.0380871 85.5125812,92.0017826 C86.0344288,91.9287867 86.5453996,91.7810065 87.0255284,91.5639043 C88.0693203,91.0919452 88.9553736,90.295614 89.5384217,89.3097836 C89.8269244,88.8218718 90.0401592,88.2898241 90.1675877,87.7374729 C90.3165282,87.0918225 90.3491104,86.4195358 90.2655761,85.7622833 C90.1961576,85.2161199 90.0450417,84.681075 89.8182713,84.1793858 C89.5411772,83.5663176 89.1517372,83.0049749 88.6760075,82.5293418 C88.1840833,82.0375144 87.6010836,81.6380677 86.9636995,81.3592333 C86.8314369,81.3013684 86.6969505,81.2488211 86.5607239,81.2016397 L86.5607239,89.3007921 L82.9001042,89.3007921 L82.9001042,81.2010596 L82.9001042,81.2010596 Z M18.95528,28.791799 L22.9817489,67.1462698 C44.5423946,67.1462698 66.1033786,67.2679456 87.6636376,67.1456897 C87.7610943,67.1440461 87.8584059,67.1412906 87.9557659,67.1374233 C88.8091403,67.0939642 89.651106,66.9326966 90.4554619,66.6423086 C91.5847218,66.2346438 92.6232445,65.5850293 93.4859971,64.7503632 C94.1509842,64.1069848 94.7100066,63.3554662 95.1338174,62.5328855 C95.4079626,62.0008378 95.6250165,61.4396401 95.7811115,60.8618612 C95.8574429,60.5791595 95.9172898,60.2929772 95.9661632,60.0043295 L101.074034,28.791799 L18.95528,28.791799 L18.95528,28.791799 Z M18.4910555,24.3697991 L18.5900108,25.1311794 L101.673083,25.1311794 L102.279577,21.4252636 L18.181911,21.4252636 L18.4910555,24.3697991 L18.4910555,24.3697991 Z M42.2025159,80.8955406 C42.551784,81.3560911 42.8581731,81.8492238 43.1155438,82.3671558 C43.5379527,83.2172429 43.8275673,84.1323011 43.9707551,85.07066 C44.1183904,86.0382172 44.112396,87.0290751 43.952482,87.9946986 C43.8037832,88.892934 43.5206948,89.7681587 43.1155438,90.5834882 C42.6866087,91.4466759 42.121592,92.2412669 41.4482902,92.9309565 C40.6971583,93.7004582 39.8118302,94.3377939 38.8429677,94.8045321 C38.0215955,95.2001598 37.1419717,95.4726131 36.2406908,95.6103383 C35.853813,95.6694601 35.4644697,95.7013172 35.0734344,95.7136927 C34.954224,95.7159647 34.9546591,95.7159647 34.8356904,95.7166899 C34.4427215,95.7142244 34.0509612,95.6921323 33.6609894,95.6425338 C32.7539076,95.5271908 31.8649055,95.2762011 31.0317379,94.8993783 C30.1858082,94.5167062 29.3988068,94.0056871 28.704428,93.3894283 C27.8456878,92.6272262 27.1307638,91.7055936 26.6073209,90.6836037 C26.2104363,89.9087845 25.9246408,89.0777923 25.7607627,88.2228227 C25.5765812,87.2617916 25.5462227,86.2712721 25.6695904,85.300621 C25.7896227,84.3563644 26.05671,83.4316862 26.4594439,82.5692237 C26.7565031,81.9329998 27.1266064,81.3316786 27.5592638,80.7792307 C27.0485831,80.6975818 26.5447669,80.5731505 26.0548247,80.4072421 C24.9642381,80.0379606 23.9453421,79.4633239 23.0640263,78.7224888 C21.9961119,77.8248336 21.1353413,76.6870172 20.5652971,75.413506 C20.3021738,74.8256237 20.100831,74.2102834 19.9655228,73.5805374 C19.8966844,73.2601776 19.8466508,72.9368206 19.8101046,72.6112399 L19.0108728,65.0911232 L19.0844487,65.0833402 L15.2745502,28.791799 L15.2730999,28.791799 L15.2730999,28.77807 L14.8551384,24.7968972 L12.6203061,7.60343205 L11.0553433,7.60343205 C11.0013457,7.75831855 10.9404353,7.91088466 10.8728537,8.06045358 C10.375757,9.15988669 9.51803192,10.0817128 8.45790054,10.657703 C7.93769653,10.940308 7.37243815,11.1386536 6.78963176,11.2427814 C6.55865558,11.2840168 6.32651919,11.3075108 6.09254583,11.3223033 C5.94993809,11.3277659 5.95051819,11.3277176 5.80815217,11.3295062 C5.57200343,11.3265574 5.33730494,11.3147621 5.10284816,11.2849836 C4.55707144,11.2156134 4.02217159,11.0644492 3.52082081,10.8377754 C2.91094312,10.5620349 2.35240422,10.1751571 1.87918826,9.70184442 C1.40602063,9.22862846 1.01919111,8.67028292 0.743450598,8.06045358 C0.516825156,7.5591028 0.3657093,7.02429963 0.296290756,6.47852291 C0.225083573,5.91838874 0.23915098,5.34742605 0.338492977,4.79154594 C0.434741112,4.25297212 0.611332993,3.72928752 0.860727331,3.24239088 C1.431545,2.12811689 2.38000728,1.22417723 3.52082081,0.708420652 C4.19417101,0.404013568 4.9269814,0.237186691 5.66559277,0.21847849 C6.40889329,0.199673606 7.15407912,0.330002571 7.84584748,0.602794246 C8.47003428,0.848998038 9.04805485,1.2093847 9.54452312,1.66070192 C10.0387193,2.10994045 10.4510732,2.64793417 10.755577,3.24239088 C10.8714518,3.46862959 10.971664,3.70284466 11.0553433,3.94281239 L14.2280995,3.94281239 L16.0431334,5.53716685 L17.6325086,17.764644 L104.433727,17.764644 L106.240011,19.8905627 C104.011801,33.5062173 101.857071,47.1341507 99.5547055,60.7374783 C99.4890576,61.1003303 99.4112759,61.4603786 99.3151245,61.8164629 C99.0916413,62.6439261 98.7805147,63.4475086 98.3879809,64.209469 C97.7014334,65.5420053 96.7669418,66.7436326 95.6458033,67.7385511 C94.4267248,68.8203396 92.9914142,69.6536038 91.4465615,70.1733244 C90.6352444,70.4462128 89.7951156,70.632763 88.9445934,70.7291562 C88.532723,70.7758542 88.1195473,70.7990581 87.7052114,70.806116 C66.2316289,70.9278402 44.7573213,70.8139957 23.2833522,70.8072279 C23.3411687,71.3227911 23.401499,71.8380642 23.4655033,72.3529507 C23.5446385,72.935322 23.7073564,73.5026107 23.9599896,74.0338366 C24.3043752,74.7578971 24.8058227,75.4044178 25.419471,75.920271 C25.9527272,76.3685427 26.569131,76.7165056 27.2289939,76.9399888 C27.8109785,77.1370776 28.4194543,77.231247 29.0331993,77.234921 L34.7005273,77.234921 L34.7166251,77.2346793 C34.8007394,77.2336157 34.8848538,77.2337124 34.9689682,77.234921 L84.5946225,77.234921 L84.6107686,77.2346793 C84.694883,77.2336157 84.7789974,77.2337124 84.8631118,77.234921 L96.0879357,77.234921 L96.0879357,80.8955406 L92.0966111,80.8955406 C92.4458792,81.3560911 92.7522199,81.8492238 93.0095906,82.3671558 C93.4319996,83.2171462 93.7214207,84.1319627 93.8648019,85.0702249 C94.0184799,86.075972 94.0057177,87.1070984 93.8269988,88.1086398 C93.6541292,89.0773089 93.3243428,90.0168279 92.8547525,90.8814175 C91.9329264,92.5785946 90.477264,93.9659986 88.7372563,94.8044354 C87.9159324,95.2002081 87.0361636,95.4726131 86.1348827,95.6103383 C85.7480048,95.6694601 85.3586132,95.7013172 84.9675296,95.7136927 C84.8483192,95.7159647 84.8488026,95.7159647 84.729834,95.7166899 C84.3368651,95.7142244 83.9450563,95.6921323 83.5550846,95.6425338 C82.6480028,95.5271908 81.7590006,95.2762011 80.9258814,94.8993783 C80.0125152,94.486251 79.1680357,93.923458 78.4345002,93.2402945 C77.6757303,92.5336852 77.0367027,91.6998892 76.5529482,90.7827523 C76.1293307,89.9797499 75.8257938,89.1144352 75.6549062,88.2228227 C75.4706764,87.2617916 75.4403179,86.2712721 75.563734,85.300621 C75.6837662,84.3564611 75.9508535,83.432073 76.3533941,82.5696104 C76.6296664,81.9776191 76.9693145,81.4158413 77.3637336,80.8955406 L42.2025159,80.8955406 L42.2025159,80.8955406 Z" id="path-2"></path>
    </defs>
    <g stroke="none" stroke-width="1" fill="rgb(0,0,0)" fill-rule="evenodd" sketch:type="MSPage">
        <g sketch:type="MSArtboardGroup" transform="translate(-557.000000, -5141.000000)">
            <g sketch:type="MSLayerGroup" transform="translate(140.000000, 5005.000000)">
                <g transform="translate(360.000000, 99.000000)">
                    <g transform="translate(57.000000, 37.000000)">
                        <g>
                            <mask id="mask-3" sketch:name="icon (commerce)" fill="white">
                                <use xlink:href="#path-2"></use>
                            </mask>
                            <use fill="rgb(0,0,0)" sketch:type="MSShapeGroup" xlink:href="#path-2"></use>
                        </g>
                    </g>
                </g>
            </g>
        </g>
    </g>
</svg>