<?xml version="1.0" encoding="UTF-8" standalone="no"?>
<svg width="78px" height="95px" viewBox="0 0 78 95" version="1.1" xmlns="http://www.w3.org/2000/svg" xmlns:xlink="http://www.w3.org/1999/xlink" xmlns:sketch="http://www.bohemiancoding.com/sketch/ns">
    <!-- Generator: Sketch 3.3.2 (12043) - http://www.bohemiancoding.com/sketch -->
    <title>Imported Layers</title>
    <desc>Created with Sketch.</desc>
    <g stroke="none" stroke-width="1" fill="rgb(0,0,0)" fill-rule="evenodd" sketch:type="MSPage">
        <g sketch:type="MSArtboardGroup" transform="translate(-283.000000, -3107.000000)" fill="rgb(0,0,0)">
            <g sketch:type="MSLayerGroup" transform="translate(100.000000, 2808.000000)">
                <g transform="translate(100.000000, 296.000000)" sketch:type="MSShapeGroup">
                    <g transform="translate(0.000000, 3.000000)">
                        <path d="M84.15781,94.9404423 L83,93.7826092 L83,1.15780999 L84.15781,0 L159.029523,0 L160.187333,1.15780999 L160.187333,93.7826092 L159.029523,94.9404423 L84.15781,94.9404423 L84.15781,94.9404423 Z M85.31562,92.6247992 L157.871713,92.6247992 L157.871713,2.31561998 L85.31562,2.31561998 L85.31562,92.6247992 L85.31562,92.6247992 Z M149.447487,83.199454 L149.447487,80.883834 L151.870861,80.883834 L151.870861,83.199454 L149.447487,83.199454 L149.447487,83.199454 Z M137.869387,83.199454 L137.869387,80.883834 L142.500627,80.883834 L142.500627,83.199454 L137.869387,83.199454 L137.869387,83.199454 Z M126.291287,83.199454 L126.291287,80.883834 L130.922527,80.883834 L130.922527,83.199454 L126.291287,83.199454 L126.291287,83.199454 Z M114.713187,83.199454 L114.713187,80.883834 L119.344427,80.883834 L119.344427,83.199454 L114.713187,83.199454 L114.713187,83.199454 Z M103.135088,83.199454 L103.135088,80.883834 L107.766328,80.883834 L107.766328,83.199454 L103.135088,83.199454 L103.135088,83.199454 Z M96.2352347,80.8239366 L94.2306025,82.9732951 L92.5371896,81.3938879 L94.6519682,79.12651 L92.5371896,76.8591321 L94.2306025,75.2797249 L96.2352347,77.4290062 L98.239867,75.2797249 L99.9332798,76.8591321 L97.8185013,79.12651 L99.9332798,81.3938879 C99.3688089,81.9203055 98.8043379,82.4468003 98.239867,82.9732951 L96.2352347,80.8239366 L96.2352347,80.8239366 Z M93.1859492,52.7085279 L93.1859492,50.3929079 L150.472458,50.3929079 L150.472458,52.7085279 L93.1859492,52.7085279 L93.1859492,52.7085279 Z M93.1859492,42.7136946 L93.1859492,40.3980746 L150.472458,40.3980746 L150.472458,42.7136946 L93.1859492,42.7136946 L93.1859492,42.7136946 Z M93.1859492,33.2314623 L93.1859492,30.9158423 L150.472458,30.9158423 L150.472458,33.2314623 L93.1859492,33.2314623 L93.1859492,33.2314623 Z M111.106455,23.4928909 L111.106455,21.177271 L150.692364,21.177271 L150.692364,23.4928909 L111.106455,23.4928909 L111.106455,23.4928909 Z M94.6173882,23.4867931 L93.4595783,22.3289831 L93.4595783,9.4082096 L94.6173882,8.25039961 L106.668569,8.25039961 L107.826379,9.4082096 L107.826379,22.3289831 L106.668569,23.4867931 L94.6173882,23.4867931 L94.6173882,23.4867931 Z M95.7751982,21.1711732 L105.510759,21.1711732 L105.510759,10.5660196 L95.7751982,10.5660196 L95.7751982,21.1711732 L95.7751982,21.1711732 Z"></path>
                    </g>
                </g>
            </g>
        </g>
    </g>
</svg>