<?xml version="1.0" encoding="UTF-8" standalone="no"?>
<svg width="30px" height="30px" viewBox="0 0 30 30" version="1.1" xmlns="http://www.w3.org/2000/svg" xmlns:xlink="http://www.w3.org/1999/xlink" xmlns:sketch="http://www.bohemiancoding.com/sketch/ns">
    <!-- Generator: Sketch 3.3.2 (12043) - http://www.bohemiancoding.com/sketch -->
    <title>Imported Layers</title>
    <desc>Created with Sketch.</desc>
    <defs></defs>
    <g stroke="none" stroke-width="1" fill="rgb(0,0,0)" fill-rule="evenodd" sketch:type="MSPage">
        <g sketch:type="MSArtboardGroup" transform="translate(-908.000000, -2595.000000)" fill="rgb(0,0,0)">
            <g sketch:type="MSLayerGroup" transform="translate(773.000000, 2594.000000)">
                <g transform="translate(135.000000, 1.000000)" sketch:type="MSShapeGroup">
                    <path d="M30,15 C30,23.2838062 23.28375,30 15,30 C6.71625,30 0,23.2838062 0,15 C0,6.71625 6.71625,0 15,0 C23.28375,0 30,6.71625 30,15 L30,15 Z M15,6.17534062 C10.1259375,6.17534062 6.174375,10.1259562 6.174375,15 C6.174375,19.8740906 10.1259375,23.8247062 15,23.8247062 C19.873125,23.8247062 23.82375,19.8740906 23.82375,15 C23.82375,10.1259562 19.873125,6.17534062 15,6.17534062 L15,6.17534062 Z M15,22.4541094 C13.23375,22.4541094 11.6109375,21.8391 10.333125,20.8115906 C10.6659375,20.3062781 11.6296875,18.976875 13.23,17.8087781 C14.17875,17.1150375 15.1790625,16.5994219 16.2253125,16.2609656 C16.8609375,17.9259656 17.435625,19.8122344 17.8425,21.8925469 C16.966875,22.2534375 16.0078125,22.4541094 15,22.4541094 L15,22.4541094 Z M19.201875,21.1575469 C18.7959375,19.2244125 18.2559375,17.4637969 17.671875,15.9112875 C19.155,15.6684469 20.7215625,15.7565625 22.3603125,16.1775375 C22.033125,18.24285 20.8565625,20.0250375 19.201875,21.1575469 L19.201875,21.1575469 Z M7.5459375,15 C7.5459375,14.919375 7.546875,14.839725 7.5496875,14.7600187 C7.6359375,14.7619031 7.74,14.7628219 7.8590625,14.7628219 C9.129375,14.7628219 12.18,14.6578219 15.16125,13.7681531 C15.331875,14.1300187 15.5025,14.5059562 15.67125,14.8978594 C14.3315625,15.3422344 13.22625,15.9816187 12.358125,16.6144125 C10.78125,17.7656344 9.7565625,19.0546969 9.2615625,19.7587969 C8.1909375,18.4669312 7.5459375,16.8094219 7.5459375,15 L7.5459375,15 Z M22.445625,14.6765906 C20.4346875,14.2012594 18.6553125,14.2209375 17.116875,14.5190625 C16.9340625,14.0859562 16.75125,13.674375 16.5675,13.2834375 C18.21375,12.6309562 19.7446875,11.694375 20.8246875,10.3500375 C21.781875,11.5462875 22.3771875,13.0434562 22.445625,14.6765906 L22.445625,14.6765906 Z M11.8321875,8.25095625 C12.20625,8.72250937 13.295625,10.1709375 14.48625,12.4209562 C11.68875,13.2028219 8.80875,13.2825281 7.7446875,13.2816094 C8.2725,11.0503594 9.8015625,9.20534062 11.8321875,8.25095625 L11.8321875,8.25095625 Z M15,7.54594687 C16.820625,7.54594687 18.4884375,8.19940312 19.7821875,9.2831625 C18.8578125,10.5093937 17.4525,11.3615812 15.913125,11.9522062 C15.7425,11.6241094 15.5765625,11.3166 15.4171875,11.0315906 C14.5565625,9.48938437 13.78125,8.37564375 13.305,7.7400375 C13.84875,7.61346562 14.416875,7.54594687 15,7.54594687 L15,7.54594687 Z"></path>
                </g>
            </g>
        </g>
    </g>
</svg>