<?xml version="1.0" encoding="UTF-8" standalone="no"?>
<svg width="30px" height="30px" viewBox="0 0 30 30" version="1.1" xmlns="http://www.w3.org/2000/svg" xmlns:xlink="http://www.w3.org/1999/xlink" xmlns:sketch="http://www.bohemiancoding.com/sketch/ns">
    <!-- Generator: Sketch 3.3.2 (12043) - http://www.bohemiancoding.com/sketch -->
    <title>Imported Layers</title>
    <desc>Created with Sketch.</desc>
    <defs></defs>
    <g stroke="none" stroke-width="1" fill="rgb(0,0,0)" fill-rule="evenodd" sketch:type="MSPage">
        <g sketch:type="MSArtboardGroup" transform="translate(-863.000000, -2595.000000)" fill="rgb(0,0,0)">
            <g sketch:type="MSLayerGroup" transform="translate(773.000000, 2594.000000)">
                <g transform="translate(90.000000, 0.000000)" sketch:type="MSShapeGroup">
                    <path d="M30,15.999997 C30,24.2846639 23.28375,31 15,31 C6.7153125,31 0,24.2846639 0,15.999997 C0,7.71625637 6.7153125,0.999997 15,0.999997 C23.28375,0.999997 30,7.71625637 30,15.999997 L30,15.999997 Z M10.4953125,13.6797126 L13.1634375,13.6797126 L13.1634375,11.207497 C13.1634375,11.207497 13.0509375,9.59125637 14.2771875,8.36501575 C15.5034375,7.13872825 17.154375,7.254997 19.5046875,7.45939075 L19.5046875,10.2193626 L17.7665625,10.2193626 C17.7665625,10.2193626 17.0371875,10.204372 16.6940625,10.5981032 C16.3509375,10.9928095 16.3875,11.555347 16.3875,11.6940501 L16.3875,13.6797126 L19.4015625,13.6797126 L19.0153125,16.7537657 L16.3725,16.7537657 L16.3725,24.6709598 L13.1746875,24.6709598 L13.1746875,16.7387751 L10.4953125,16.7387751 L10.4953125,13.6797126 L10.4953125,13.6797126 Z"></path>
                </g>
            </g>
        </g>
    </g>
</svg>