<?xml version="1.0" encoding="UTF-8" standalone="no"?>
<svg width="28px" height="28px" viewBox="0 0 28 28" version="1.1" xmlns="http://www.w3.org/2000/svg" xmlns:xlink="http://www.w3.org/1999/xlink" xmlns:sketch="http://www.bohemiancoding.com/sketch/ns">
    <!-- Generator: Sketch 3.3.2 (12043) - http://www.bohemiancoding.com/sketch -->
    <title>icon (github)</title>
    <desc>Created with Sketch.</desc>
    <defs></defs>
    <g stroke="none" stroke-width="1" fill="rgb(0,0,0)" fill-rule="evenodd" sketch:type="MSPage">
        <g sketch:type="MSArtboardGroup" transform="translate(-915.000000, -3697.000000)" fill="rgb(0,0,0)">
            <g sketch:type="MSLayerGroup" transform="translate(100.000000, 3320.000000)">
                <g sketch:type="MSShapeGroup">
                    <g>
                        <g transform="translate(663.000000, 377.000000)">
                            <g transform="translate(152.000000, 0.000000)">
                                <path d="M14,0 C6.26865672,0 0,6.26865672 0,14 C0,21.7313433 6.26865672,28 14,28 C21.0488213,28 26.8780862,22.7888129 27.8545125,16.0094853 C27.9482494,15.5466592 27.9921886,15.0701632 27.9843772,14.5790208 C27.9941414,14.3866648 28,14.1933324 28,14 C28,6.26865672 21.7313433,0 14,0 L14,0 Z M23.9605245,15.0350119 C23.9946994,15.0457525 24.0142279,15.0818803 24.0044637,15.1160552 C23.9946994,15.1433952 23.9702887,15.1619473 23.9439252,15.1619473 C23.9361138,15.1619473 23.9302553,15.1619473 23.9234203,15.1599944 C22.2244386,14.6405356 20.1241456,14.5692565 19.4250244,14.5448459 C18.8831078,15.7341331 17.8363789,16.2604268 16.1891477,16.5064863 L16.1891477,16.5074627 C15.9870275,16.5367555 15.775143,16.5640954 15.5564235,16.5865532 C16.2106291,16.9986051 16.3971265,17.5151346 16.3971265,18.9094713 C16.3971265,20.3047845 16.377598,20.4922583 16.3815037,20.8125262 C16.3893151,21.3388199 17.1616683,21.5926908 17.1333519,21.7616125 C17.1030827,21.9305342 16.4869577,21.9041707 16.198912,21.8035988 C15.3806668,21.5175059 15.4626866,20.8379132 15.4626866,20.8379132 L15.4363231,18.972939 C15.4363231,18.972939 15.4919794,17.9681964 15.1180081,17.9681964 L15.1180081,21.0234342 C15.1180081,21.6874041 15.5866927,21.8895243 15.5866927,22.1346073 C15.5866927,22.5573999 14.7342726,22.0945739 14.4745432,21.8299623 C14.0761612,21.430604 14.1220533,20.5811131 14.1288883,19.9112847 C14.1386525,19.2629376 14.1230297,17.8441903 14.1230297,17.8441903 L13.8545125,17.8500488 C13.8545125,17.8500488 13.9648487,20.9482494 13.7119542,21.5116474 C13.383875,22.2361557 12.3937788,22.4861208 12.3937788,22.1541359 C12.3937788,21.9324871 12.6359325,22.0047426 12.7716557,21.5057888 C12.8878505,21.0829962 12.847817,17.9262101 12.847817,17.9262101 C12.847817,17.9262101 12.5314549,18.1127075 12.5314549,18.7053982 C12.5314549,18.9748919 12.5236435,20.5215511 12.5236435,20.9814479 C12.5236435,21.5614451 11.7014925,21.8905008 11.3070163,21.8905008 C11.1068489,21.8905008 10.8568838,21.8807365 10.8568838,21.774306 C10.8568838,21.5067652 11.608732,21.3495606 11.608732,20.7929976 C11.608732,20.3096666 11.5989678,19.066676 11.5989678,19.066676 C11.5989678,19.066676 11.219138,19.1311201 10.6801506,19.1311201 C9.31705956,19.1311201 8.88352629,18.2621007 8.6794532,17.774864 C8.41288883,17.1421398 8.06528107,16.8433533 7.69912122,16.6051053 C7.47259032,16.4596178 7.42083973,16.2877668 7.68154554,16.2369926 C8.88840843,16.0114381 9.19793556,17.6059423 10.0025108,17.8607895 C10.5786023,18.0424048 11.3167806,17.9633143 11.6848933,17.7250663 C11.7327382,17.2368531 12.0852281,16.815037 12.3771795,16.5943646 C12.3596038,16.5924118 12.3410518,16.5904589 12.3215232,16.5885061 C10.3061794,16.384433 9.10615149,15.6735946 8.48221509,14.5409402 C6.33895941,14.5926908 5.12233226,14.8963593 4.22987864,15.1199609 C4.16738736,15.1365602 4.1019668,15.152183 4.04142837,15.1678058 C4.03556981,15.1687823 4.02971126,15.1697587 4.02580555,15.1697587 C3.99553634,15.1697587 3.97014925,15.1502302 3.96331427,15.1199609 C3.95355001,15.085786 3.97698424,15.0496583 4.01115916,15.0408704 C4.07072116,15.0252476 4.1351653,15.0106012 4.19960943,14.9949784 C5.08815734,14.7713768 6.29697308,14.4686846 8.41581811,14.4120519 C8.3562561,14.2948807 8.30352908,14.1747803 8.2556842,14.0488213 C7.43353327,14.0419863 4.89580137,14.1591575 4.02580555,14.3739713 C4.01994699,14.3769005 4.01408844,14.3769005 4.01018273,14.3769005 C3.97991352,14.3769005 3.95257358,14.3563956 3.9457386,14.3271028 C3.93792719,14.2919515 3.95940856,14.2568001 3.99358348,14.2470358 C4.85576789,14.0351513 7.33296136,13.9170038 8.20979216,13.9189566 C8.01353048,13.337983 7.92565211,12.6740131 7.92565211,11.9299763 C7.92565211,10.6108244 8.33575115,10.1147998 8.88840843,9.40982006 C8.46463942,7.90612359 9.03877807,6.87892314 9.03877807,6.87892314 C9.03877807,6.87892314 9.92537313,6.695355 11.6018971,7.8953829 C12.5119263,7.50774167 14.9334635,7.47259032 16.0817408,7.80945739 C16.7857442,7.34272562 18.072674,6.68461431 18.5911564,6.86915888 C18.7327382,7.09568978 19.0354303,7.75477751 18.7757009,9.20477054 C18.9514577,9.52308551 19.8683219,10.2007253 19.8702748,12.1145209 C19.8566048,12.8204771 19.7823964,13.4170735 19.6466732,13.9209095 C21.8319152,13.9033338 23.1178686,14.0839727 24.0044637,14.2460594 C24.0386386,14.2548473 24.0640257,14.2870693 24.0581671,14.3231971 C24.0503557,14.3534663 24.0239922,14.3769005 23.993723,14.3769005 C23.9898173,14.3769005 23.9839587,14.3769005 23.9820059,14.3749477 C23.0954108,14.2118845 21.8094574,14.0312456 19.6085926,14.052727 C19.5705119,14.1806389 19.5265727,14.3007393 19.4787279,14.4188869 C20.2286232,14.4432975 22.2859534,14.5233645 23.9605245,15.0350119 L23.9605245,15.0350119 Z"></path>
                            </g>
                        </g>
                    </g>
                </g>
            </g>
        </g>
    </g>
</svg>