<?xml version="1.0" encoding="UTF-8" standalone="no"?>
<svg width="30px" height="30px" viewBox="0 0 30 30" version="1.1" xmlns="http://www.w3.org/2000/svg" xmlns:xlink="http://www.w3.org/1999/xlink" xmlns:sketch="http://www.bohemiancoding.com/sketch/ns">
    <!-- Generator: Sketch 3.3.2 (12043) - http://www.bohemiancoding.com/sketch -->
    <title>Imported Layers</title>
    <desc>Created with Sketch.</desc>
    <defs></defs>
    <g stroke="none" stroke-width="1" fill="rgb(0,0,0)" fill-rule="evenodd" sketch:type="MSPage">
        <g sketch:type="MSArtboardGroup" transform="translate(-773.000000, -2595.000000)" fill="rgb(0,0,0)">
            <g sketch:type="MSLayerGroup" transform="translate(773.000000, 2594.000000)">
                <g transform="translate(0.000000, 1.000000)" sketch:type="MSShapeGroup">
                    <path d="M30,15 C30,23.2846875 23.28375,30 15,30 C6.71625,30 0,23.2846875 0,15 C0,6.71625 6.71625,0 15,0 C23.28375,0 30,6.71625 30,15 L30,15 Z M9.5971875,10.3715625 L13.9059375,10.3715625 L15.38625,15.6225 L16.76625,10.3715625 L21.275625,10.3715625 L21.275625,11.8528125 L20.6025,11.8528125 L20.3334375,12.121875 L20.3334375,17.8771875 C20.3334375,17.8771875 20.4684375,18.3140625 20.7375,18.3140625 L21.275625,18.3140625 L21.275625,19.6275 L17.135625,19.6275 L17.135625,18.3496875 L17.91,18.3496875 L17.91,12.3234375 L15.6890625,19.6275 L14.2078125,19.6275 L12.2896875,12.4584375 L12.2896875,18.3825 L13.063125,18.3825 L13.063125,19.6275 L9.5971875,19.6275 L9.5971875,18.3496875 L10.1353125,18.3496875 C10.1353125,18.3496875 10.640625,18.3140625 10.674375,17.9109375 L10.674375,12.0553125 C10.674375,12.0553125 10.5065625,11.6840625 10.00125,11.65125 L9.5971875,11.65125 L9.5971875,10.3715625 L9.5971875,10.3715625 Z"></path>
                </g>
            </g>
        </g>
    </g>
</svg>