<?xml version="1.0" encoding="UTF-8" standalone="no"?>
<svg width="75px" height="103px" viewBox="0 0 75 103" version="1.1" xmlns="http://www.w3.org/2000/svg" xmlns:xlink="http://www.w3.org/1999/xlink" xmlns:sketch="http://www.bohemiancoding.com/sketch/ns">
    <!-- Generator: Sketch 3.3.2 (12043) - http://www.bohemiancoding.com/sketch -->
    <title>Icon (mobile)</title>
    <desc>Created with Sketch.</desc>
    <defs>
        <path d="M17.8270591,102.246449 L3.68690074,102.246449 C3.57200447,102.243416 3.54676327,102.244804 3.42667482,102.232312 C3.19312951,102.207944 2.96287429,102.153349 2.74315766,102.070583 C1.96222286,101.776376 1.34733502,101.129204 1.07883245,100.340816 C1.00645037,100.128296 0.95915526,99.9072428 0.938078092,99.683722 C0.927076838,99.5672321 0.928413439,99.5453324 0.925791645,99.4336748 L0.925791645,3.00228658 C0.928413439,2.89068041 0.927076838,2.8686779 0.938078092,2.75223939 C0.95915526,2.52877 1.00645037,2.30771676 1.07878104,2.09524862 C1.34733502,1.30670548 1.96237708,0.659379359 2.74351752,0.365224336 C2.96313133,0.282509301 3.19328373,0.228017109 3.42667482,0.203701253 C3.5475858,0.19110636 3.57118194,0.192545776 3.68690074,0.18951272 L72.2015276,0.18951272 C72.317195,0.192545776 72.3408426,0.191054952 72.4616507,0.203701253 C72.6950418,0.228017109 72.9253484,0.282509301 73.1448594,0.365224336 C73.9257428,0.659327951 74.5405793,1.30624281 74.8094417,2.09458032 C74.8819266,2.30751113 74.9292217,2.52897563 74.9502989,2.7529591 C74.9610945,2.866673 74.9600663,2.89237686 74.9626367,3.00156688 L74.9626367,99.4343945 C74.9600663,99.5435845 74.9610945,99.569237 74.9502989,99.6830023 C74.9292217,99.9069857 74.8819266,100.128502 74.8094417,100.341484 C74.5405793,101.129667 73.9257428,101.776428 73.1453735,102.070583 C72.9253484,102.153349 72.6950418,102.207944 72.4616507,102.232312 C72.3413566,102.244804 72.3166809,102.243416 72.2015276,102.246449 L57.9903752,102.246449 L57.9903752,98.5794326 L71.2957234,98.5794326 L71.2957234,3.8564774 L4.59275632,3.8564774 L4.59275632,98.5794326 L17.8270591,98.5794326 L17.8270591,102.246449 L17.8270591,102.246449 Z M23.7492295,102.246449 C23.6366465,102.243621 23.6099145,102.244855 23.4927049,102.233237 C23.2618842,102.21036 23.0341479,102.159004 22.8161792,102.080916 C22.0239861,101.797248 21.3875584,101.160255 21.1037877,100.36837 C21.025648,100.150453 20.9742403,99.923025 20.9516209,99.6926155 C20.939283,99.5719616 20.9408252,99.5500105 20.9382549,99.4344973 L20.9382549,46.6554677 C20.9408252,46.5400573 20.939283,46.517952 20.9516209,46.3973495 C20.9742403,46.16694 21.025648,45.9395636 21.1037877,45.7216463 C21.3875584,44.9296074 22.0245002,44.2925628 22.8166933,44.0089464 C23.034662,43.9309095 23.2618842,43.879656 23.4921908,43.8568309 C23.6104286,43.84511 23.6356184,43.8463952 23.7492295,43.8435677 L52.1391475,43.8435677 C52.2527586,43.8463952 52.2774343,43.8450586 52.3961861,43.8568309 C52.6264928,43.879656 52.8537149,43.9308581 53.0716837,44.0088436 C53.8638768,44.2925114 54.5013326,44.9299673 54.7851033,45.7223146 C54.862729,45.9400263 54.9141367,46.1672485 54.9367561,46.3973495 C54.9485799,46.5166154 54.9475517,46.540263 54.9501221,46.6546966 L54.9501221,99.4353198 C54.9475517,99.5498048 54.9485799,99.5732982 54.9367561,99.6926155 C54.9141367,99.9227165 54.862729,100.149939 54.7851033,100.36765 C54.5013326,101.159895 53.8643909,101.797299 53.0721978,102.080967 C52.8537149,102.159056 52.6259787,102.21036 52.3956721,102.233237 C52.2779484,102.244855 52.2517304,102.243621 52.1391475,102.246449 L23.7492295,102.246449 L23.7492295,102.246449 Z M37.9444455,96.6121616 C37.801532,96.6085631 37.661703,96.6015716 37.5203318,96.5799804 C37.2463286,96.5381345 36.9790084,96.4552138 36.7291668,96.3349197 C36.2027517,96.0811198 35.7621874,95.6614271 35.4835576,95.1477611 C35.3519538,94.9057335 35.2568495,94.6443252 35.2013291,94.374486 C35.1447806,94.0966272 35.1303865,93.8102862 35.1591748,93.5281092 C35.187449,93.2507131 35.2573635,92.9778922 35.3658339,92.7212135 C35.4886983,92.4311711 35.6609142,92.1625143 35.8727141,91.929483 C36.1138163,91.6642706 36.4063263,91.4460448 36.7291668,91.2903821 C37.0638311,91.1289619 37.4303682,91.0353998 37.801532,91.0165846 C38.1768084,90.9975637 38.5546553,91.0544207 38.9067982,91.1836083 C39.2460892,91.307758 39.5601904,91.4981722 39.8269965,91.7409709 C40.229005,92.106377 40.5199727,92.5879646 40.6556891,93.1141741 C40.7261177,93.3880231 40.754392,93.6723592 40.7399978,93.9547933 C40.7261177,94.234657 40.6695692,94.5122587 40.5734368,94.7754149 C40.4644524,95.0723459 40.3045743,95.3502561 40.1035701,95.5941344 C39.8758339,95.870091 39.5951477,96.1016829 39.2805324,96.2726136 C39.038402,96.4042688 38.7767366,96.4999385 38.5068461,96.5552533 C38.3675311,96.5837331 38.2282162,96.597716 38.0868449,96.6085631 C38.0395498,96.6097454 37.9917406,96.6109278 37.9444455,96.6121616 L37.9444455,96.6121616 Z M37.9444455,94.6811331 C38.0760493,94.6777916 38.2030264,94.6517279 38.3222923,94.594254 C38.4220233,94.5462906 38.5119868,94.4792035 38.586528,94.3975167 C38.6615833,94.3144418 38.7207022,94.2169727 38.759258,94.1115869 C38.7942153,94.0160199 38.8127221,93.9143354 38.8127221,93.8125481 C38.8127221,93.7252578 38.799356,93.6380189 38.7731381,93.554687 C38.66621,93.2102552 38.3479962,92.9633953 37.987628,92.9450941 C37.8858407,92.9399019 37.7835393,92.9532165 37.6858646,92.9834443 C37.3414329,93.0907322 37.0951898,93.4092031 37.0766831,93.7696227 C37.0720564,93.8566045 37.0813098,93.9442033 37.102901,94.0285634 C37.1280908,94.1250043 37.169217,94.2171269 37.2252514,94.2996878 C37.2869407,94.3908337 37.3655945,94.4700016 37.4571003,94.531588 C37.5779084,94.6131721 37.7136248,94.6584109 37.8575665,94.676712 C37.9007489,94.6800021 37.9002349,94.6800021 37.9444455,94.6811331 L37.9444455,94.6811331 Z M24.6051681,85.8804898 L24.6051681,98.5794326 L51.2832088,98.5794326 L51.2832088,47.5105324 L24.6051681,47.5105324 L24.6051681,66.2086028 L24.4869304,66.2086028 L24.4869304,85.8804898 L24.6051681,85.8804898 L24.6051681,85.8804898 Z M38.3613622,53.6662481 L38.3613622,49.9992834 L44.6464711,49.9992834 L44.6464711,53.6662481 L38.3613622,53.6662481 L38.3613622,53.6662481 Z M32.6679563,53.6662481 L32.6679563,49.9992834 L36.5903659,49.9992834 L36.5903659,53.6662481 L32.6679563,53.6662481 L32.6679563,53.6662481 Z M35.5601551,9.58232161 L35.5601551,5.91535693 L40.3282219,5.91535693 L40.3282219,9.58232161 L35.5601551,9.58232161 L35.5601551,9.58232161 Z" id="path-2"></path>
    </defs>
    <g stroke="none" stroke-width="1" fill="rgb(0,0,0)" fill-rule="evenodd" sketch:type="MSPage">
        <g sketch:type="MSArtboardGroup" transform="translate(-1093.000000, -5138.000000)">
            <g sketch:type="MSLayerGroup" transform="translate(140.000000, 5005.000000)">
                <g transform="translate(880.000000, 99.000000)">
                    <g transform="translate(73.000000, 34.000000)">
                        <g>
                            <mask id="mask-3" sketch:name="Icon (mobile)" fill="white">
                                <use xlink:href="#path-2"></use>
                            </mask>
                            <use fill="rgb(0,0,0)" sketch:type="MSShapeGroup" xlink:href="#path-2"></use>
                        </g>
                    </g>
                </g>
            </g>
        </g>
    </g>
</svg>