<?xml version="1.0" encoding="UTF-8" standalone="no"?>
<svg width="192px" height="267px" viewBox="0 0 192 267" version="1.1" xmlns="http://www.w3.org/2000/svg" xmlns:xlink="http://www.w3.org/1999/xlink" xmlns:sketch="http://www.bohemiancoding.com/sketch/ns">
    <!-- Generator: Sketch 3.3.3 (12081) - http://www.bohemiancoding.com/sketch -->
    <title>responsive</title>
    <desc>Created with Sketch.</desc>
    <defs></defs>
    <g id="02-›-Pages-(Desktop)" fill="transparent" fill-rule="evenodd" sketch:type="MSPage">
        <g id="//-What-We-Do" sketch:type="MSArtboardGroup" transform="translate(-322.000000, -4825.000000)" stroke-linecap="round" stroke-linejoin="round">
            <g id="::-02-offerings" sketch:type="MSLayerGroup" transform="translate(100.000000, 3178.000000)">
                <g id="::-offering-04" transform="translate(0.000000, 1440.000000)" sketch:type="MSShapeGroup">
                    <path d="M248.688097,469.935043 L227.629027,469.935043 C226.784439,390.892503 225.809767,216.922347 226.032137,211 L406.162565,211 C409.513753,304.442999 408.362812,381.675306 409.23577,467.714566 C357.933237,470.164747 317.287543,471.073894 262.914223,467.714566 C260.897094,415.189601 262.693223,359.938003 262.897539,299.20493 C262.909548,295.066218 266.268231,291.717368 270.407185,291.717368 L379.250624,291.717368 C379.303496,291.717368 379.356207,291.72301 379.407629,291.735906 C383.594377,294.156266 381.378655,448.678105 379.343312,448.761121 C300.295936,451.96973 312.486799,425.294989 330.763462,425.294989 C344.753032,425.294989 342.722283,449.21247 281.348858,449.21247 C279.360423,409.119759 280.14166,367.735062 281.348858,323.0805 L362.227664,323.0805 C364.87918,358.895064 364.811397,391.481675 362.227664,421.081321" id="responsive"></path>
                </g>
            </g>
        </g>
    </g>
</svg>