<?xml version="1.0" encoding="UTF-8" standalone="no"?>
<svg width="99px" height="73px" viewBox="0 0 99 73" version="1.1" xmlns="http://www.w3.org/2000/svg" xmlns:xlink="http://www.w3.org/1999/xlink" xmlns:sketch="http://www.bohemiancoding.com/sketch/ns">
    <!-- Generator: Sketch 3.3.2 (12043) - http://www.bohemiancoding.com/sketch -->
    <title>Imported Layers</title>
    <desc>Created with Sketch.</desc>
    <g stroke="none" stroke-width="1" fill="rgb(0,0,0)" fill-rule="evenodd" sketch:type="MSPage">
        <g sketch:type="MSArtboardGroup" transform="translate(-846.000000, -3118.000000)" fill="rgb(0,0,0)">
            <g sketch:type="MSLayerGroup" transform="translate(100.000000, 2808.000000)">
                <g transform="translate(100.000000, 296.000000)" sketch:type="MSShapeGroup">
                    <g transform="translate(574.000000, 14.000000)">
                        <path d="M94.0444658,68.2473409 L105.962036,57.4202738 L94.1596293,47.8643276 L94.0444658,68.2473409 L94.0444658,68.2473409 Z M88.7083511,41.9121036 L91.7833401,58.6021662 L91.8647727,44.1775518 L92.737993,44.1824918 L140.082156,16.9292656 L88.7083511,41.9121036 L88.7083511,41.9121036 Z M108.516396,56.5089229 L118.836265,64.8645289 L165.128905,5.18320609 L94.9905509,45.5576614 L107.696126,55.8448031 L107.814995,55.7368952 L108.516396,56.5089229 L108.516396,56.5089229 Z M87.2925039,40.0257996 L152.034383,8.54201287 L75.9829387,34.5720514 C79.752768,36.3899675 83.5226745,38.2078835 87.2925039,40.0257996 L87.2925039,40.0257996 Z M107.782885,58.8945518 L92.810086,72.4973526 L91.2529859,70.7834079 L91.6127561,70.4565967 L86.4006814,42.1665131 L72.4367211,35.4327674 L72.5646977,33.2944467 L168.979549,0.29470075 L169.070785,0.242213364 L169.085064,0.258654266 L169.094944,0.255258023 L169.106522,0.283199838 L170.563279,1.95530902 L119.941433,67.2178935 C119.393635,67.2813414 118.845836,67.3447122 118.297961,67.4081602 L107.782885,58.8945518 L107.782885,58.8945518 Z"></path>
                    </g>
                </g>
            </g>
        </g>
    </g>
</svg>