<?xml version="1.0" encoding="UTF-8" standalone="no"?>
<svg width="176px" height="142px" viewBox="0 0 176 142" version="1.1" xmlns="http://www.w3.org/2000/svg" xmlns:xlink="http://www.w3.org/1999/xlink" xmlns:sketch="http://www.bohemiancoding.com/sketch/ns">
    <!-- Generator: Sketch 3.3.2 (12043) - http://www.bohemiancoding.com/sketch -->
    <title>‘</title>
    <desc>Created with Sketch.</desc>
    <defs></defs>
    <g stroke="none" stroke-width="1" fill="rgb(0,0,0)" fill-rule="evenodd" sketch:type="MSPage">
        <g sketch:type="MSArtboardGroup" transform="translate(-219.000000, -2647.000000)" fill="rgb(0,0,0)">
            <g sketch:type="MSLayerGroup" transform="translate(100.000000, 2579.000000)">
                <path d="M213.65252,85.2440466 C205.491686,89.4112809 197.89528,93.6218608 190.863072,97.8759125 C183.830864,102.129964 177.797146,106.340544 172.761738,110.507778 C166.858156,115.543186 161.996456,120.925783 158.176491,126.655731 C154.356526,132.385678 151.057515,139.765044 148.279359,148.794052 L159.478745,148.794052 C170.417735,148.794052 178.27459,151.485351 183.049546,156.868028 C187.824502,162.250706 190.211945,168.241015 190.211945,174.839136 C190.211945,183.173605 186.99975,191.117276 180.575263,198.670388 C174.150777,206.223501 165.382353,210 154.269728,210 C142.462564,210 133.737548,206.700989 128.094419,200.102868 C122.451289,193.504747 119.629766,184.823139 119.629766,174.057784 C119.629766,159.993368 122.668329,147.231404 128.745546,135.77151 C134.822762,124.311616 142.462577,114.067318 151.66522,105.038311 C160.694228,96.3565725 170.113772,89.1508379 179.924136,83.4208907 C189.7345,77.6909435 198.3727,72.8292431 205.838995,68.8356436 L213.65252,85.2440466 Z M295,85.2440466 C286.839166,89.4112809 279.242759,93.6218608 272.210551,97.8759125 C265.178343,102.129964 259.144626,106.340544 254.109218,110.507778 C248.205636,115.543186 243.343935,120.925783 239.523971,126.655731 C235.704006,132.385678 232.404995,139.765044 229.626839,148.794052 L240.826225,148.794052 C251.765215,148.794052 259.62207,151.485351 264.397026,156.868028 C269.171982,162.250706 271.559424,168.241015 271.559424,174.839136 C271.559424,183.173605 268.347229,191.117276 261.922743,198.670388 C255.498257,206.223501 246.729833,210 235.617208,210 C223.810044,210 215.085028,206.700989 209.441898,200.102868 C203.798769,193.504747 200.977246,184.823139 200.977246,174.057784 C200.977246,159.993368 204.015809,147.231404 210.093025,135.77151 C216.170242,124.311616 223.810057,114.067318 233.0127,105.038311 C242.041707,96.3565725 251.461252,89.1508379 261.271616,83.4208907 C271.08198,77.6909435 279.72018,72.8292431 287.186475,68.8356436 L295,85.2440466 Z" sketch:type="MSShapeGroup"></path>
            </g>
        </g>
    </g>
</svg>