<?xml version="1.0" encoding="UTF-8" standalone="no"?>
<svg width="134px" height="95px" viewBox="0 0 134 95" version="1.1" xmlns="http://www.w3.org/2000/svg" xmlns:xlink="http://www.w3.org/1999/xlink" xmlns:sketch="http://www.bohemiancoding.com/sketch/ns">
    <!-- Generator: Sketch 3.3.2 (12043) - http://www.bohemiancoding.com/sketch -->
    <title>apple love</title>
    <desc>Created with Sketch.</desc>
    <g stroke="none" stroke-width="1" fill="rgb(0,0,0)" fill-rule="evenodd" sketch:type="MSPage">
        <g sketch:type="MSArtboardGroup" transform="translate(-1115.000000, -3107.000000)" fill="rgb(0,0,0)">
            <g sketch:type="MSLayerGroup" transform="translate(100.000000, 2808.000000)">
                <g transform="translate(100.000000, 296.000000)" sketch:type="MSShapeGroup">
                    <g transform="translate(860.000000, 3.000000)">
                        <path d="M137.742869,79.9696305 C137.770733,80.5831926 137.815811,81.1955197 137.88582,81.8059943 C138.08751,83.564399 138.477615,85.3058224 139.105225,86.9625713 C139.321041,87.5323682 139.564721,88.091822 139.83835,88.6363014 C139.932905,88.8243298 140.030933,89.0105828 140.132589,89.194829 C140.197735,89.3130028 140.266277,89.4292469 140.329493,89.5484241 C140.355583,89.5999853 140.3809,89.6517008 140.405369,89.7040338 C140.591236,90.1205366 140.700765,90.5655216 140.717205,91.0220847 C140.730096,91.3796164 140.687488,91.7390006 140.591081,92.0835649 C140.446278,92.6010288 140.18029,93.0825233 139.81944,93.4806556 C139.49039,93.8437448 139.084153,94.1353586 138.635,94.3313372 C138.232005,94.5071699 137.8013,94.6006901 137.362644,94.6191765 C137.306683,94.6205736 137.307146,94.6206044 137.251263,94.621083 C130.700914,94.6208977 124.150488,94.6209363 117.60014,94.6180727 C114.982023,94.6169226 112.363828,94.6155024 109.745711,94.612824 C108.654282,94.6117047 107.562776,94.6169072 106.471347,94.6083239 C106.413302,94.6068651 106.355489,94.6044646 106.297599,94.6010374 C105.862494,94.5682946 105.437654,94.4611663 105.043073,94.2735239 C104.584271,94.0553925 104.175178,93.7357597 103.853153,93.3429534 C103.549884,92.9731489 103.324728,92.5408226 103.195826,92.0802458 C103.104822,91.7549012 103.061906,91.4162032 103.068621,91.0784314 C103.077652,90.6257277 103.176297,90.175494 103.357842,89.7607665 C103.458803,89.5302079 103.590253,89.3148553 103.710048,89.0938679 C103.769868,88.9817147 103.828685,88.8690984 103.886807,88.7559418 C104.159818,88.2143955 104.407975,87.661271 104.627342,87.0957194 C105.214043,85.583388 105.605305,83.9987321 105.832082,82.3935443 C105.949792,81.5602299 106.023352,80.7208948 106.057777,79.880016 L106.058009,79.8746129 C90.4948816,79.8090809 74.931754,79.7345951 59.3690125,79.7345951 C59.2269106,79.7327426 59.0854262,79.7271851 58.9439418,79.7128283 C58.6280913,79.6807955 58.3158685,79.6131022 58.0151467,79.5113693 C57.4958303,79.3356138 57.0122517,79.0580481 56.5978329,78.699127 C56.0818355,78.2521352 55.6763705,77.6812577 55.4259748,77.0460831 C55.2971491,76.7194263 55.2093871,76.3767917 55.1651588,76.0285225 C55.1469426,75.8854944 55.1379888,75.7423119 55.1324314,75.5983575 C54.8351829,51.8906542 55.1311964,28.1792459 55.1311964,4.46969016 C55.1329717,4.32743391 55.1386063,4.18579515 55.1529632,4.04423358 C55.1850731,3.72838302 55.2526892,3.41631463 55.3544221,3.11559279 C55.5519445,2.53182499 55.8782925,1.99375209 56.3035176,1.54776369 C56.7275848,1.10293309 57.2478274,0.751962286 57.8196312,0.5264209 C58.1462879,0.397672429 58.4889225,0.309833244 58.8372689,0.265604903 C58.9802971,0.247388692 59.1234796,0.238434962 59.267434,0.232877474 C100.9841,-0.290375454 142.707326,0.231642476 184.427234,0.231642476 C184.56949,0.233417785 184.711129,0.23905246 184.852691,0.253409304 C185.168541,0.285519235 185.480764,0.353135338 185.781486,0.454868242 C186.300802,0.630623799 186.784381,0.908266634 187.198722,1.26718773 C187.714643,1.71417957 188.120185,2.28505709 188.370581,2.92030883 C188.499252,3.24688844 188.587091,3.58944582 188.631319,3.93771507 C188.649536,4.08082038 188.658489,4.22408007 188.664047,4.36803444 C188.953654,28.0757377 188.665282,51.7869144 188.665282,75.4963158 C188.663507,75.6385721 188.657872,75.7802109 188.643515,75.9218496 C188.611482,76.2377002 188.543866,76.5499229 188.442056,76.8506448 C188.255494,77.4021483 187.953846,77.9130512 187.562429,78.3439109 C187.126166,78.8239389 186.580375,79.2017709 185.976924,79.4397395 C185.65019,79.5685651 185.307556,79.6564043 184.959132,79.7006327 C184.816181,79.7187717 184.672999,79.7278026 184.529044,79.7332829 C168.934424,79.9338156 153.338878,79.984682 137.742869,79.9696305 L137.742869,79.9696305 Z M108.373243,79.8842613 C108.348775,80.5365715 108.304083,81.187801 108.234306,81.8374868 C108.028988,83.7491854 107.618891,85.6423592 106.966272,87.4523249 C106.709856,88.1634518 106.416081,88.8612253 106.083404,89.5400879 C105.955581,89.8010583 105.82197,90.0590955 105.68257,90.3140453 C105.620588,90.4275107 105.551969,90.5381201 105.495236,90.6544414 C105.47648,90.6945788 105.459884,90.7353337 105.445142,90.7770921 C105.397826,90.9194255 105.376754,91.0683199 105.385785,91.2182177 C105.411874,91.6496949 105.689594,92.038719 106.088344,92.2049034 C106.222187,92.2607098 106.364752,92.2892691 106.509478,92.2928969 C107.58902,92.3013875 108.668562,92.2961388 109.748104,92.2972194 C112.365835,92.2998438 114.983489,92.3010788 117.601143,92.3024682 C121.824525,92.3038575 126.047907,92.304861 130.271289,92.3052469 C132.615546,92.3054785 134.961964,92.4026573 137.304136,92.3039347 C137.348982,92.3013103 137.393365,92.2965247 137.437747,92.2895007 C137.580853,92.2642604 137.717937,92.2147062 137.842672,92.1398344 C138.127725,91.9686329 138.328258,91.6760158 138.386225,91.3488187 C138.406989,91.2314167 138.409227,91.1108501 138.393404,90.9927535 C138.373952,90.8474869 138.325865,90.7086269 138.255315,90.5804959 C138.181216,90.45113 138.109045,90.3207606 138.03757,90.1900052 C137.724961,89.6077812 137.439523,89.0122037 137.185653,88.4020379 C136.486568,86.7219012 136.013873,84.9516869 135.732293,83.1551517 C135.579925,82.1831317 135.483055,81.202621 135.435353,80.2200262 C135.431263,80.1356605 135.427635,80.0512947 135.424316,79.966929 C126.407446,79.954579 117.390344,79.92162 108.373243,79.8842613 L108.373243,79.8842613 Z M59.3839096,77.4189751 C101.079426,77.4189751 142.778339,77.9544236 184.470305,77.4182032 C184.520013,77.4163507 184.569259,77.4132632 184.618813,77.4088636 C184.809003,77.3870967 184.994175,77.3423281 185.170857,77.2676879 C185.659684,77.0609803 186.050252,76.6507296 186.232877,76.1524854 C186.305202,75.9551945 186.34094,75.7494131 186.34889,75.5397723 C186.638574,51.8370862 186.638574,28.1290742 186.34889,4.42638807 C186.341557,4.23249349 186.310759,4.04191796 186.248469,3.85782618 C186.06816,3.32492483 185.650731,2.88704109 185.1274,2.68079654 C184.916911,2.59789735 184.695923,2.55660212 184.470305,2.54795714 C142.758888,2.02493578 101.037591,2.02470421 59.3261735,2.54795714 C59.1164555,2.55598462 58.9105197,2.59172236 58.7130745,2.66404689 C58.199856,2.85199804 57.7808059,3.26109091 57.5803504,3.76952387 C57.497374,3.98001372 57.456156,4.20100106 57.447511,4.42661963 C57.1502626,28.1290742 57.1502626,51.8371634 57.447511,75.5396179 C57.456156,75.7651593 57.497374,75.9862238 57.5803504,76.1967137 C57.7750169,76.6904039 58.1757735,77.0907746 58.6693093,77.2855182 C58.8483839,77.3561446 59.0353316,77.3962048 59.2267562,77.4131861 C59.2792436,77.4165051 59.3313451,77.4182804 59.3839096,77.4189751 L59.3839096,77.4189751 Z M63.2052229,72.5147236 L62.0474129,71.3569136 L62.0474129,8.609324 L63.2052229,7.45151401 L180.591255,7.45151401 L181.749065,8.609324 L181.749065,71.3569136 L180.591255,72.5147236 L63.2052229,72.5147236 L63.2052229,72.5147236 Z M64.3630329,70.1991036 L179.433445,70.1991036 L179.433445,9.76713399 L64.3630329,9.76713399 L64.3630329,70.1991036 L64.3630329,70.1991036 Z M148.104728,52.2968911 C147.85302,52.2937265 147.606021,52.2411619 147.378549,52.1314787 C147.2092,52.0498917 147.054054,51.9395138 146.921137,51.8065972 C146.807363,51.6928231 146.709953,51.5626852 146.633151,51.421278 C146.37851,50.9524422 146.364694,50.3774737 146.596179,49.8969826 C146.666188,49.7515617 146.757423,49.6164838 146.865948,49.4971522 C147.010366,49.3383779 147.185195,49.2076997 147.378549,49.1145346 C147.578696,49.0179733 147.797522,48.9623984 148.019436,48.9512062 C148.243588,48.9399369 148.469515,48.9735134 148.680391,49.0507779 C148.857768,49.1157696 149.023875,49.2112503 149.169604,49.331431 C149.314099,49.4506854 149.438371,49.5940995 149.535704,49.754186 C149.812884,50.2099772 149.854488,50.7838651 149.646776,51.2747765 C149.583792,51.423748 149.49904,51.5633799 149.396072,51.6881147 C149.259682,51.8532955 149.091645,51.991924 148.903385,52.0942744 C148.695365,52.207431 148.468126,52.2711106 148.232859,52.2920283 C148.190097,52.2947299 148.147567,52.2963508 148.104728,52.2968911 L148.104728,52.2968911 Z M138.290667,52.1566418 C138.28017,52.1630483 138.269672,52.1694549 138.259175,52.1758614 C137.860502,52.4174578 137.435509,52.615752 136.993689,52.7645692 C136.488497,52.9347673 135.961925,53.0400508 135.430028,53.0771007 C135.179786,53.094545 134.927152,53.1006428 134.676911,53.0799566 C134.374259,53.0549479 134.075004,52.9921175 133.787558,52.8943211 C133.629324,52.8405215 133.474718,52.7762245 133.324666,52.7027421 C132.377809,52.2387691 131.645996,51.4296143 131.079595,50.5566255 C130.97601,50.396925 130.878368,50.2337509 130.783273,50.0688788 L130.737501,49.9875233 C130.64997,50.0993678 130.560433,50.2094369 130.470201,50.3190429 C130.39093,50.4135974 130.310809,50.5073028 130.22984,50.6003908 C130.070602,50.7798513 129.908355,50.9562244 129.739237,51.1264224 C129.60331,51.2632756 129.463678,51.3965009 129.319955,51.5251722 C128.515278,52.2455616 127.548506,52.8568852 126.460242,53.0075549 C126.326939,53.0260027 126.192556,53.0374264 126.058019,53.0412086 C125.823524,53.0477695 125.588488,53.0312514 125.357312,52.9912684 C125.064541,52.9407107 124.77887,52.8526399 124.507094,52.7328452 C124.110891,52.5583246 123.746335,52.3175002 123.417286,52.0371558 C122.872806,51.5732599 122.429905,51.007168 122.042734,50.408889 L122.037022,50.3999353 C121.971104,50.4832976 121.903874,50.5654249 121.836026,50.6472435 C121.758144,50.7387876 121.758453,50.7384017 121.679413,50.8290968 C121.444841,51.0913794 121.199617,51.3430101 120.935481,51.5756527 C120.375719,52.0687254 119.737997,52.4795164 119.034666,52.7347749 C118.652049,52.8736349 118.25245,52.9652563 117.847139,53.0038499 C117.479187,53.0388158 117.106604,53.0282411 116.73842,53.0026149 C115.873536,52.9425632 115.015599,52.7566961 114.216015,52.4183068 C113.849607,52.2632375 113.499717,52.0756723 113.164492,51.861709 L113.089775,51.8126178 L113.051413,51.7866829 C112.961027,51.8406368 112.869328,51.8922751 112.777398,51.9435275 C112.082712,52.3218227 111.349124,52.6220042 110.581573,52.8164391 C110.0188,52.9590813 109.441979,53.0454539 108.86207,53.0734729 C108.482463,53.0917663 108.099614,53.0940047 107.727648,53.0060884 C107.505426,52.9535238 107.289996,52.8708562 107.093323,52.7543033 C106.958862,52.6745688 106.833742,52.5793196 106.721357,52.4706398 C106.64278,52.3946103 106.57061,52.312097 106.50531,52.2244122 C106.113121,51.6976859 105.999655,51.0245352 105.992631,50.3822594 C105.991474,50.2746602 105.993249,50.1669839 105.997417,50.0594619 C106.002511,49.9271628 106.011234,49.7949409 106.022657,49.6630278 C106.038326,49.4813288 106.059321,49.300093 106.08379,49.1193974 C106.122075,48.8367374 106.169159,48.5552352 106.220643,48.2746592 C106.283242,47.9339544 106.352865,47.5946388 106.424417,47.2557093 C106.528543,46.7619419 106.636605,46.2691008 106.740345,45.7752562 C106.790131,45.5315758 106.839222,45.2878182 106.885766,45.0434431 C106.938176,44.7600884 106.987962,44.4763478 107.029875,44.191295 C107.062757,43.9668342 107.091239,43.7417559 107.112851,43.5159058 C107.12906,43.346634 107.14141,43.1769762 107.148357,43.0070869 C107.154069,42.8683813 107.156308,42.7295213 107.153683,42.5907384 C107.151908,42.4979593 107.147971,42.4052573 107.14141,42.3126325 C107.135313,42.2257967 107.126899,42.1390382 107.115553,42.0526655 C107.059052,41.6225777 106.930766,41.1715721 106.617463,40.8554128 C106.552162,40.7894177 106.479915,40.7303694 106.402728,40.6788082 C106.264331,40.5864922 106.11096,40.5183357 105.95288,40.4677009 C105.651463,40.3712167 105.332525,40.3348615 105.017215,40.3260621 C104.619932,40.3150243 104.223189,40.3546986 103.838564,40.4563543 C103.310835,40.5957546 102.818611,40.8460732 102.377949,41.1660147 C101.609163,41.7240791 100.994597,42.4752662 100.483694,43.2696782 C100.176643,43.7470819 99.9047121,44.2467155 99.6588704,44.7581587 C99.2345717,45.6407187 98.8906249,46.5584761 98.5926046,47.4906675 L98.5427416,47.6502909 L98.5149542,47.7412948 C98.4017975,48.3167263 98.2916512,48.8926982 98.1826627,49.4689788 C98.0846348,49.9923861 97.9875331,50.5159478 97.8922068,51.0398182 C97.8274466,51.3953431 97.7656967,51.7519486 97.6973087,52.1069331 C97.6783979,52.2003298 97.6585607,52.2932633 97.6363308,52.3858881 C97.6091608,52.4916348 97.5792893,52.5954517 97.5323594,52.6944059 C97.5007898,52.7610186 97.4574105,52.8157444 97.4129506,52.8740208 L97.4096316,52.8777258 C97.3528217,52.936311 97.3529761,52.9360794 97.2904543,52.9881809 L97.2873668,52.9904965 C97.2605056,53.008018 97.2347251,53.0273149 97.2067832,53.0432155 C97.1321431,53.0855913 97.1099903,53.0889876 97.0291752,53.1166206 L97.0263965,53.1173925 L96.9284457,53.1374612 C96.8952552,53.1399312 96.8619874,53.142324 96.8287969,53.144794 C96.7289937,53.1390821 96.7292252,53.1391593 96.6308114,53.1206344 L96.628187,53.1199397 C96.5508453,53.0951625 96.5297732,53.0921522 96.4576802,53.0538673 C96.3856644,53.0155824 96.3713847,52.9998362 96.3075508,52.9495872 L96.305158,52.9475032 C96.2257323,52.8657618 96.2258866,52.8659162 96.1594283,52.7736001 L96.1572671,52.7700495 C96.1206031,52.7038228 96.0840163,52.6345857 96.0673438,52.5598684 C96.0596251,52.5254428 96.0465805,52.4715661 96.0421808,52.4332812 C96.0207227,52.2484175 96.0390161,52.0573789 96.0576182,51.8731327 C96.0812376,51.6393323 96.1115722,51.4063037 96.146538,51.1739698 C96.3403554,49.8858676 96.6429298,48.6137432 97.0153587,47.3661643 C97.1157022,46.8560333 97.2186701,46.3463653 97.3224099,45.8368517 C97.7964173,43.5389848 98.3069343,41.248991 98.8867655,38.975361 L98.919493,38.848465 C98.7935232,38.9359182 98.7936776,38.9355323 98.6665501,39.0217506 C98.5211291,39.1180803 98.5213607,39.117926 98.3745504,39.212712 C97.8416491,39.5474735 97.2916893,39.8554509 96.7082303,40.0935739 C96.3396608,40.2439348 95.9585097,40.367203 95.5672471,40.4426922 C95.3572976,40.4832155 95.1444149,40.5098451 94.9306832,40.5181042 C94.8484787,40.5212689 94.7638814,40.5248195 94.6822172,40.5133186 C94.6058017,40.5025895 94.5314703,40.4804368 94.461693,40.4476322 C94.3919156,40.4148275 94.327387,40.3718342 94.2703456,40.3198871 C94.0682691,40.1361041 93.9774196,39.8515144 94.0356189,39.5846006 C94.0520598,39.5091886 94.0796157,39.4367868 94.1175918,39.3695567 C94.1554908,39.3024037 94.2031926,39.2413485 94.2592306,39.1883208 C94.3713838,39.0821882 94.514875,39.0114075 94.6672428,38.9868619 C94.7616429,38.9717332 94.8599796,38.9769819 94.9553831,38.9706525 C95.0149718,38.9655582 95.0740972,38.9589201 95.1333771,38.9508154 C95.4750083,38.8984824 95.8054472,38.7945882 96.1250028,38.6642188 C96.4372255,38.5367825 96.7391052,38.3848007 97.0325714,38.2190023 C97.9358176,37.708794 98.7616449,37.0719985 99.5477979,36.3982303 L99.5986643,36.354002 C99.6686732,36.11256 99.7397628,35.8714268 99.8116242,35.6304479 C99.8863415,35.3832941 99.9620623,35.1365262 100.038786,34.8899898 C100.33233,33.9609631 100.643472,33.0373395 100.995987,32.1288446 C101.230713,31.5239274 101.482653,30.9250309 101.764927,30.3406456 C102.009919,29.8332933 102.277451,29.3348947 102.587821,28.8642063 C102.839066,28.4831325 103.119796,28.1164926 103.452628,27.8024946 C103.811935,27.4634878 104.24318,27.1838381 104.733629,27.0861189 C104.900585,27.0528512 105.07032,27.0431256 105.240209,27.0516162 C105.649765,27.0722252 106.057006,27.2058365 106.353637,27.4984537 C106.431827,27.575641 106.500833,27.6620136 106.559109,27.7551787 C106.637068,27.8797591 106.695268,28.0161491 106.734556,28.1576335 C106.792061,28.3648815 106.808424,28.5817779 106.797464,28.7960499 C106.783416,29.0690615 106.726143,29.3386769 106.648261,29.6001104 C106.536107,29.9769389 106.380343,30.3401825 106.206363,30.6921567 C105.981362,31.1473304 105.723325,31.5858317 105.448538,32.0126004 C105.105595,32.5451158 104.735018,33.059801 104.34692,33.5602065 C103.335303,34.864518 102.205203,36.0755101 100.985798,37.1872392 L100.9594,37.2108585 C100.588129,38.5235063 100.252132,39.8458025 99.9334258,41.1720353 L99.857705,41.4918996 C99.9275595,41.4042148 99.9988034,41.317765 100.071051,41.2320098 C100.131257,41.1617694 100.192081,41.0923008 100.253753,41.0232953 C100.48053,40.7743661 100.717881,40.5357801 100.971981,40.3145612 C101.499788,39.8549106 102.093282,39.4681249 102.741347,39.200748 C103.027943,39.082497 103.324188,38.9877881 103.626454,38.9188598 C103.874688,38.8622815 104.126782,38.8229932 104.38042,38.8012263 C104.606578,38.7817751 104.833586,38.7765264 105.06044,38.7829329 C105.85215,38.8050085 106.664007,38.9742032 107.321334,39.4369412 C107.441978,39.5218473 107.556138,39.6157843 107.662502,39.7179031 C107.800976,39.8508197 107.925865,39.99763 108.035549,40.155015 C108.209606,40.4048704 108.344375,40.6808151 108.443715,40.9684151 C108.573313,41.3438543 108.643553,41.737664 108.675972,42.1328632 C108.71773,42.642068 108.698202,43.1549778 108.649651,43.6628705 C108.581417,44.3762358 108.456219,45.0838121 108.313886,45.7857537 C108.173405,46.4786644 108.019648,47.1687963 107.874999,47.860858 C107.828223,48.0914937 107.78222,48.3221295 107.738995,48.5535371 C107.700015,48.7695072 107.662579,48.9857861 107.63101,49.2029913 C107.607776,49.3624603 107.587399,49.5223925 107.571267,49.6827106 C107.560229,49.7930884 107.551198,49.9036207 107.545023,50.0143073 C107.539311,50.1160402 107.536532,50.217696 107.536069,50.3195832 C107.535683,50.3949953 107.537999,50.4705617 107.542399,50.5458193 C107.545563,50.6008539 107.550117,50.6558885 107.55637,50.7106143 C107.561927,50.759937 107.568951,50.8090281 107.577673,50.8578877 C107.617733,51.0808819 107.694844,51.3331301 107.911508,51.4431221 C108.098997,51.538294 108.322685,51.5417675 108.527772,51.5392975 C108.728614,51.5368275 108.929378,51.5260213 109.129293,51.5068016 C109.49107,51.4719129 109.850068,51.4092368 110.202429,51.3199311 C110.761959,51.1782151 111.299878,50.968034 111.814409,50.7074496 C111.764391,50.651566 111.715377,50.5949105 111.666749,50.537869 C111.432023,50.2552862 111.216824,49.9581922 111.026017,49.6441941 C110.52183,48.8146618 110.182823,47.8893401 110.002282,46.9368484 C109.921003,46.5076868 109.871526,46.0725046 109.854082,45.6360103 C109.840034,45.2857342 109.846286,44.9345318 109.87361,44.5849504 C109.894297,44.3194259 109.927024,44.0547506 109.972179,43.7922365 C110.007916,43.5846025 110.051373,43.3782808 110.103011,43.1739659 C110.412455,41.9479995 111.021077,40.7649493 111.983526,39.9252283 C112.134505,39.7934695 112.293588,39.670896 112.459926,39.5589744 C112.712483,39.3890851 112.981867,39.2441273 113.263215,39.1278831 C113.479262,39.0386546 113.702257,38.9664072 113.929496,38.9116042 C114.270973,38.8293225 114.62148,38.7867151 114.972606,38.7810033 C115.346192,38.7749055 115.721632,38.8088679 116.085107,38.8977105 C116.513419,39.0024537 116.922589,39.1854649 117.276262,39.4500631 C117.408175,39.5487085 117.531983,39.6581601 117.646143,39.7768742 C117.839266,39.9774841 118.004215,40.2041833 118.13937,40.4474778 C118.595007,41.2680563 118.702143,42.2393817 118.634604,43.1626966 C118.623412,43.3164537 118.607126,43.469825 118.586594,43.6225787 C118.558343,43.8318336 118.521756,44.0398534 118.478068,44.2464067 C118.253916,45.3058801 117.846753,46.325216 117.325584,47.2725361 C116.759184,48.3022923 116.049523,49.256019 115.219296,50.0882528 C114.972143,50.3360241 114.713565,50.5713683 114.446034,50.7969869 L114.427123,50.8125787 C114.643325,50.9234969 114.865007,51.0220652 115.093558,51.10481 C115.628389,51.2982414 116.190467,51.4098543 116.756714,51.455858 C116.907229,51.4681308 117.058053,51.4757723 117.208954,51.4792457 C117.398526,51.483491 117.587481,51.4813298 117.775895,51.4588683 C118.181592,51.410549 118.574012,51.2821093 118.936947,51.0958562 C119.318407,50.9001092 119.666676,50.6436929 119.98353,50.3559385 C120.45885,49.9243069 120.863003,49.4227436 121.22725,48.8957085 C121.166812,48.7641041 121.108767,48.6314963 121.051494,48.4985025 C120.50686,47.2083162 120.106026,45.8624779 119.795579,44.4980374 C119.480963,43.1153807 119.258046,41.7116519 119.110233,40.3016709 C119.007959,39.3266405 118.942196,38.3476736 118.91518,37.3677032 C118.888087,36.3848769 118.899666,35.4004297 118.961184,34.4189927 C119.017222,33.5256265 119.113706,32.633341 119.275182,31.7525563 C119.390345,31.1246374 119.538159,30.5010409 119.741548,29.8955063 C119.899319,29.4257442 120.090821,28.9647042 120.338437,28.5347708 C120.662933,27.9714576 121.095877,27.4490538 121.671926,27.1308876 C121.774662,27.0741549 121.881258,27.0242919 121.990864,26.9823792 C122.129261,26.9293515 122.27252,26.8889053 122.41825,26.8620441 C122.595704,26.8292395 122.776631,26.8164264 122.956941,26.8229101 C123.165809,26.8304745 123.373521,26.8645913 123.573436,26.9256465 C123.825838,27.0027566 124.063961,27.1224742 124.279237,27.2746104 C124.896658,27.7109504 125.305056,28.3839467 125.5898,29.0712999 C125.829544,29.6501278 125.991946,30.2595217 126.112436,30.8734698 C126.259323,31.6214922 126.34338,32.3814015 126.389847,33.1419283 C126.470739,34.4663086 126.437395,35.7972497 126.330567,37.1190828 C126.206913,38.6483954 125.981758,40.1702981 125.660272,41.6705111 C125.401695,42.8770263 125.079824,44.0710371 124.679221,45.2383411 C124.245197,46.5027468 123.71685,47.7355057 123.05026,48.8953998 L122.996538,48.9870211 C123.276496,49.4985416 123.592347,49.9940071 123.980985,50.4306558 C124.222581,50.7021237 124.493663,50.9521334 124.802412,51.1455649 C124.972919,51.2523922 125.155159,51.341312 125.346969,51.4027531 C125.471935,51.4427361 125.600607,51.4709095 125.730976,51.4858838 C126.371477,51.5593662 126.996385,51.3044936 127.525813,50.9642518 C127.619441,50.9041229 127.710986,50.8406749 127.8006,50.7747569 C127.89554,50.7048252 127.988397,50.6320376 128.079169,50.5568571 C128.199967,50.4568995 128.317292,50.3526966 128.431529,50.245329 C128.578185,50.1073953 128.719824,49.9641356 128.85714,49.8168621 C129.029114,49.6323844 129.194295,49.4416545 129.353764,49.2463706 C129.574828,48.9755974 129.783697,48.695639 129.986082,48.4107405 L129.992026,48.4022499 C129.93344,48.2541274 129.877016,48.1053102 129.821828,47.9559527 C129.777831,47.8339968 129.734683,47.7118864 129.692384,47.5893129 C129.264844,46.3228232 128.957252,45.0194379 128.735879,43.7017729 C128.525158,42.4475559 128.390929,41.1804487 128.324316,39.9105627 C128.258244,38.6518689 128.25863,37.3887753 128.336512,36.1306218 C128.403587,35.0475292 128.527242,33.966289 128.735107,32.9007951 C128.867946,32.2196941 129.03552,31.5443049 129.255427,30.8858198 C129.44114,30.3293763 129.664597,29.7834303 129.946639,29.2684364 C130.320766,28.5854829 130.807741,27.941123 131.456732,27.497759 C131.768106,27.2850307 132.113828,27.123246 132.479773,27.0303897 C133.257744,26.8329445 134.124172,26.9386911 134.812066,27.3603655 C135.078131,27.5234624 135.31525,27.7310191 135.518021,27.967907 C135.937534,28.4577378 136.205992,29.0600306 136.381825,29.6759083 C136.550479,30.2667774 136.638472,30.8791045 136.682006,31.4912 C136.737504,32.2721043 136.720291,33.0574082 136.661551,33.8376177 C136.577803,34.9498872 136.40884,36.0553642 136.186463,37.1480281 C135.935759,38.3794748 135.615972,39.5968734 135.239838,40.7959014 C134.826654,42.1128717 134.345546,43.4093101 133.791263,44.6735614 C133.209348,46.000952 132.545768,47.2929907 131.770885,48.518494 L131.742094,48.5634171 C131.845139,48.7853306 131.956675,49.0036936 132.075543,49.2175797 C132.169789,49.3870059 132.269129,49.5536533 132.374644,49.7163642 C132.45708,49.8433374 132.543144,49.9679949 132.633608,50.0894106 C132.701918,50.1811092 132.772699,50.2710324 132.846182,50.3585628 C133.281441,50.8772617 133.836804,51.3454801 134.512425,51.4968444 C134.761122,51.5524965 135.014142,51.5553524 135.267548,51.5406097 C135.687061,51.5161413 136.102484,51.4357121 136.50077,51.3015605 C136.664485,51.2464487 136.824417,51.1821517 136.980335,51.1095956 C136.00515,50.0530554 135.443767,48.6557331 135.283063,47.234174 C135.229109,46.7568475 135.219306,46.2745811 135.25157,45.7953249 C135.387343,43.780504 136.258556,41.795323 137.744798,40.4128207 C137.93877,40.2324339 138.142776,40.0627761 138.356122,39.9056999 C138.608062,39.7202187 138.872891,39.5522591 139.148913,39.4049857 C139.511848,39.2113226 139.894003,39.0534745 140.289125,38.938697 C140.756725,38.8027701 141.242234,38.7278212 141.729363,38.7218006 C142.17319,38.7162431 142.617403,38.768113 143.047954,38.8759437 C143.403402,38.9649407 143.749201,39.0918367 144.07771,39.2540072 C144.339607,39.3832188 144.590389,39.5346604 144.827122,39.7055531 C144.88949,39.7084863 144.95178,39.7101844 145.014224,39.7114194 C145.09558,39.7120369 145.176704,39.7113422 145.258059,39.7098756 C145.637589,39.6973713 146.021056,39.6632545 146.387618,39.5585113 C146.535201,39.5162898 146.679232,39.4617184 146.811531,39.3832188 C146.878684,39.3433902 146.946223,39.291829 146.989834,39.225911 C147.024646,39.1732693 147.03468,39.1088951 147.057141,39.050773 C147.06926,39.0228312 147.082227,38.9958156 147.096507,38.9688772 C147.16312,38.854254 147.252348,38.7568436 147.365582,38.6868347 C147.434356,38.6443817 147.509845,38.6128121 147.588345,38.5935924 C147.909598,38.5152473 148.254163,38.6564229 148.427988,38.9376935 C148.481171,39.0236802 148.51714,39.1200872 148.533272,39.2198904 C148.556891,39.3655429 148.532654,39.5055608 148.487191,39.6444208 C148.453537,39.7470799 148.410698,39.8465744 148.359215,39.9415148 C148.317842,40.0178531 148.270912,40.091181 148.21912,40.1608812 C147.844993,40.6646057 147.247254,40.9386208 146.652371,41.0851995 C146.513125,41.1195479 146.372335,41.1474125 146.230774,41.1701056 C146.872741,42.1261479 147.248489,43.2587176 147.365428,44.4033286 C147.414364,44.882276 147.419073,45.3655459 147.381714,45.8454195 C147.207039,48.0906446 146.113835,50.3011355 144.283415,51.6489035 C144.031552,51.8343075 143.766645,52.0023443 143.490624,52.1496177 C143.127766,52.3433579 142.745457,52.5011288 142.350412,52.6159064 C141.906199,52.7449636 141.449482,52.8152813 140.987516,52.831259 C140.909865,52.8328028 140.910174,52.8328028 140.832755,52.8331887 C140.360677,52.8285575 139.892613,52.7664989 139.43798,52.6376732 C139.086777,52.5381787 138.746304,52.4012484 138.423893,52.2299697 C138.379124,52.206196 138.334741,52.1817276 138.290667,52.1566418 L138.290667,52.1566418 Z M140.836691,51.2894421 C141.073734,51.2882843 141.309464,51.2675209 141.542492,51.2236785 C142.57796,51.0288576 143.501738,50.4246352 144.199589,49.6489797 C144.908478,48.8610514 145.399621,47.8891857 145.656423,46.8633661 C145.876484,45.9842023 145.926424,45.0606559 145.776526,44.1656688 C145.591508,43.0608865 145.09311,41.9788745 144.251305,41.2218211 C144.142085,41.1236388 144.027616,41.0313999 143.908053,40.9461079 C143.760239,40.8405157 143.604784,40.7456524 143.443076,40.6628304 C143.231583,40.5544594 143.009438,40.4670062 142.780732,40.402246 C142.497917,40.3221255 142.205532,40.276585 141.911757,40.267091 C141.730289,40.2612247 141.548359,40.2690207 141.367972,40.2897841 C140.313516,40.4113541 139.351221,40.9707307 138.615163,41.7193706 C137.777294,42.571596 137.21375,43.6735223 136.948843,44.8346514 C136.753327,45.6914308 136.719365,46.587267 136.874203,47.4534632 C137.086545,48.641685 137.66738,49.8038947 138.643259,50.5435809 C138.788217,50.6534185 138.940971,50.7529901 139.100285,50.8406749 C139.291787,50.9461128 139.492706,51.0342608 139.700108,51.1034206 C139.99782,51.2027607 140.306106,51.2604968 140.618946,51.2823408 C140.691579,51.2863546 140.763981,51.2886702 140.836691,51.2894421 L140.836691,51.2894421 Z M113.141027,49.8645639 C114.157893,49.0798003 115.018223,48.101914 115.6923,47.009636 C116.145853,46.2746583 116.519054,45.4858037 116.775547,44.6604396 C116.850573,44.4189204 116.915411,44.1742366 116.967744,43.9268512 C117.007881,43.7373563 117.040686,43.5463176 117.064691,43.3541212 C117.084683,43.1944978 117.098499,43.0340253 117.104983,42.8733213 C117.109614,42.7603962 117.11054,42.6473168 117.107221,42.5343145 C117.104597,42.4452403 117.099348,42.3563205 117.091089,42.2675551 C117.04277,41.7483159 116.88963,41.1998999 116.509483,40.8226854 C116.451747,40.7654124 116.389302,40.7127706 116.323075,40.665532 C116.222346,40.593825 116.112894,40.5346995 115.998503,40.4877696 C115.80345,40.4077263 115.59543,40.3624173 115.386098,40.3405733 C115.073953,40.3080003 114.754629,40.3215852 114.446188,40.3792442 C114.060869,40.4513371 113.692299,40.5988421 113.363481,40.8122651 C112.582809,41.3189228 112.065422,42.1491497 111.761613,43.0131847 C111.706424,43.1701837 111.657873,43.3294984 111.615651,43.4903568 C111.477332,44.0167744 111.405162,44.560096 111.39258,45.103958 C111.360007,46.5107743 111.722016,47.9557984 112.525999,49.1214043 C112.68979,49.3588325 112.872184,49.5815952 113.069861,49.7915447 C113.105367,49.8282859 113.104904,49.8281315 113.141027,49.8645639 L113.141027,49.8645639 Z M122.19981,47.2136422 C122.656142,46.2897098 123.030732,45.3263347 123.349515,44.3469046 C123.729277,43.1803725 124.02969,41.9883685 124.266269,40.7848636 C124.521142,39.4877305 124.701683,38.1753143 124.802644,36.8572634 C124.891718,35.6929696 124.920278,34.5217291 124.855826,33.3553513 C124.819085,32.6896877 124.752086,32.0244873 124.634607,31.368009 C124.544144,30.8626636 124.424503,30.3597881 124.247436,29.8772901 C124.131037,29.5602045 123.989398,29.2475186 123.796816,28.9688724 C123.683968,28.805544 123.551129,28.6507834 123.388186,28.5354655 C123.306985,28.4780381 123.217834,28.4314941 123.122507,28.4023945 C123.050723,28.3804733 122.97616,28.3685865 122.901211,28.3658849 C122.833441,28.3634921 122.765439,28.3680462 122.698749,28.3803189 C122.371089,28.4408338 122.112511,28.6867527 121.916532,28.941934 C121.880486,28.9887867 121.845983,29.0368744 121.81287,29.0858883 C121.764628,29.1572866 121.719242,29.2306146 121.676248,29.3053319 C121.629087,29.3871505 121.584859,29.47059 121.542946,29.5551873 C121.485673,29.670814 121.432799,29.7886018 121.383477,29.9078563 C121.318331,30.0653956 121.259205,30.2254049 121.204942,30.3870352 C121.03652,30.8885213 120.912557,31.4044414 120.81368,31.923835 C120.690103,32.5730577 120.606586,33.2296131 120.548927,33.8877895 C120.472898,34.7560698 120.442563,35.6282867 120.445496,36.4997316 C120.448661,37.4312284 120.490342,38.3625707 120.566294,39.2909028 C120.666329,40.514322 120.825258,41.7334959 121.050105,42.9403971 C121.285063,44.2021012 121.592963,45.4504519 122.003986,46.6666927 C122.067125,46.8498583 122.132117,47.0321747 122.19981,47.2136422 L122.19981,47.2136422 Z M131.038223,46.7414873 C131.604701,45.74469 132.102868,44.7096851 132.549551,43.6540711 C133.066551,42.43235 133.514778,41.1812977 133.896778,39.9109486 C134.187543,38.9441773 134.439868,37.9655191 134.645496,36.9770581 C134.835454,36.0640863 134.986586,35.1420065 135.07898,34.2138288 C135.175078,33.2493731 135.214212,32.2707921 135.116724,31.3047154 C135.080986,30.9507343 135.025875,30.5977566 134.938499,30.2526521 C134.873198,29.9949236 134.789913,29.7404369 134.676602,29.4995353 C134.574483,29.2824845 134.447047,29.0737699 134.280168,28.9001756 C134.173727,28.789489 134.050536,28.6942398 133.913065,28.6253115 C133.738853,28.5380127 133.546965,28.4943246 133.352994,28.4831325 C133.056671,28.4659969 132.76583,28.5259714 132.50347,28.6657577 C132.104411,28.8782544 131.794813,29.233239 131.54627,29.6038925 C131.327366,29.9303178 131.148755,30.2830639 130.995075,30.6443006 C130.782038,31.1447833 130.615854,31.6646399 130.478306,32.1905172 C130.287885,32.9185482 130.152652,33.6606272 130.052772,34.4061796 C129.941931,35.2341681 129.87555,36.0679457 129.843363,36.9025723 C129.784006,38.4414562 129.8385,39.9855116 129.997506,41.5171398 C130.164231,43.1232538 130.447817,44.7193335 130.894963,46.2718795 C130.941275,46.4288786 130.988977,46.5854145 131.038223,46.7414873 L131.038223,46.7414873 Z M101.946008,34.0291967 C102.504227,33.4052143 103.035662,32.7563776 103.52912,32.079985 C103.935898,31.5224609 104.320213,30.9456399 104.650344,30.3391019 C104.848638,29.9747005 105.032884,29.5967913 105.156461,29.1997397 C105.192507,29.084113 105.223228,28.966248 105.241753,28.8464532 C105.254026,28.7669503 105.262594,28.6843598 105.252945,28.604085 C105.223305,28.5976013 105.192893,28.5955172 105.162713,28.5935875 C105.125509,28.5921982 105.088613,28.5915807 105.051718,28.5974469 C104.936631,28.6158947 104.829804,28.6764095 104.735404,28.7417872 C104.586433,28.8449867 104.455523,28.9734264 104.335033,29.1080411 C104.100152,29.3706324 103.9007,29.6643302 103.717921,29.9648977 C103.479412,30.3569322 103.269462,30.7661022 103.074487,31.1812929 C102.933389,31.4817832 102.800395,31.7860556 102.673422,32.0927209 C102.506234,32.4961791 102.350624,32.9040369 102.199491,33.3136701 C102.11335,33.5515615 102.028058,33.7897616 101.946008,34.0291967 L101.946008,34.0291967 Z"></path>
                    </g>
                </g>
            </g>
        </g>
    </g>
</svg>