<?xml version="1.0" encoding="UTF-8" standalone="no"?>
<svg width="15px" height="22px" viewBox="0 0 15 22" version="1.1" xmlns="http://www.w3.org/2000/svg" xmlns:xlink="http://www.w3.org/1999/xlink" xmlns:sketch="http://www.bohemiancoding.com/sketch/ns">
    <!-- Generator: Sketch 3.3.2 (12043) - http://www.bohemiancoding.com/sketch -->
    <title>icon (scoll mouse)</title>
    <desc>Created with Sketch.</desc>
    <defs></defs>
    <g stroke="none" stroke-width="1" fill="rgb(0,0,0)" fill-rule="evenodd" sketch:type="MSPage">
        <g sketch:type="MSArtboardGroup" transform="translate(-200.000000, -816.000000)" fill="rgb(0,0,0)">
            <g sketch:type="MSLayerGroup" transform="translate(140.000000, 178.000000)">
                <g transform="translate(60.000000, 638.000000)" sketch:type="MSShapeGroup">
                    <path d="M7.5,5 C7.36021505,5 7.24193548,5.04812834 7.14516129,5.14438503 C7.0483871,5.24064171 7,5.35828877 7,5.4973262 L7,7.5026738 C7,7.64171123 7.0483871,7.75935829 7.14516129,7.85561497 C7.24193548,7.95187166 7.36021505,8 7.5,8 C7.63978495,8 7.75806452,7.95187166 7.85483871,7.85561497 C7.9516129,7.75935829 8,7.64171123 8,7.5026738 L8,5.4973262 C8,5.35828877 7.9516129,5.24064171 7.85483871,5.14438503 C7.75806452,5.04812834 7.63978495,5 7.5,5 L7.5,5 Z M0,4.99214053 C0,2.23505745 2.24565156,0 4.99478281,0 L10.0052172,0 C12.7637596,0 15,2.23054698 15,4.99214053 L15,17.0078595 C15,19.7649426 12.7543484,22 10.0052172,22 L4.99478281,22 C2.23624043,22 0,19.769453 0,17.0078595 L0,4.99214053 Z M1,5.99525338 C1,3.23645112 3.23477967,1 6.00754411,1 L8.99245589,1 C11.7580461,1 14,3.23603796 14,5.99525338 L14,16.0047466 C14,18.7635489 11.7652203,21 8.99245589,21 L6.00754411,21 C3.24195386,21 1,18.763962 1,16.0047466 L1,5.99525338 Z"></path>
                </g>
            </g>
        </g>
    </g>
</svg>