<?xml version="1.0" encoding="UTF-8" standalone="no"?>
<svg width="28px" height="28px" viewBox="0 0 28 28" version="1.1" xmlns="http://www.w3.org/2000/svg" xmlns:xlink="http://www.w3.org/1999/xlink" xmlns:sketch="http://www.bohemiancoding.com/sketch/ns">
    <!-- Generator: Sketch 3.3.2 (12043) - http://www.bohemiancoding.com/sketch -->
    <title>icon (soundcloud)</title>
    <desc>Created with Sketch.</desc>
    <defs></defs>
    <g stroke="none" stroke-width="1" fill="rgb(0,0,0)" fill-rule="evenodd" sketch:type="MSPage">
        <g sketch:type="MSArtboardGroup" transform="translate(-953.000000, -3697.000000)" fill="rgb(0,0,0)">
            <g sketch:type="MSLayerGroup" transform="translate(100.000000, 3320.000000)">
                <g sketch:type="MSShapeGroup">
                    <g>
                        <g transform="translate(663.000000, 377.000000)">
                            <g transform="translate(190.000000, 0.000000)">
                                <path d="M21.4586207,18.0677241 C21.4151724,18.0677241 14.6526897,18.0638621 14.6449655,18.0638621 C14.5001379,18.0484138 14.3833103,17.921931 14.3813793,17.7732414 L14.3813793,9.9737931 C14.3833103,9.82993103 14.4325517,9.75655172 14.6188966,9.68317241 C15.0958621,9.49875862 15.6355862,9.39062069 16.1897931,9.39062069 C18.4548966,9.39062069 20.3125517,11.1275862 20.5085517,13.3415172 C20.8001379,13.2188966 21.1206897,13.1532414 21.4586207,13.1532414 C22.8161379,13.1532414 23.9158621,14.252 23.9158621,15.6104828 C23.9158621,16.966069 22.8161379,18.0677241 21.4586207,18.0677241 L21.4586207,18.0677241 Z M14.1496552,17.7828966 L14.1496552,17.7809655 C14.1477241,17.9277241 14.0270345,18.0484138 13.8783448,18.0484138 C13.7325517,18.0484138 13.609931,17.9277241 13.608,17.7828966 L13.4969655,15.7726897 L13.608,10.2354483 C13.609931,10.0867586 13.7325517,9.96606897 13.8783448,9.96606897 C14.0270345,9.96606897 14.1477241,10.0867586 14.1496552,10.2354483 L14.2703448,15.7726897 L14.1496552,17.7828966 L14.1496552,17.7828966 Z M13.2932414,17.8108966 L13.2932414,17.8089655 C13.2913103,17.948 13.1764138,18.061931 13.0402759,18.061931 C12.9031724,18.061931 12.7882759,17.948 12.7863448,17.8108966 C12.7863448,17.8108966 12.6917241,15.7746207 12.6917241,15.7707586 L12.7863448,10.696 C12.7882759,10.556 12.9031724,10.4430345 13.0402759,10.4430345 C13.1764138,10.4430345 13.2913103,10.556 13.2932414,10.696 L13.4004138,15.7726897 L13.2932414,17.8108966 L13.2932414,17.8108966 Z M12.433931,17.8244138 L12.433931,17.8224828 C12.4310345,17.9537931 12.3277241,18.058069 12.1973793,18.058069 C12.068,18.058069 11.9637241,17.9537931 11.9617931,17.8244138 L11.8546207,15.7726897 L11.9617931,11.5070345 C11.9637241,11.3728276 12.068,11.2704828 12.1973793,11.2704828 C12.3277241,11.2704828 12.4310345,11.3728276 12.433931,11.5070345 L12.5517241,15.7726897 L12.433931,17.8244138 L12.433931,17.8244138 Z M11.5813793,17.8369655 L11.5813793,17.8350345 C11.5775172,17.9576552 11.4809655,18.0542069 11.3602759,18.0542069 C11.2415172,18.0542069 11.144,17.9576552 11.142069,17.8369655 L11.0242759,15.7707586 L11.142069,11.3448276 C11.144,11.2222069 11.2415172,11.1256552 11.3602759,11.1256552 C11.4809655,11.1256552 11.5775172,11.2222069 11.5813793,11.3448276 L11.7097931,15.7707586 L11.5813793,17.8369655 L11.5813793,17.8369655 Z M10.7326897,17.8543448 C10.7307586,17.9673103 10.641931,18.0561379 10.5308966,18.0561379 C10.4198621,18.0561379 10.3310345,17.9673103 10.3291034,17.8562759 L10.2026207,15.7707586 L10.3291034,11.2270345 C10.3310345,11.114069 10.4198621,11.0262069 10.5308966,11.0262069 C10.641931,11.0262069 10.7307586,11.114069 10.7326897,11.2270345 L10.8755862,15.7707586 L10.7326897,17.8562759 L10.7326897,17.8543448 L10.7326897,17.8543448 Z M9.89365517,17.8688276 L9.89365517,17.8678621 C9.88786207,17.9711724 9.80675862,18.0503448 9.70827586,18.0503448 C9.60689655,18.0503448 9.5257931,17.9711724 9.52193103,17.8688276 L9.3857931,15.7707586 L9.52193103,11.3747586 C9.5257931,11.2704828 9.60689655,11.1913103 9.70827586,11.1913103 C9.80675862,11.1913103 9.88786207,11.2704828 9.89365517,11.3747586 L10.0462069,15.7707586 L9.89365517,17.8688276 L9.89365517,17.8688276 Z M9.05944828,17.890069 L9.05944828,17.8881379 C9.05462069,17.9827586 8.98027586,18.0561379 8.88951724,18.0561379 C8.79972414,18.0561379 8.72634483,17.9827586 8.72248276,17.890069 L8.57668966,15.7707586 L8.72248276,11.7136552 C8.72634483,11.62 8.79972414,11.5466207 8.88951724,11.5466207 C8.98027586,11.5466207 9.05462069,11.62 9.05944828,11.7136552 L9.22358621,15.7707586 L9.05944828,17.890069 L9.05944828,17.890069 Z M8.232,17.9035862 C8.2262069,17.9856552 8.15862069,18.0522759 8.07944828,18.0522759 C8.00027586,18.0522759 7.93172414,17.9856552 7.92786207,17.9035862 L7.77144828,15.7707586 L7.92786207,12.4686897 C7.93172414,12.3837241 8.00027586,12.3171034 8.07944828,12.3171034 C8.15862069,12.3171034 8.2262069,12.3837241 8.232,12.4686897 L8.40675862,15.7707586 L8.232,17.9035862 L8.232,17.9035862 Z M7.40937931,17.9035862 L7.40937931,17.9016552 C7.40358621,17.9769655 7.34565517,18.0348966 7.27613793,18.0348966 C7.20275862,18.0348966 7.1457931,17.9769655 7.14193103,17.9035862 L6.97586207,15.7688276 L7.14193103,13.7393103 C7.1457931,13.664 7.20275862,13.6070345 7.27613793,13.6070345 C7.34565517,13.6070345 7.40358621,13.664 7.40937931,13.7393103 L7.59862069,15.7688276 L7.40937931,17.9035862 L7.40937931,17.9035862 Z M6.59351724,17.8842759 C6.58965517,17.949931 6.53848276,17.9991724 6.47572414,17.9991724 C6.41586207,17.9991724 6.36468966,17.949931 6.35889655,17.8842759 L6.18413793,15.7688276 L6.35889655,13.5809655 C6.36468966,13.5153103 6.41586207,13.466069 6.47572414,13.466069 C6.53848276,13.466069 6.58965517,13.5153103 6.59351724,13.5809655 L6.79531034,15.7688276 L6.59351724,17.8842759 L6.59351724,17.8842759 Z M5.78634483,17.8205517 C5.78055172,17.8746207 5.73903448,17.918069 5.68593103,17.918069 C5.6337931,17.918069 5.59227586,17.8746207 5.58648276,17.8205517 L5.39917241,15.7688276 L5.58648276,13.6398621 C5.59227586,13.5809655 5.6337931,13.5413793 5.68593103,13.5413793 C5.73903448,13.5413793 5.78055172,13.5809655 5.78634483,13.6398621 L5.99682759,15.7688276 L5.78634483,17.8205517 L5.78634483,17.8205517 Z M4.98496552,17.5222069 C4.97724138,17.5695172 4.94344828,17.6033103 4.90193103,17.6033103 C4.86041379,17.6033103 4.82468966,17.5695172 4.81889655,17.5222069 L4.62289655,15.7688276 L4.81889655,13.9729655 C4.82468966,13.9256552 4.86041379,13.8918621 4.90193103,13.8918621 C4.94344828,13.8918621 4.97724138,13.9256552 4.98496552,13.9729655 L5.20703448,15.7688276 L4.98496552,17.5222069 L4.98496552,17.5222069 Z M4.24151724,16.8588966 C4.23572414,16.9052414 4.20386207,16.9361379 4.16234483,16.9361379 C4.12082759,16.9361379 4.08703448,16.9033103 4.08124138,16.8588966 L3.93641379,15.7688276 L4.08124138,14.6575172 C4.08703448,14.6121379 4.12082759,14.5802759 4.16234483,14.5802759 C4.20386207,14.5802759 4.23572414,14.6121379 4.24151724,14.6575172 L4.41531034,15.7688276 L4.24151724,16.8588966 L4.24151724,16.8588966 Z M13.945931,0 C6.244,0 0,6.24303448 0,13.9430345 C0,21.6468966 6.244,27.888 13.945931,27.888 C21.6449655,27.888 27.8889655,21.6468966 27.8889655,13.9430345 C27.8889655,6.24303448 21.6449655,0 13.945931,0 L13.945931,0 Z"></path>
                            </g>
                        </g>
                    </g>
                </g>
            </g>
        </g>
    </g>
</svg>