<?xml version="1.0" encoding="UTF-8" standalone="no"?>
<svg width="28px" height="28px" viewBox="0 0 28 28" version="1.1" xmlns="http://www.w3.org/2000/svg" xmlns:xlink="http://www.w3.org/1999/xlink" xmlns:sketch="http://www.bohemiancoding.com/sketch/ns">
    <!-- Generator: Sketch 3.3.2 (12043) - http://www.bohemiancoding.com/sketch -->
    <title>icon (steam)</title>
    <desc>Created with Sketch.</desc>
    <defs></defs>
    <g stroke="none" stroke-width="1" fill="rgb(0,0,0)" fill-rule="evenodd" sketch:type="MSPage">
        <g sketch:type="MSArtboardGroup" transform="translate(-877.000000, -3697.000000)" fill="rgb(0,0,0)">
            <g sketch:type="MSLayerGroup" transform="translate(100.000000, 3320.000000)">
                <g sketch:type="MSShapeGroup">
                    <g>
                        <g transform="translate(663.000000, 377.000000)">
                            <g transform="translate(114.000000, 0.000000)">
                                <path d="M10.4173438,20.6717241 C10.343764,20.6717241 10.268248,20.6697931 10.1907956,20.6582069 C9.64475641,20.5944828 9.22651361,20.272 8.65917499,20.0605517 L8.64174821,20.0209655 L8.59818125,20.0267586 C8.58075447,20.0171034 8.56235953,20.0113103 8.53621936,20.0093793 C8.4926524,20.0074483 8.44327651,20.0354483 8.42100896,20.0663448 L8.39099616,20.1590345 C8.39099616,20.2024828 8.41035925,20.244 8.44424467,20.272 L8.44811729,20.273931 L8.4519899,20.2835862 L8.46167145,20.2874483 C8.87797794,21.110069 9.82483317,21.5397241 10.7368348,21.5416552 C10.8181598,21.5416552 10.9014211,21.5377931 10.9827461,21.532 C11.7427475,21.4663448 12.3178313,21.1264828 12.6925072,20.6495172 C13.0691193,20.1725517 13.2482279,19.5671724 13.2482279,18.9617931 C13.2482279,18.3129655 13.042011,17.6622069 12.6353861,17.1668966 C12.2306974,16.6706207 11.6139829,16.3355862 10.831714,16.3375172 C10.625497,16.3375172 10.4076623,16.3597241 10.1811141,16.4089655 L9.74641264,16.4997241 L10.1549739,16.6735172 C10.6148473,16.8714483 11.0117907,16.9322759 11.3651672,17.1302069 C11.8928115,17.4188966 12.2578057,18.1391724 12.2558694,18.842069 C12.2558694,19.0795862 12.2142388,19.3132414 12.1290412,19.5266207 C11.8976522,20.1011034 11.2402752,20.6755862 10.4173438,20.6717241 Z M13.9646624,0 C6.69575741,0 0.716434425,5.51213793 0,12.573931 C2.95771239,13.7615172 5.92026555,14.9462069 8.86442378,16.1453793 L8.91573597,16.1675862 L8.96898447,16.1473103 C9.37754573,15.9889655 9.65734242,15.846069 10.0717126,15.7591724 C10.1452923,15.7437241 10.23049,15.7388966 10.3234328,15.7388966 C10.4163756,15.7388966 10.5160956,15.7446897 10.6206563,15.7446897 C10.7591024,15.7446897 10.9023893,15.7350345 11.044708,15.6896552 C11.1502369,15.652 11.2228484,15.5824828 11.3003008,15.4955862 C11.4135749,15.3691034 11.5249127,15.2011034 11.6294734,15.0408276 C11.7301615,14.8805517 11.8201999,14.729931 11.8792573,14.6449655 C12.5898828,13.6224828 13.348916,12.5382069 14.0275924,11.5804138 L14.04986,11.5466207 L14.0537326,11.5070345 C14.1176308,10.2586207 14.5813769,9.18013793 15.3239515,8.40482759 C16.0655579,7.62951724 17.0859929,7.15641379 18.2797275,7.12262069 C18.3310397,7.12068966 18.3813838,7.12068966 18.432696,7.12068966 C19.8278068,7.12262069 20.7378721,7.65848276 21.4543066,8.30731034 C22.23948,9.0217931 22.9423602,10.0211034 22.9442965,11.5504828 C22.9442965,11.6827586 22.9404239,11.814069 22.9288061,11.9502069 C22.7777739,13.9362759 21.2345355,15.4878621 19.4037551,15.8798621 C19.1355762,15.9416552 18.7570278,15.8837241 18.401715,15.9812414 C18.1974344,16.0401379 17.9950901,16.1868966 17.7927458,16.3433103 C17.5923377,16.5016552 17.393866,16.6773793 17.2331524,16.7922759 C16.1381695,17.5897931 15.0228554,18.4249655 13.9636942,19.1664828 L13.912382,19.2002759 L13.9046368,19.2601379 C13.7874901,20.1030345 13.4244321,20.8271724 12.879361,21.3417931 C12.3362263,21.8564138 11.6159192,22.1644138 10.7668476,22.1731034 L10.7290896,22.1731034 C9.08419488,22.1692414 7.89626915,21.1206897 7.56709657,19.6463448 L7.5516061,19.5748966 L7.48383528,19.5468966 C5.05376716,18.565931 2.61692196,17.5965517 0.179108606,16.6262069 C1.41156945,23.098069 7.11303205,27.9951724 13.9636942,27.9951724 C21.7166765,27.9951724 28,21.7270345 28,13.9971034 C28,6.26717241 21.7176446,0 13.9646624,0 Z M18.4220463,14.7656552 C20.0466097,14.7637241 21.5307908,13.5075862 21.6876318,11.9424828 C21.701186,11.816 21.7069949,11.6895172 21.7069949,11.5668966 C21.7069949,10.6071724 21.3342554,9.8057931 20.7427129,9.25158621 C20.1531067,8.69351724 19.3456658,8.38262069 18.4791674,8.38262069 C18.3862245,8.38262069 18.2923135,8.38648276 18.1974344,8.39227586 C17.2951143,8.4617931 16.7258394,8.80551724 16.2611251,9.25737931 C15.7770478,9.71793103 15.4062446,10.2586207 15.2929705,11.0503448 C15.2668303,11.2202759 15.2552125,11.3863448 15.2552125,11.5485517 C15.2571488,12.8664828 16.0326406,13.8986207 16.9514194,14.393931 C17.4287196,14.6507586 17.93216,14.7656552 18.4220463,14.7656552 Z M16.1333287,11.564 L16.1333287,11.562069 L16.1333287,11.5466207 C16.1333287,11.3448276 16.1933543,11.0638621 16.2698385,10.8166897 C16.3463227,10.5695172 16.4363611,10.3493793 16.4760555,10.2866207 C16.7771516,9.80193103 17.3270634,9.36262069 18.1587082,9.26413793 C18.2400332,9.25641379 18.3291034,9.25062069 18.42011,9.25062069 C18.7550915,9.25062069 19.1258947,9.31241379 19.3146848,9.38868966 C20.104699,9.69765517 20.8327513,10.4806897 20.8443691,11.5022069 L20.8443691,11.536 C20.8443691,12.2446897 20.5345597,12.8143448 20.066941,13.216 C19.6031949,13.6176552 18.9816396,13.8416552 18.376543,13.8416552 C18.3029632,13.8416552 18.2293835,13.8397241 18.1548356,13.832 C17.0956744,13.7325517 16.1565644,12.8838621 16.1333287,11.564 L16.1333287,11.564 Z"></path>
                            </g>
                        </g>
                    </g>
                </g>
            </g>
        </g>
    </g>
</svg>