<?xml version="1.0" encoding="UTF-8" standalone="no"?>
<svg width="30px" height="30px" viewBox="0 0 30 30" version="1.1" xmlns="http://www.w3.org/2000/svg" xmlns:xlink="http://www.w3.org/1999/xlink" xmlns:sketch="http://www.bohemiancoding.com/sketch/ns">
    <!-- Generator: Sketch 3.3.2 (12043) - http://www.bohemiancoding.com/sketch -->
    <title>Imported Layers</title>
    <desc>Created with Sketch.</desc>
    <defs></defs>
    <g stroke="none" stroke-width="1" fill="rgb(0,0,0)" fill-rule="evenodd" sketch:type="MSPage">
        <g sketch:type="MSArtboardGroup" transform="translate(-818.000000, -2595.000000)" fill="rgb(0,0,0)">
            <g sketch:type="MSLayerGroup" transform="translate(773.000000, 2594.000000)">
                <g transform="translate(45.000000, 1.000000)" sketch:type="MSShapeGroup">
                    <path d="M29.999997,14.9999985 C29.999997,23.2846645 23.2846852,30 14.9999985,30 C6.7162587,30 0,23.2846645 0,14.9999985 C0,6.7162587 6.7162587,0 14.9999985,0 C23.2846852,0 29.999997,6.7162587 29.999997,14.9999985 L29.999997,14.9999985 Z M7.38094614,8.45998978 C7.38094614,8.45998978 10.0978115,12.0628207 14.8218735,12.3112675 C14.8218735,12.3112675 14.1824986,10.1840427 16.1428109,8.55658039 C18.1040607,6.92716806 20.5303104,8.30623979 20.9953104,8.92123973 C20.9953104,8.92123973 22.3753103,8.7056335 23.3381227,8.05784919 C23.3381227,8.05784919 23.0240602,9.30095532 21.8596853,10.0500365 C21.8596853,10.0500365 23.2228102,9.86904276 23.8537476,9.50346467 C23.8537476,9.50346467 23.1890602,10.5665614 22.0434353,11.3812676 C22.0434353,11.3812676 22.5243727,15.8765609 18.6609356,19.589998 C14.7974985,23.3053214 8.43937416,22.5318727 6.14718689,20.5875261 C6.14718689,20.5875261 9.26249907,20.9371957 11.4562489,19.0668918 C11.4562489,19.0668918 8.86407099,19.0171668 8.11687419,16.5993733 C8.11687419,16.5993733 9.41249906,16.6987671 9.63656154,16.4493921 C9.63656154,16.4493921 6.84468682,15.7771672 6.82032119,12.8596675 C6.82032119,12.8596675 7.66781173,13.2834455 8.43937416,13.3087393 C8.43937416,13.3087393 5.74781193,11.3643832 7.38094614,8.45998978 L7.38094614,8.45998978 Z"></path>
                </g>
            </g>
        </g>
    </g>
</svg>