<svg width="0" height="0" style="position:absolute"><symbol viewBox="0 0 103 91" id="svg-brand"><title>icon (brand)</title><defs><path d="M7.332 90.83H.534v-3.255h3.543V3.57H.534V.317h10.34V3.57H7.332v84.005h3.542v3.254H7.332zm49.308-.123c-.51-.003-1.022-.012-1.532-.03-1.298-.047-2.593-.147-3.88-.304-3.39-.414-6.728-1.22-9.932-2.394-4.31-1.58-8.373-3.827-12.013-6.625-4.01-3.083-7.505-6.83-10.296-11.05-2.404-3.634-4.283-7.612-5.548-11.78-.697-2.293-1.207-4.64-1.525-7.014-.33-2.466-.454-4.96-.38-7.448.08-2.584.376-5.16.892-7.694.523-2.564 1.27-5.082 2.23-7.516 2.09-5.3 5.193-10.187 9.088-14.343 4.08-4.356 9.02-7.894 14.46-10.345C42.012 2.45 46.054 1.272 50.182.67 51.663.454 53.154.31 54.65.242c.706-.032 1.412-.046 2.12-.05l1.63 1.63c0 17.244.085 34.49 0 51.735 0 .13-.005.262-.01.393-.026.478-.08.953-.17 1.423-.164.837-.438 1.652-.82 2.416-.454.91-1.06 1.745-1.782 2.464-.783.78-1.7 1.424-2.7 1.9-.842.4-1.74.68-2.66.83-1.307.21-2.656.154-3.938-.182-.845-.22-1.657-.562-2.408-1.007-.657-.39-1.266-.857-1.815-1.386-.91-.876-1.656-1.917-2.17-3.07-.536-1.206-.81-2.522-.81-3.84.004-1.446.336-2.885.956-4.19.7-1.468 1.76-2.76 3.082-3.71 1.05-.753 2.25-1.283 3.512-1.554.658-.142 1.327-.21 2-.22h.094l5.222-.004.002 3.255c-1.785 0-3.57-.02-5.355.005-.11.002-.22.007-.332.014-.298.02-.594.06-.886.12-.547.11-1.078.295-1.574.55-1.273.65-2.283 1.747-2.873 3.045-.59 1.295-.754 2.776-.42 4.162.148.61.392 1.198.718 1.736.28.46.616.882.996 1.26.578.58 1.256 1.056 2.007 1.382.79.343 1.652.512 2.514.503.946-.01 1.887-.233 2.74-.64.975-.463 1.835-1.165 2.465-2.042.48-.668.82-1.432 1.002-2.236.104-.462.153-.934.16-1.407V3.48c-.21.007-.417.017-.626.027-.742.042-1.483.098-2.222.177-1.638.173-3.264.442-4.87.807-4.517 1.028-8.855 2.812-12.79 5.257-4.992 3.103-9.317 7.255-12.622 12.116-1.54 2.263-2.856 4.676-3.925 7.196-1.088 2.56-1.918 5.23-2.473 7.958-.63 3.092-.907 6.254-.836 9.41.044 1.874.208 3.747.5 5.6.576 3.652 1.646 7.223 3.168 10.59 1.338 2.96 3.02 5.763 5 8.338 2.112 2.747 4.56 5.235 7.272 7.39 2.177 1.73 4.523 3.248 6.996 4.518 2.57 1.32 5.275 2.372 8.06 3.13 5.073 1.383 10.405 1.78 15.63 1.206 2.352-.258 4.683-.715 6.96-1.368 2.653-.76 5.23-1.785 7.683-3.054 2.888-1.495 5.6-3.328 8.068-5.446 2.327-1.998 4.435-4.25 6.275-6.702 1.85-2.467 3.43-5.138 4.697-7.95 1.028-2.284 1.85-4.66 2.453-7.09.46-1.863.794-3.756.996-5.663.097-.926.16-1.854.2-2.783l.003-.066h-39.29v-3.255h40.95l1.626 1.633c-.003.606-.013 1.21-.037 1.817-.044 1.1-.127 2.2-.25 3.293-.372 3.303-1.11 6.564-2.197 9.705-1.094 3.16-2.542 6.194-4.306 9.033-1.895 3.05-4.153 5.872-6.71 8.39-2.356 2.322-4.966 4.384-7.768 6.14-2.75 1.722-5.686 3.147-8.742 4.24-3.125 1.12-6.374 1.888-9.67 2.293-1.09.134-2.185.23-3.283.284-.605.03-1.21.046-1.817.055l-.61.002zm43.793-52.353h1.51v3.255h-6.09v-3.256h1.258c-.052-.255-.105-.51-.16-.764-.043-.203-.088-.406-.134-.608-.14-.604-.293-1.205-.458-1.803l-.056-.2-.482-1.675 3.128-.9c.244.847.496 1.692.72 2.544.19.72.358 1.448.513 2.178l.253 1.226zm-5.66-7.864c-.282-.603-.56-1.207-.845-1.81-.087-.182-.176-.364-.265-.546-.27-.544-.55-1.082-.842-1.614l-.097-.177-.86-1.537 2.84-1.59c.323.578.65 1.155.97 1.735.105.192.208.384.31.576.342.645.667 1.297.978 1.956l.762 1.633-2.95 1.375zm-4.583-8.187c-.384-.492-.767-.985-1.154-1.475l-.377-.47c-.468-.567-.948-1.124-1.442-1.67l-1.15-1.254 2.4-2.198c.435.474.87.946 1.3 1.422.676.752 1.327 1.525 1.953 2.318l1.035 1.324-2.565 2.003zm-6.317-6.93c-.495-.4-.99-.8-1.486-1.198-.158-.124-.316-.248-.475-.37-.585-.45-1.18-.882-1.786-1.3l-1.37-.94L80.59 8.88c.52.354 1.04.707 1.556 1.065.712.497 1.41 1.012 2.092 1.547l.17.134.17.135 1.336 1.078-2.043 2.534zm-7.72-5.32c-.6-.287-1.198-.576-1.8-.86-.183-.086-.367-.17-.552-.255-.618-.277-1.243-.54-1.874-.79l-1.63-.634L71.48 4.48c.614.24 1.23.477 1.842.72.815.326 1.62.675 2.417 1.047l.198.093 1.624.778c-.47.978-.938 1.957-1.406 2.936zM63.57 5.866v1.17h-3.256V.88h3.255v1.69l.08.013c.894.137 1.78.3 2.664.486l1.8.39-.69 3.18c-.666-.143-1.33-.29-1.997-.432l-.612-.123c-.415-.08-.83-.152-1.246-.22z" id="aa"/></defs><use xlink:href="#aa" fill-rule="evenodd"/></symbol><symbol viewBox="0 0 219 300" id="svg-brand-stroke"><title>icon (brand)</title><path d="M175.808 260.077c-15.146 20.016-38.517 35.39-66.368 35.39C82.914 295.468 4 290.79 4 135.9 4 .3 109.89 4.205 109.89 4.205s104.578-10.152 104.578 112.03c0 143.887-88.466 156.092-107.8 156.092-19.333 0-39.01-10.953-47.06-19.12 0 0 11.347-10.297 47.27-10.297 35.92 0 32.31 8.958 42.263-1.982 9.953-10.94-10.998-14.41-42.832-14.41-24.5 0-37.732 6.595-52.888 9.48-3.66.695-10-9.923-8.24-11.66 7.55-7.456 36.318-14.594 61.62-14.594 31.2 0 43.83 5.195 56.264 5.195 12.436 0 87.75-191.573-54.23-191.573-77.6 0-80.862 81.358-80.72 114.54 17.724 3.044 17.78-1.86 18.71-12.367 3.904-41.793 11.348-82.36 61.867-82.19 108.03 0 54.79 155.538 46.06 155.538-8.732 0-10.11-5.943-48.304-5.943-27.685 0-49.272 7.555-64.747 14.665-4.375 2.008-9.135-18.646-6.626-19.26 21.34-5.23 57.39-11.714 71.644-11.714 16.482 0 28.14 2.386 38.455 2.386 10.316 0 42.496-116.878-36.63-118.443-42.743-.847-44.67 54.523-46.03 73.253-1.586 21.818-24.9 18.47-33.07 19.635-4.934.703-3.273 19.065 1.37 19.892 11.867 2.114 42.166-12.103 76.182-11.164 16.466.454 24.035.522 30.008.522 5.973 0 22.01-82.164-28.437-82.164-33.41 0-30.23 67.398-30.23 67.398s43.38 2.197 47.868-.763c4.488-2.96 7.06-46.203-17.497-46.203-14.517 0-16.174 25.974-.036 25.974" stroke-width="8" stroke-linecap="round" stroke-linejoin="round" fill="transparent" fill-rule="evenodd"/></symbol><symbol viewBox="0 0 16 13" id="svg-checkmark"><title>icon (checkmark)</title><path d="M5.02 12.996L0 8.12l1.837-1.774L4.122 8.55c.137.12.29.182.46.182.17 0 .755.123.877 0l8.028-8.736L16 1.716 5.02 12.996z" fill-rule="evenodd"/></symbol><symbol viewBox="0 0 25 25" id="svg-clock"><title>:: clock icon</title><path d="M12.5 25c-.584-.004-1.167-.04-1.746-.12-1.172-.166-2.32-.498-3.397-.986-1.418-.64-2.712-1.55-3.8-2.663-1.052-1.077-1.91-2.345-2.513-3.726-.518-1.182-.85-2.444-.98-3.728C-.073 12.41.012 11.02.32 9.68c.287-1.24.766-2.436 1.414-3.532.74-1.25 1.696-2.368 2.816-3.292.93-.768 1.973-1.402 3.085-1.872C9.12.354 10.725.02 12.34 0c1.618-.02 3.236.274 4.742.868 1.45.573 2.79 1.42 3.932 2.483 1.1 1.026 2.015 2.248 2.685 3.595.57 1.15.962 2.386 1.156 3.654.2 1.308.192 2.65-.025 3.956-.2 1.214-.583 2.397-1.13 3.5-.604 1.21-1.405 2.324-2.363 3.28-.993.995-2.153 1.82-3.418 2.43-1.064.512-2.2.872-3.364 1.065-.574.096-1.153.147-1.734.166-.16.003-.16.003-.322.004zm0-2.673c.46-.002.92-.03 1.375-.095.92-.13 1.82-.39 2.667-.773 1.946-.88 3.58-2.402 4.6-4.28.46-.844.793-1.757.986-2.7.217-1.06.257-2.158.12-3.232-.127-1.002-.41-1.983-.838-2.898-.502-1.073-1.2-2.053-2.046-2.88-.877-.856-1.912-1.548-3.04-2.025-1.168-.494-2.43-.756-3.697-.772-1.272-.016-2.544.214-3.728.68-1.142.45-2.195 1.118-3.093 1.954-.866.806-1.586 1.768-2.113 2.828-.448.902-.756 1.872-.908 2.868-.164 1.07-.15 2.17.04 3.237.163.91.456 1.797.868 2.625.492.99 1.152 1.894 1.942 2.666.763.745 1.646 1.365 2.606 1.83.872.42 1.805.708 2.76.854.413.063.828.097 1.244.11.128.003.127.003.254.003zm.207-8.108L11.37 12.88v-8.13h2.673v6.794h4.815v2.673h-6.15z" fill-rule="evenodd"/></symbol><symbol viewBox="0 0 22 22" id="svg-close"><title>icon (close)</title><path d="M12.094 10.987l9.68-9.68c.15-.15.226-.33.226-.54 0-.21-.075-.39-.226-.54-.15-.152-.33-.227-.54-.227-.21 0-.39.075-.54.226l-9.68 9.68L1.306.226C1.157.076.977 0 .767 0c-.21 0-.39.075-.54.226C.074.376 0 .556 0 .766c0 .21.075.39.226.54l9.68 9.68-9.68 9.707c-.15.15-.226.33-.226.54 0 .21.075.39.226.54.15.152.33.227.54.227.21 0 .39-.075.54-.226l9.707-9.68 9.68 9.68c.15.15.33.226.54.226.21 0 .39-.075.54-.226.152-.15.227-.33.227-.54 0-.21-.075-.39-.226-.54l-9.68-9.707z" fill-rule="evenodd"/></symbol><symbol viewBox="0 0 110 73" id="svg-cloud"><title>icon (app)</title><defs><path d="M20.548 68.747c23.01 0 46.02.215 69.03-.002.177-.002.354-.007.53-.015.833-.04 1.662-.136 2.48-.298 1.42-.28 2.802-.752 4.1-1.397 1.894-.942 3.602-2.25 5.007-3.834 1.41-1.59 2.51-3.45 3.217-5.455.442-1.257.73-2.567.856-3.893.037-.385.06-.77.07-1.157.006-.26.005-.52.005-.78-.002-.706-.044-1.41-.133-2.11-.148-1.168-.423-2.32-.818-3.43-.59-1.65-1.445-3.206-2.523-4.59-1.257-1.61-2.812-2.985-4.566-4.033-1.254-.75-2.607-1.33-4.014-1.72-.663-.186-1.336-.324-2.017-.427l-.273-.063c-.23-.09-.297-.102-.504-.242-.47-.318-.777-.84-.826-1.406-.015-.18 0-.307.01-.48.01-.172.01-.217.018-.388.007-.194.013-.387.016-.58.013-.993-.028-1.984-.135-2.97-.202-1.86-.623-3.693-1.256-5.453-1.02-2.84-2.59-5.477-4.594-7.734-1.963-2.213-4.337-4.056-6.97-5.406-1.944-.997-4.027-1.722-6.17-2.147-2.625-.52-5.338-.594-7.987-.22-1.954.274-3.872.795-5.697 1.547-.927.382-1.826.826-2.7 1.318l-.244.116c-.23.07-.286.102-.526.122-.452.04-.91-.09-1.277-.356-.136-.098-.205-.172-.316-.28l-.315-.3c-.143-.13-.285-.26-.43-.39-.76-.673-1.557-1.303-2.393-1.88-1.644-1.135-3.426-2.068-5.297-2.77-2.203-.825-4.525-1.326-6.873-1.488-2.672-.184-5.373.066-7.963.75-2.64.698-5.155 1.844-7.417 3.372-1.827 1.235-3.487 2.717-4.92 4.392-1.344 1.57-2.488 3.307-3.396 5.162-1.285 2.625-2.09 5.48-2.366 8.39-.21 2.206-.123 4.44.265 6.624.124.703.28 1.4.465 2.09.104.385.22.768.34 1.15l.063.26c.022.24.04.3.012.54-.055.45-.274.873-.61 1.177-.122.11-.2.157-.322.24-.105.072-.208.145-.31.217-.136.098-.27.198-.405.3-.532.406-1.042.84-1.523 1.308-1.023.992-1.92 2.115-2.66 3.333-.836 1.38-1.47 2.883-1.874 4.446-.644 2.49-.7 5.128-.17 7.643.274 1.298.706 2.564 1.282 3.76.784 1.627 1.835 3.123 3.097 4.416 1.45 1.484 3.175 2.695 5.065 3.55 1.372.62 2.828 1.05 4.316 1.28.733.11 1.473.17 2.215.188.11 0 .22.002.328.003zm-.006 3.793c-.87-.003-1.737-.054-2.6-.164-1.84-.234-3.65-.72-5.358-1.444-2.348-.993-4.503-2.43-6.326-4.21-1.585-1.547-2.917-3.35-3.926-5.322-.742-1.45-1.31-2.987-1.686-4.57-.78-3.287-.733-6.764.137-10.027.472-1.766 1.182-3.467 2.107-5.043.858-1.465 1.9-2.82 3.09-4.03.614-.622 1.268-1.2 1.953-1.742l.105-.082c-.068-.258-.068-.257-.133-.516-.066-.267-.065-.266-.128-.534-.08-.358-.156-.716-.224-1.077-.152-.812-.268-1.63-.35-2.452-.252-2.584-.15-5.203.308-7.758.59-3.297 1.774-6.48 3.48-9.362 2.103-3.558 4.99-6.64 8.402-8.977 2.746-1.88 5.823-3.268 9.05-4.078C31.388.414 34.45.157 37.476.385c2.653.2 5.276.774 7.767 1.708 2.16.81 4.22 1.888 6.12 3.2.92.633 1.797 1.323 2.637 2.058l.075.07c.163-.084.328-.164.492-.243.197-.093.394-.185.593-.275 1.002-.446 2.025-.84 3.072-1.166 2.14-.668 4.363-1.07 6.602-1.2 2.966-.17 5.957.133 8.825.91 2.54.688 4.977 1.745 7.218 3.125 2.82 1.74 5.32 3.985 7.35 6.6 1.74 2.24 3.132 4.748 4.108 7.41.746 2.037 1.248 4.16 1.495 6.315.12 1.05.178 2.106.18 3.162v.115c.178.042.178.043.355.087.22.056.22.056.44.116.8.227 1.585.493 2.35.813 1.647.685 3.2 1.59 4.61 2.68 1.927 1.493 3.582 3.33 4.86 5.405 1.105 1.787 1.927 3.746 2.428 5.786.388 1.585.58 3.212.583 4.843 0 .34 0 .68-.01 1.018-.017.518-.052 1.033-.108 1.547-.202 1.874-.668 3.72-1.38 5.465-.988 2.415-2.446 4.63-4.268 6.498-1.82 1.865-4 3.374-6.387 4.42-1.644.718-3.384 1.216-5.16 1.475-.936.138-1.88.206-2.827.215-22.985.072-45.97 0-68.954 0z" id="fa"/></defs><use xlink:href="#fa" fill-rule="evenodd"/></symbol><symbol viewBox="0 0 301 198" id="svg-cloud-stroke"><title>icon (cloud)</title><path d="M35.75 193.808c109.564.478 179.84-1.324 224.15-3.482 20.672-1.102 36.707-18.468 36.16-39.163-.55-20.695-17.48-37.19-38.18-37.196-.01-.006-.017-.006-.025-.006-13.815 0-14.68 25.472 1.295 25.472C291.53 139.432 272.685 4 171.66 4 55.096 4 19.015 134.13 53.73 134.13c19.17 0 17.99-23.892-4.3-23.892C6.413 110.238 4 169.388 4 184.31" stroke-width="8" stroke-linecap="round" stroke-linejoin="round" fill="transparent" fill-rule="evenodd"/></symbol><symbol viewBox="0 0 103 103" id="svg-coconut"><title>Imported Layers</title><path d="M81.282 30.918h13.98l1.034.635c.12.237.238.475.355.713.53 1.085 1.027 2.185 1.484 3.302.984 2.4 1.798 4.872 2.44 7.386 1.138 4.474 1.728 9.083 1.778 13.7.04 3.714-.264 7.432-.926 11.088-.89 4.925-2.43 9.734-4.596 14.247-1.133 2.355-2.437 4.63-3.905 6.794-1.62 2.385-3.44 4.636-5.445 6.708-1.522 1.572-3.15 3.042-4.878 4.388-.906.706-1.84 1.375-2.794 2.012l-.157.104-.638.192h-42.55c-.212-.064-.43-.114-.637-.192-.06-.022-.105-.07-.158-.104l-.317-.212c-.317-.214-.63-.432-.942-.655-.832-.594-1.645-1.217-2.435-1.866-3.523-2.892-6.61-6.3-9.198-10.048-1.522-2.206-2.87-4.53-4.04-6.94-2.122-4.373-3.65-9.028-4.568-13.8-.743-3.857-1.088-7.79-1.044-11.72.02-1.957.14-3.914.356-5.86-.078-.027-.156-.055-.233-.084-.757-.28-1.497-.607-2.214-.976-2.426-1.248-4.59-2.987-6.336-5.083-1.11-1.333-2.05-2.806-2.785-4.376C1.25 38.86.75 37.37.43 35.84c-.56-2.67-.573-5.457-.042-8.135.5-2.516 1.482-4.928 2.88-7.078 1.35-2.08 3.082-3.906 5.085-5.368 1.825-1.332 3.872-2.356 6.033-3.015 1.914-.583 3.914-.876 5.915-.876 2.085 0 4.167.318 6.153.95 2.58.82 4.983 2.163 7.038 3.922 2.293 1.962 4.14 4.43 5.366 7.187.817 1.834 1.357 3.79 1.597 5.783.07.566.113 1.135.134 1.705h31.418l2.776-10.52.297-.517L94.56.19 95.96 0l5.92 3.417.243 1.818-19.14 19.312-1.7 6.37zM21.448 27.22c.362.095.713.233 1.042.412.582.316 1.093.76 1.49 1.29.31.415.552.885.706 1.382.057.182.1.366.135.553l.012.06H38.27c-.007-.172-.017-.345-.03-.518-.05-.68-.132-1.355-.256-2.024-.236-1.27-.61-2.514-1.113-3.704-.845-1.998-2.056-3.838-3.553-5.41-1.52-1.593-3.33-2.906-5.322-3.85-1.533-.728-3.17-1.236-4.845-1.503-1.994-.32-4.044-.3-6.032.055-2.06.37-4.05 1.103-5.86 2.157-1.992 1.163-3.756 2.71-5.17 4.532-1.452 1.87-2.53 4.023-3.15 6.307-.66 2.437-.796 5.01-.406 7.504.215 1.374.59 2.722 1.117 4.01.538 1.315 1.234 2.565 2.068 3.717 1.345 1.862 3.047 3.462 4.988 4.69.55.348 1.12.666 1.704.952.32.157.647.303.976.442.134.055.268.11.403.163.032-.213.066-.426.1-.64l.042-.243.052-.307.037-.21.03-.158c.086-.482.18-.96.28-1.44.027-.136.056-.273.085-.41.056-.258.113-.517.172-.775l.002-.008v-.005l.004-.013.003-.017.005-.02.005-.02v-.006l.002-.003c.108-.472.223-.942.344-1.41.66-2.548 1.495-5.048 2.507-7.477l-.18-.15c-.062-.054-.12-.11-.18-.166-.33-.325-.615-.693-.837-1.102-.115-.212-.213-.433-.294-.66h-5.352v-2.315h5.157c.034-.196.08-.39.14-.58.132-.426.328-.832.578-1.202.288-.425.648-.802 1.06-1.11.446-.335.954-.587 1.49-.74l.09-.023V22.14h2.315v5.08zm-5.543 22.79c-.287 2.21-.442 4.44-.467 6.668-.042 3.773.29 7.55 1.003 11.257.88 4.573 2.344 9.035 4.377 13.226 1.036 2.135 2.218 4.198 3.543 6.166 1.502 2.23 3.187 4.34 5.042 6.288 1.437 1.508 2.976 2.92 4.608 4.214.807.64 1.637 1.25 2.487 1.832l.315.212h41.85c.207-.137.41-.277.615-.418.795-.555 1.573-1.134 2.33-1.74 1.677-1.34 3.253-2.804 4.72-4.37 1.843-1.965 3.513-4.09 5-6.335 1.31-1.98 2.48-4.056 3.5-6.2 2.033-4.274 3.478-8.823 4.32-13.48.623-3.442.918-6.943.892-10.44-.034-4.503-.6-9-1.71-13.364-.615-2.41-1.395-4.78-2.338-7.08-.44-1.07-.914-2.122-1.42-3.16l-.025-.052H79.092l-6.196.007-.005-.006H20.93c-.12.246-.24.494-.357.742-.336.72-.66 1.444-.965 2.177l-.152.367-.038.093c-.29.722-.57 1.448-.83 2.182-.2.565-.392 1.133-.573 1.705v.003l-.067.21-.004.01-.017.058-.003.012-.02.068-.022.067-.005.015-.015.05-.006.02-.016.05-.005.017-.02.064-.003.014-.015.05-.007.024-.013.044-.007.023-.016.05-.005.014-.02.063-.006.024-.013.042-.008.027-.013.04-.007.025-.02.06-.005.023-.013.043-.007.028-.012.04-.008.026-.013.046-.005.02-.018.06-.008.026-.012.04-.008.028-.012.042-.006.023-.018.062-.005.017-.013.048-.006.024-.012.043-.006.023-.015.054-.003.012-.02.065-.003.016-.013.05-.006.02-.013.053-.004.013-.02.068-.017.068-.004.014-.015.057-.003.01-.018.068-.02.073v.002l-.018.068-.002.007-.094.36c-.24.936-.457 1.88-.648 2.827l-.002.01-.01.05-.005.024-.006.03-.004.023-.01.047v.003c-.13.653-.246 1.31-.352 1.967-.087.547-.166 1.094-.24 1.643zM5.74 33.198v-2.315h2.784v2.315H5.74zm12.725-.183c.203-.43.412-.86.625-1.286l.09-.177 1.033-.635h2.238c-.058-.166-.135-.326-.23-.475-.188-.292-.443-.54-.74-.722-.27-.163-.575-.27-.888-.31-.306-.04-.62-.016-.915.068-.283.08-.55.217-.78.4-.217.17-.402.377-.544.612-.125.205-.217.43-.27.664-.116.497-.06 1.03.16 1.49.06.13.136.255.222.37zM74.4 30.918h4.486l.79-2.963-4.23-1-1.046 3.963zm1.637-6.203l4.237 1.002.55-2.064.297-.517.962-.97-3.466-2.57-1.675 1.693-.903 3.425zm-56.905-3.653v-3.236h2.315v3.236h-2.315zm61.13-3.13l3.466 2.573L99.42 4.67l-3.843-2.218-15.316 15.48z" fill-rule="evenodd"/></symbol><symbol viewBox="0 0 107 96" id="svg-commerce"><title>icon (commerce)</title><defs><path d="M33.137 81.157c-.095.03-.19.064-.284.1-.65.247-1.253.618-1.768 1.087-.498.452-.913.993-1.22 1.592-.25.487-.426 1.01-.522 1.55-.108.606-.116 1.232-.023 1.84.08.52.234 1.03.456 1.507.523 1.12 1.42 2.05 2.52 2.614.467.238.967.41 1.48.51.256.048.513.077.77.092.097.003.193.005.29.006.262-.002.523-.018.782-.054.522-.073 1.033-.22 1.513-.438.635-.287 1.213-.693 1.7-1.19.47-.482.852-1.048 1.122-1.665.22-.506.365-1.044.428-1.592.073-.634.037-1.282-.106-1.904-.123-.53-.325-1.043-.596-1.515-.593-1.034-1.518-1.863-2.61-2.34-.088-.04-.18-.077-.27-.11v8.05h-3.66v-8.143zM82.9 81.2c-.05.02-.102.037-.152.057-.652.247-1.254.618-1.77 1.087-.497.452-.912.993-1.218 1.592-.26.507-.44 1.055-.534 1.618-.1.61-.1 1.234 0 1.843.085.518.245 1.024.473 1.497.526 1.093 1.41 2 2.49 2.553.467.238.967.41 1.482.51.254.048.51.077.77.092.095.003.19.005.288.006.262-.002.523-.018.783-.054.52-.073 1.032-.22 1.513-.438 1.043-.472 1.93-1.268 2.512-2.254.29-.488.502-1.02.63-1.573.15-.645.18-1.317.098-1.975-.07-.546-.22-1.08-.448-1.583-.277-.614-.666-1.175-1.142-1.65-.492-.492-1.075-.892-1.712-1.17-.133-.06-.267-.11-.403-.158v8.1H82.9v-8.1zM18.955 28.793l4.027 38.354c21.56 0 43.12.122 64.682 0 .097-.002.194-.005.292-.01.853-.042 1.695-.203 2.5-.494 1.13-.407 2.167-1.057 3.03-1.892.665-.643 1.224-1.395 1.648-2.217.274-.532.49-1.093.647-1.67.077-.284.137-.57.186-.86l5.108-31.21h-82.12zm-.464-4.422l.1.76h83.083l.607-3.705H18.182l.31 2.945zm23.713 56.526c.35.46.655.953.913 1.47.422.85.712 1.766.855 2.705.148.968.142 1.96-.018 2.925-.148.898-.43 1.773-.836 2.588-.43.864-.994 1.658-1.668 2.348-.75.77-1.636 1.408-2.605 1.875-.82.395-1.7.668-2.602.805-.386.06-.776.09-1.167.104l-.237.003c-.393-.003-.785-.025-1.175-.074-.906-.116-1.795-.367-2.628-.744-.846-.383-1.633-.894-2.328-1.51-.858-.763-1.573-1.684-2.097-2.706-.397-.775-.682-1.606-.846-2.46-.183-.962-.214-1.953-.09-2.923.12-.944.387-1.868.79-2.73.297-.637.667-1.238 1.1-1.79-.51-.082-1.015-.207-1.505-.373-1.09-.37-2.11-.944-2.99-1.685-1.07-.897-1.93-2.035-2.5-3.308-.263-.588-.464-1.204-.6-1.833-.068-.32-.118-.643-.155-.97l-.8-7.52.074-.007-3.81-36.29v-.015l-.42-3.98L12.62 7.602h-1.565c-.054.155-.115.308-.182.457-.497 1.1-1.355 2.022-2.415 2.598-.52.282-1.086.48-1.668.585-.23.04-.463.065-.697.08-.143.005-.142.005-.285.007-.236-.003-.47-.015-.705-.045-.546-.07-1.08-.22-1.582-.447-.61-.276-1.168-.663-1.64-1.136C1.405 9.23 1.02 8.67.742 8.06.517 7.56.366 7.024.296 6.48.226 5.917.24 5.346.338 4.79c.097-.54.273-1.063.523-1.55.572-1.114 1.52-2.018 2.66-2.534.674-.304 1.407-.47 2.146-.49C6.41.2 7.154.33 7.846.603c.624.246 1.202.606 1.7 1.058.493.45.905.988 1.21 1.582.115.227.216.46.3.7h3.172l1.815 1.595 1.59 12.228h86.8l1.807 2.126c-2.228 13.616-4.383 27.244-6.685 40.847-.066.363-.144.723-.24 1.08-.223.827-.534 1.63-.927 2.392-.687 1.332-1.62 2.534-2.742 3.53-1.22 1.08-2.655 1.914-4.2 2.433-.81.273-1.65.46-2.5.556-.413.046-.826.07-1.24.076-21.474.122-42.95.008-64.423 0 .058.517.118 1.032.183 1.547.08.582.24 1.15.494 1.68.344.725.846 1.37 1.46 1.887.533.45 1.15.797 1.81 1.02.58.197 1.19.29 1.803.295H96.09v3.66h-3.99c.348.46.654.954.912 1.472.422.85.71 1.765.855 2.703.153 1.006.14 2.037-.038 3.04-.173.967-.503 1.907-.972 2.77-.922 1.7-2.378 3.086-4.118 3.924-.82.396-1.7.67-2.602.806-.387.06-.776.09-1.167.104l-.238.003c-.393-.003-.785-.025-1.175-.074-.907-.116-1.796-.367-2.63-.744-.912-.414-1.757-.977-2.49-1.66-.76-.706-1.398-1.54-1.882-2.457-.424-.803-.727-1.67-.898-2.56-.184-.96-.215-1.952-.09-2.922.12-.944.386-1.868.788-2.73.277-.592.616-1.154 1.01-1.674h-35.16z" id="ia"/></defs><use xlink:href="#ia" fill-rule="evenodd"/></symbol><symbol viewBox="0 0 268 214" id="svg-commerce-stroke"><title>icon (e-comerce)</title><path d="M23.753 21.663H12.866C7.97 21.663 4 17.71 4 12.833v-.002C4 7.955 7.97 4 12.866 4H27.26c4.268 0 7.9 3.1 8.55 7.304l21.35 137.584c1.032 6.655 6.774 11.57 13.533 11.585l174.816.403c9.013 5.648 24.096-114.206 15.384-119.664-67.695-10.08-134.688-11.106-200.81-.865-2.737 1.77 14.156 105.21 23.21 151.48 2.01 10.277 10.61 17.915 21.102 17.254 9.934-.626 17.667-8.833 17.667-18.746V179.14c22.46-3.864 44.92-5.777 67.386 0v10.028c0 9.312 7.577 16.86 16.925 16.86s16.927-7.548 16.927-16.86v-11.804s15.658-1.834 20.98-1.245" stroke-width="8" stroke-linecap="round" stroke-linejoin="round" fill="transparent" fill-rule="evenodd"/></symbol><symbol viewBox="0 0 78 95" id="svg-document"><title>Imported Layers</title><path d="M1.158 94.94L0 93.783V1.158L1.158 0H76.03l1.157 1.158v92.625L76.03 94.94H1.158zm1.158-2.315h72.556V2.315H2.316v90.31zm64.13-9.426v-2.316h2.425V83.2h-2.423zm-11.577 0v-2.316h4.63V83.2h-4.63zm-11.58 0v-2.316h4.633V83.2H43.29zm-11.577 0v-2.316h4.63V83.2h-4.63zm-11.578 0v-2.316h4.63V83.2h-4.63zm-6.9-2.376l-2.004 2.15-1.693-1.58 2.115-2.267-2.115-2.268 1.694-1.58 2.005 2.15 2.005-2.15 1.693 1.58-2.114 2.267 2.113 2.267c-.564.526-1.13 1.053-1.693 1.58l-2.005-2.15zm-3.05-28.115v-2.317h57.287v2.316H10.186zm0-9.996v-2.316h57.287v2.316H10.186zm0-9.483v-2.314h57.287v2.315H10.186zm17.92-9.737v-2.316h39.587v2.316H28.106zm-16.488-.006L10.46 22.33V9.407l1.157-1.158H23.67l1.156 1.158v12.92l-1.157 1.16H11.616zm1.158-2.316h9.736V10.567h-9.735V21.17z" fill-rule="evenodd"/></symbol><symbol viewBox="0 0 30 30" id="svg-dribbble-icon"><title>Imported Layers</title><path d="M30 15c0 8.284-6.716 15-15 15-8.284 0-15-6.716-15-15C0 6.716 6.716 0 15 0c8.284 0 15 6.716 15 15zM15 6.175c-4.874 0-8.826 3.95-8.826 8.825 0 4.874 3.952 8.825 8.826 8.825 4.873 0 8.824-3.95 8.824-8.825 0-4.874-3.95-8.825-8.824-8.825zm0 16.28c-1.766 0-3.39-.616-4.667-1.643.333-.506 1.297-1.835 2.897-3.003.95-.695 1.95-1.21 2.995-1.55.636 1.666 1.21 3.552 1.617 5.633-.875.36-1.834.56-2.842.56zm4.202-1.297c-.406-1.934-.946-3.694-1.53-5.247 1.483-.242 3.05-.153 4.688.268-.327 2.065-1.503 3.847-3.158 4.98zM7.546 15c0-.08 0-.16.004-.24.086.002.19.003.31.003 1.27 0 4.32-.105 7.3-.995.172.362.342.738.51 1.13-1.338.444-2.444 1.084-3.312 1.716-1.577 1.152-2.6 2.44-3.096 3.145-1.07-1.293-1.716-2.95-1.716-4.76zm14.9-.323c-2.01-.476-3.79-.456-5.33-.158-.182-.434-.365-.846-.55-1.237 1.648-.652 3.18-1.59 4.26-2.933.956 1.196 1.55 2.693 1.62 4.327zM11.832 8.25c.374.473 1.464 1.92 2.654 4.17-2.797.783-5.677.863-6.74.862.527-2.232 2.056-4.077 4.086-5.03zM15 7.547c1.82 0 3.488.653 4.782 1.737-.924 1.226-2.33 2.08-3.87 2.67-.17-.33-.335-.636-.495-.92-.86-1.544-1.636-2.657-2.112-3.293.544-.127 1.112-.194 1.695-.194z" fill-rule="evenodd"/></symbol><symbol viewBox="0 0 30 30" id="svg-facebook-icon"><title>Imported Layers</title><path d="M30 15c0 8.285-6.716 15-15 15-8.285 0-15-6.715-15-15C0 6.716 6.715 0 15 0c8.284 0 15 6.716 15 15zm-19.505-2.32h2.668v-2.473s-.112-1.616 1.114-2.842c1.226-1.226 2.877-1.11 5.228-.906v2.76h-1.738s-.73-.016-1.073.378c-.343.395-.306.957-.306 1.096v1.986h3.014l-.387 3.074h-2.643v7.917h-3.197v-7.93h-2.68v-3.06z" fill-rule="evenodd"/></symbol><symbol viewBox="0 0 30 30" id="svg-medium-icon"><title>Imported Layers</title><path d="M30 15c0 8.285-6.716 15-15 15-8.284 0-15-6.715-15-15C0 6.716 6.716 0 15 0c8.284 0 15 6.716 15 15zM9.597 10.372h4.31l1.48 5.25 1.38-5.25h4.51v1.48H20.6l-.27.27v5.755s.136.437.405.437h.54v1.314h-4.14V18.35h.773v-6.027l-2.22 7.305h-1.482l-1.918-7.17v5.925h.773v1.245H9.597V18.35h.538s.506-.036.54-.44v-5.855s-.168-.37-.674-.404h-.403v-1.278z" fill-rule="evenodd"/></symbol><symbol viewBox="0 0 75 103" id="svg-mobile"><title>Icon (mobile)</title><defs><path d="M17.827 102.246H3.687c-.115-.003-.14 0-.26-.014-.234-.024-.464-.08-.684-.16-.78-.296-1.396-.943-1.664-1.73-.074-.214-.12-.435-.142-.658-.01-.117-.01-.14-.012-.25V3.002c.002-.11 0-.133.012-.25.02-.223.068-.444.14-.657.27-.788.884-1.436 1.666-1.73.22-.082.45-.137.683-.16.12-.014.144-.012.26-.015h68.515c.115.003.14 0 .26.014.233.024.463.08.683.16.78.295 1.396.942 1.664 1.73.072.214.12.435.14.66.01.113.01.138.013.248v96.432c-.003.11-.002.135-.013.25-.02.223-.068.445-.14.657-.27.79-.884 1.436-1.665 1.73-.22.083-.45.138-.683.162-.12.013-.145.01-.26.014H57.99V98.58h13.306V3.855H4.593V98.58h13.234v3.666zm5.922 0c-.113-.002-.14 0-.257-.013-.23-.023-.46-.074-.677-.152-.792-.283-1.428-.92-1.712-1.712-.078-.218-.13-.445-.152-.675-.013-.12-.01-.143-.014-.26V46.656c.003-.115 0-.137.014-.258.022-.23.074-.457.152-.675.284-.792.92-1.43 1.713-1.713.218-.08.445-.13.675-.153.118-.012.144-.01.257-.013h28.39c.113.002.137 0 .256.013.23.023.458.074.676.152.792.283 1.43.92 1.713 1.712.078.218.13.445.152.675.012.12.01.143.013.258v52.78c-.002.115 0 .138-.013.258-.023.23-.074.457-.152.675-.284.792-.92 1.43-1.713 1.713-.218.08-.446.13-.676.153-.118.012-.144.01-.257.013H23.75zm14.194-5.634c-.142-.003-.282-.01-.424-.032-.274-.042-.54-.125-.79-.245-.527-.254-.968-.674-1.246-1.187-.132-.242-.227-.504-.283-.774-.055-.277-.07-.564-.04-.846.027-.277.097-.55.206-.807.123-.29.295-.557.507-.79.24-.266.533-.484.856-.64.334-.16.7-.255 1.072-.273.375-.02.753.037 1.105.167.34.124.653.314.92.557.402.366.693.848.83 1.374.07.274.097.558.083.84-.014.28-.07.558-.167.82-.11.298-.268.576-.47.82-.227.276-.508.508-.822.68-.242.13-.503.226-.773.28-.14.03-.28.044-.42.055-.047 0-.095 0-.143.002zm0-1.93c.132-.004.26-.03.378-.088.1-.048.19-.115.265-.196.075-.084.134-.18.172-.286.034-.096.053-.198.053-.3 0-.087-.014-.174-.04-.257-.107-.345-.425-.592-.785-.61-.102-.005-.204.008-.302.038-.345.108-.59.426-.61.787-.004.087.005.174.027.26.025.095.066.187.122.27.062.09.14.17.232.232.12.08.257.126.4.145.044.003.043.003.087.004zm-13.34-8.802v12.7h26.68V47.51h-26.68v18.7h-.117v19.67h.118zm13.757-32.214V50h6.286v3.666H38.36zm-5.692 0V50h3.922v3.666h-3.922zM35.56 9.582V5.915h4.768v3.667H35.56z" id="oa"/></defs><use xlink:href="#oa" fill-rule="evenodd"/></symbol><symbol viewBox="0 0 192 267" id="svg-mobile-stroke"><title>responsive</title><path d="M26.688 262.935H5.628C4.785 183.893 3.81 9.922 4.033 4h180.13c3.352 93.443 2.2 170.675 3.074 256.715-51.303 2.45-91.948 3.36-146.322 0-2.017-52.525-.22-107.777-.016-168.51.012-4.14 3.37-7.488 7.51-7.488H157.25c.053 0 .106.006.158.02 4.186 2.42 1.97 156.94-.065 157.024-79.047 3.21-66.856-23.465-48.58-23.465 13.99 0 11.96 23.917-49.414 23.917-1.99-40.092-1.208-81.477 0-126.132h80.878c2.65 35.815 2.583 68.402 0 98" stroke-width="8" stroke-linecap="round" stroke-linejoin="round" fill="transparent" fill-rule="evenodd"/></symbol><symbol viewBox="0 0 99 73" id="svg-paper-jet"><title>Imported Layers</title><path d="M22.044 68.247L33.962 57.42 22.16 47.864l-.116 20.383zm-5.336-26.335l3.075 16.69.082-14.424.873.004L68.082 16.93 16.708 41.91zM36.516 56.51l10.32 8.355L93.13 5.183 22.99 45.558l12.706 10.287.12-.108.7.772zM15.293 40.025l64.74-31.484-76.05 26.03 11.31 5.454zm20.49 18.87l-14.973 13.6-1.557-1.713.36-.326-5.212-28.29L.438 35.433l.128-2.14L96.98.296l.09-.053.015.017.01-.005.012.028 1.456 1.672L47.94 67.218l-1.642.19-10.515-8.513z" fill-rule="evenodd"/></symbol><symbol viewBox="0 0 176 142" id="svg-quotes"><title>‘</title><path d="M94.653 17.244c-8.16 4.167-15.758 8.378-22.79 12.632s-13.066 8.465-18.1 12.632c-5.905 5.035-10.767 10.418-14.587 16.148-3.82 5.73-7.118 13.11-9.897 22.138h11.2c10.938 0 18.795 2.69 23.57 8.074 4.775 5.383 7.162 11.373 7.162 17.97 0 8.336-3.212 16.28-9.637 23.832C55.15 138.224 46.382 142 35.27 142c-11.807 0-20.532-3.3-26.176-9.897C3.45 125.505.63 116.823.63 106.058c0-14.065 3.038-26.827 9.116-38.286 6.077-11.46 13.717-21.705 22.92-30.734 9.028-8.68 18.448-15.887 28.258-21.617C70.734 9.69 79.374 4.83 86.84.837l7.813 16.408zm81.347 0c-8.16 4.167-15.757 8.378-22.79 12.632-7.032 4.254-13.065 8.465-18.1 12.632-5.904 5.035-10.766 10.418-14.586 16.148-3.82 5.73-7.12 13.11-9.897 22.138h11.2c10.938 0 18.795 2.69 23.57 8.074 4.775 5.383 7.162 11.373 7.162 17.97 0 8.336-3.213 16.28-9.637 23.832-6.425 7.554-15.193 11.33-26.306 11.33-11.807 0-20.532-3.3-26.175-9.897-5.643-6.598-8.465-15.28-8.465-26.045 0-14.065 3.04-26.827 9.116-38.286 6.077-11.46 13.717-21.705 22.92-30.734 9.03-8.68 18.448-15.887 28.26-21.617 9.81-5.73 18.447-10.59 25.913-14.584L176 17.244z" fill-rule="evenodd"/></symbol><symbol viewBox="0 0 134 95" id="svg-screen"><title>apple love</title><path d="M82.743 79.97c.028.613.073 1.226.143 1.836.202 1.758.592 3.5 1.22 5.157.215.57.46 1.13.732 1.673.095.188.193.375.295.56.065.117.133.233.196.352l.075.156c.186.417.296.862.312 1.318.013.358-.03.717-.126 1.062-.144.517-.41 1-.77 1.397-.33.364-.736.655-1.185.85-.403.177-.834.27-1.272.29h-.112c-6.55 0-13.1 0-19.65-.002-2.618 0-5.236-.002-7.854-.005-1.092 0-2.183.004-3.275-.005-.057 0-.115-.004-.172-.007-.436-.032-.86-.14-1.255-.326-.46-.22-.868-.538-1.19-.93-.303-.37-.528-.803-.657-1.264-.09-.325-.134-.664-.127-1.002.008-.452.106-.903.288-1.317.1-.23.232-.445.352-.666.06-.112.12-.225.177-.338.273-.542.52-1.095.74-1.66.587-1.513.978-3.097 1.205-4.702.118-.834.19-1.673.226-2.514v-.005c-15.563-.066-31.126-.14-46.69-.14-.14-.002-.283-.008-.424-.022-.316-.032-.628-.1-.93-.202-.518-.174-1.002-.452-1.416-.81-.516-.448-.922-1.02-1.172-1.654-.13-.327-.217-.67-.26-1.017-.02-.145-.028-.288-.034-.432-.297-23.707 0-47.42 0-71.128 0-.143.007-.284.02-.426.033-.316.1-.628.202-.928.198-.584.524-1.122.95-1.568.424-.445.944-.796 1.516-1.022.326-.128.67-.216 1.017-.26.143-.02.286-.028.43-.033 41.717-.523 83.44 0 125.16 0 .142 0 .284.006.426.02.316.033.628.1.928.202.52.176 1.004.453 1.42.812.515.447.92 1.018 1.17 1.653.13.327.217.67.26 1.018.02.143.028.286.034.43.29 23.708 0 47.42 0 71.128 0 .143-.006.284-.02.426-.033.316-.1.628-.202.93-.187.55-.488 1.06-.88 1.492-.436.48-.982.858-1.585 1.096-.327.13-.67.216-1.018.26-.144.02-.287.028-.43.033-15.596.2-31.19.252-46.787.237zm-29.37-.086c-.024.653-.07 1.304-.14 1.953-.204 1.912-.614 3.805-1.267 5.615-.256.71-.55 1.41-.883 2.088-.127.26-.26.52-.4.774-.062.114-.13.224-.188.34-.02.04-.035.08-.05.123-.047.142-.068.29-.06.44.027.433.305.822.703.988.134.056.277.084.42.088 1.08.008 2.16.003 3.24.004 2.618.003 5.235.004 7.853.005l12.67.003c2.346 0 4.692.098 7.034 0 .045-.004.09-.008.134-.015.143-.026.28-.075.405-.15.285-.17.485-.464.543-.79.02-.12.023-.24.007-.357-.02-.146-.067-.284-.138-.413-.074-.13-.146-.26-.217-.39-.313-.582-.598-1.178-.852-1.788-.7-1.68-1.172-3.45-1.454-5.247-.152-.972-.25-1.952-.297-2.935l-.01-.253c-9.018-.012-18.035-.045-27.052-.083zM4.383 77.42c41.696 0 83.395.534 125.087-.002.05-.002.1-.005.15-.01.19-.02.374-.066.55-.14.49-.207.88-.617 1.063-1.116.072-.197.108-.403.116-.612.29-23.703.29-47.41 0-71.114-.008-.194-.04-.384-.102-.568-.18-.533-.597-.97-1.12-1.177-.21-.082-.432-.123-.658-.132-41.71-.523-83.432-.523-125.144 0-.21.008-.415.044-.613.116-.513.188-.932.597-1.133 1.106-.083.21-.124.43-.132.657-.298 23.702-.298 47.41 0 71.113.008.225.05.446.132.657.195.493.596.894 1.09 1.09.178.07.365.11.557.126.052.004.104.005.157.006zm3.822-4.905l-1.158-1.158V8.61L8.205 7.45H125.59l1.16 1.157v62.747l-1.16 1.158H8.206zM9.363 70.2h115.07V9.766H9.363V70.2zm83.742-17.903c-.252-.003-.5-.056-.726-.166-.17-.08-.326-.19-.46-.323-.113-.114-.21-.244-.287-.386-.254-.468-.268-1.043-.037-1.523.07-.145.16-.28.27-.4.144-.16.32-.29.513-.382.2-.097.418-.153.64-.164.224-.01.45.024.66.1.178.066.344.16.49.28.144.12.268.264.366.424.277.456.318 1.03.11 1.52-.062.15-.147.29-.25.414-.136.165-.304.304-.493.406-.208.113-.435.177-.67.198-.043.003-.085.004-.128.005zm-9.814-.14c-.01.006-.02.012-.03.02-.4.24-.824.44-1.266.588-.506.17-1.032.275-1.564.312-.25.018-.503.024-.753.003-.303-.025-.602-.088-.89-.186-.158-.053-.312-.118-.462-.19-.947-.465-1.68-1.274-2.245-2.147-.104-.16-.202-.323-.297-.488l-.045-.082c-.088.11-.178.22-.268.33-.08.096-.16.19-.24.282-.16.18-.322.356-.49.526-.137.137-.276.27-.42.4-.805.72-1.77 1.33-2.86 1.482-.133.018-.267.03-.402.033-.234.008-.47-.01-.7-.05-.293-.05-.58-.137-.85-.257-.397-.175-.762-.415-1.09-.696-.545-.464-.988-1.03-1.375-1.628l-.006-.01-.2.247c-.08.092-.08.09-.158.182-.235.26-.48.513-.745.746-.56.493-1.197.904-1.9 1.16-.383.138-.783.23-1.188.268-.368.035-.74.024-1.11 0-.863-.06-1.72-.247-2.52-.586-.367-.155-.717-.342-1.053-.556l-.074-.05-.04-.025c-.09.054-.18.105-.273.157-.694.378-1.428.678-2.195.872-.563.143-1.14.23-1.72.257-.38.02-.762.02-1.134-.067-.223-.052-.438-.135-.635-.252-.134-.08-.26-.175-.372-.283-.077-.075-.15-.158-.215-.246-.392-.526-.505-1.2-.512-1.842-.002-.107 0-.215.004-.323.006-.133.014-.265.026-.397.015-.182.036-.363.06-.544.04-.283.086-.565.138-.845.063-.34.133-.68.204-1.02.105-.493.213-.986.316-1.48.05-.243.1-.487.146-.732.052-.283.102-.567.144-.852.033-.223.06-.448.083-.674.016-.17.028-.34.035-.51.006-.138.008-.276.006-.415-.002-.092-.006-.185-.013-.277-.005-.087-.013-.174-.024-.26-.057-.43-.185-.88-.5-1.198-.064-.066-.136-.125-.213-.176-.14-.094-.292-.162-.45-.212-.302-.097-.62-.133-.936-.142-.397-.01-.794.03-1.178.13-.53.14-1.02.39-1.462.71-.77.558-1.383 1.31-1.894 2.104-.307.477-.58.977-.825 1.488-.425.883-.77 1.8-1.067 2.733l-.05.16-.028.09c-.113.577-.223 1.153-.332 1.73-.098.522-.195 1.046-.29 1.57-.066.355-.127.712-.196 1.067-.02.093-.038.186-.06.28-.028.105-.058.208-.105.307-.03.067-.075.122-.12.18l-.002.004c-.057.058-.057.058-.12.11l-.003.002c-.026.018-.052.037-.08.053-.075.043-.097.046-.178.074h-.004l-.098.02-.1.008c-.1-.006-.1-.006-.197-.024h-.002c-.077-.025-.098-.028-.17-.066-.072-.038-.087-.054-.15-.104l-.003-.002c-.08-.082-.08-.082-.146-.174l-.003-.004c-.036-.066-.073-.135-.09-.21-.007-.035-.02-.088-.025-.127-.02-.185-.003-.376.016-.56.023-.234.054-.467.09-.7.192-1.287.495-2.56.867-3.807.1-.51.204-1.02.307-1.53.474-2.297.985-4.587 1.565-6.86l.032-.128c-.126.088-.126.088-.253.174l-.292.19c-.533.335-1.083.643-1.667.882-.368.15-.75.273-1.14.35-.21.04-.424.066-.637.074-.082.003-.166.007-.248-.005-.076-.01-.15-.033-.22-.065-.07-.033-.135-.076-.192-.128-.202-.184-.293-.468-.234-.735.016-.076.044-.148.082-.215.037-.068.085-.13.14-.182.113-.106.257-.177.41-.2.094-.016.192-.01.287-.017.06-.004.12-.01.178-.02.342-.052.672-.155.992-.286.312-.127.614-.28.908-.445.903-.51 1.73-1.148 2.515-1.822l.05-.044.214-.724c.074-.247.15-.493.227-.74.292-.93.603-1.853.956-2.76.235-.606.487-1.205.77-1.79.244-.507.51-1.005.822-1.476.25-.38.532-.748.865-1.062.36-.34.79-.618 1.28-.716.168-.033.337-.043.507-.034.41.02.817.154 1.114.446.078.078.147.164.205.257.077.125.135.26.175.403.057.207.073.424.062.638-.014.273-.07.543-.15.804-.11.377-.267.74-.44 1.092-.226.455-.484.894-.758 1.32-.344.533-.715 1.048-1.103 1.548-1.012 1.305-2.142 2.516-3.36 3.627l-.028.024c-.372 1.314-.708 2.636-1.027 3.962l-.075.32c.07-.088.14-.174.213-.26.06-.07.122-.14.184-.21.227-.248.464-.486.718-.707.528-.46 1.12-.847 1.77-1.114.286-.118.582-.212.884-.28.25-.058.5-.097.754-.12.227-.018.454-.023.68-.017.792.022 1.604.19 2.26.654.122.085.236.18.343.28.138.134.263.28.373.438.174.25.308.526.408.813.13.376.2.77.232 1.165.042.51.022 1.022-.026 1.53-.07.713-.194 1.42-.336 2.123-.14.693-.294 1.383-.44 2.075-.046.23-.092.462-.135.694-.04.216-.077.432-.11.65-.022.158-.043.318-.06.48-.01.11-.02.22-.025.33-.006.102-.008.204-.01.306 0 .075.003.15.007.226.004.055.008.11.014.165.006.05.013.1.022.148.04.223.117.475.334.585.187.095.41.1.616.096.2-.003.4-.014.6-.033.363-.035.722-.098 1.074-.187.56-.142 1.098-.352 1.612-.613-.05-.055-.1-.112-.147-.17-.235-.282-.45-.58-.64-.893-.505-.83-.844-1.755-1.025-2.707-.08-.43-.13-.864-.148-1.3-.014-.35-.008-.702.02-1.052.02-.266.053-.53.098-.793.036-.207.08-.414.13-.618.31-1.226.92-2.41 1.882-3.25.15-.13.31-.253.476-.365.252-.17.522-.316.803-.432.216-.09.44-.162.666-.216.34-.083.69-.125 1.043-.13.373-.007.75.027 1.112.116.428.104.838.287 1.19.552.133.1.257.208.37.327.194.2.36.427.494.67.455.82.562 1.792.495 2.716-.012.153-.028.307-.048.46-.03.21-.065.417-.11.623-.223 1.06-.63 2.08-1.15 3.027-.568 1.03-1.277 1.983-2.108 2.815-.248.248-.506.483-.774.71l-.02.015c.217.11.44.21.668.292.534.193 1.096.305 1.663.35.15.013.3.02.452.024.19.003.377 0 .566-.02.406-.05.798-.178 1.16-.364.382-.196.73-.452 1.048-.74.475-.432.88-.933 1.243-1.46-.06-.132-.118-.265-.176-.397-.543-1.292-.944-2.638-1.254-4.002-.315-1.383-.538-2.786-.686-4.196-.102-.975-.168-1.954-.195-2.934-.027-.983-.015-1.968.046-2.95.057-.892.154-1.785.315-2.665.115-.628.263-1.252.467-1.857.157-.47.35-.93.596-1.36.325-.565.758-1.087 1.334-1.405.103-.056.21-.106.32-.148.137-.053.28-.093.426-.12.178-.033.36-.046.54-.04.208.008.416.043.615.104.253.077.49.196.706.35.617.435 1.025 1.108 1.31 1.795.24.58.402 1.19.522 1.803.147.748.23 1.508.278 2.27.08 1.323.047 2.654-.06 3.976-.123 1.528-.348 3.05-.67 4.55-.258 1.207-.58 2.4-.98 3.568-.435 1.265-.963 2.498-1.63 3.657l-.053.092c.28.512.595 1.007.984 1.444.243.272.514.522.822.716.17.106.353.195.545.257.125.04.254.068.384.083.64.073 1.266-.182 1.796-.522.093-.06.185-.123.275-.19.096-.07.188-.142.28-.217.12-.1.237-.204.352-.312.146-.138.288-.28.425-.428.172-.185.337-.375.497-.57.22-.27.43-.55.632-.836l.006-.008c-.06-.148-.115-.297-.17-.446l-.13-.367c-.427-1.267-.735-2.57-.956-3.888-.21-1.254-.345-2.522-.412-3.79-.066-1.26-.065-2.523.013-3.78.067-1.084.19-2.166.398-3.23.133-.682.3-1.358.52-2.016.186-.557.41-1.103.692-1.618.374-.683.86-1.327 1.51-1.77.31-.213.657-.375 1.023-.468.778-.197 1.644-.09 2.332.33.266.163.503.37.706.608.42.49.688 1.092.864 1.708.168.59.256 1.203.3 1.815.056.782.038 1.567-.02 2.348-.084 1.112-.253 2.217-.476 3.31-.25 1.23-.57 2.45-.946 3.648-.413 1.317-.894 2.613-1.45 3.878-.58 1.327-1.244 2.62-2.02 3.844l-.028.045c.103.222.215.44.334.655.094.17.193.336.3.498.08.127.167.252.258.373.068.09.14.18.212.27.435.517.99.985 1.666 1.137.25.055.502.058.756.044.42-.024.834-.104 1.233-.238.164-.056.324-.12.48-.192-.975-1.057-1.536-2.454-1.697-3.876-.054-.477-.064-.96-.03-1.44.134-2.013 1.006-4 2.492-5.38.194-.182.398-.35.61-.508.253-.186.518-.354.794-.5.362-.195.744-.353 1.14-.467.467-.137.952-.212 1.44-.218.443-.006.887.046 1.318.154.355.09.7.216 1.03.378.262.13.512.28.75.452l.186.005c.082.002.163 0 .244 0 .38-.013.763-.047 1.13-.15.147-.044.29-.098.424-.177.067-.04.134-.09.178-.157.035-.053.045-.117.067-.175.012-.027.025-.054.04-.08.066-.116.155-.213.27-.283.067-.043.143-.074.22-.093.323-.08.667.062.84.344.054.086.09.182.106.282.024.146 0 .286-.046.424-.033.103-.076.203-.128.298-.042.076-.09.15-.14.22-.375.503-.973.777-1.568.923-.14.035-.28.062-.42.085.64.956 1.016 2.09 1.133 3.233.05.48.054.963.017 1.442-.175 2.246-1.268 4.456-3.1 5.804-.25.184-.515.352-.79.5-.364.193-.747.35-1.142.466-.444.13-.9.2-1.362.215-.078.003-.078.003-.155.003-.472-.004-.94-.067-1.395-.195-.35-.1-.692-.237-1.014-.408-.045-.024-.09-.048-.133-.073zm2.547-.868c.237-.002.472-.022.705-.066 1.036-.195 1.96-.8 2.658-1.575.708-.79 1.2-1.76 1.456-2.787.22-.88.27-1.802.12-2.697-.184-1.105-.683-2.187-1.525-2.944-.108-.098-.222-.19-.342-.276-.148-.105-.303-.2-.465-.283-.21-.11-.434-.196-.662-.26-.282-.08-.574-.126-.868-.136-.182-.006-.364.002-.544.023-1.054.12-2.017.68-2.753 1.43-.838.852-1.4 1.954-1.666 3.115-.197.856-.23 1.752-.076 2.618.213 1.19.793 2.35 1.77 3.09.144.11.297.21.456.298.192.106.393.194.6.263.298.1.606.157.92.18.072.003.144.006.217.006zM58.14 49.864c1.018-.785 1.878-1.763 2.552-2.855.454-.735.827-1.524 1.084-2.35.075-.24.14-.486.192-.733.04-.19.073-.38.097-.573.02-.16.033-.32.04-.48.005-.114.006-.227.002-.34-.002-.09-.008-.178-.016-.266-.047-.52-.2-1.068-.58-1.445-.058-.058-.12-.11-.187-.157-.1-.072-.21-.13-.324-.178-.197-.08-.405-.126-.614-.147-.312-.032-.63-.018-.94.04-.385.07-.754.22-1.083.432-.78.507-1.298 1.337-1.6 2.2-.057.158-.105.317-.147.478-.14.527-.21 1.07-.223 1.614-.033 1.407.33 2.852 1.133 4.017.164.24.346.462.544.672l.07.073zm9.06-2.65c.456-.925.83-1.89 1.15-2.868.38-1.167.68-2.36.916-3.562.255-1.297.436-2.61.537-3.928.09-1.164.117-2.335.053-3.502-.037-.665-.104-1.33-.22-1.987-.092-.505-.21-1.008-.39-1.49-.115-.318-.257-.63-.45-.91-.112-.162-.245-.317-.408-.433-.08-.057-.17-.104-.265-.133-.072-.022-.147-.033-.222-.036-.067-.003-.135.002-.2.014-.33.06-.587.307-.783.562-.037.047-.07.095-.104.144-.048.07-.094.145-.137.22-.047.08-.09.165-.133.25-.057.115-.11.233-.16.352-.065.157-.124.317-.178.48-.168.5-.292 1.016-.39 1.536-.125.65-.208 1.306-.266 1.964-.077.868-.107 1.74-.105 2.612.004.93.045 1.863.12 2.79.1 1.224.26 2.443.485 3.65.235 1.262.543 2.51.954 3.727.063.183.128.365.196.547zm8.838-.474c.567-.995 1.065-2.03 1.512-3.086.517-1.222.965-2.473 1.347-3.743.29-.966.543-1.944.748-2.933.19-.913.342-1.835.434-2.763.095-.965.134-1.943.037-2.91-.036-.353-.09-.706-.18-1.05-.064-.26-.147-.514-.26-.754-.103-.218-.23-.426-.397-.6-.106-.11-.23-.206-.367-.275-.174-.087-.366-.13-.56-.142-.296-.017-.587.043-.85.183-.4.212-.708.567-.957.938-.22.326-.397.68-.55 1.04-.214.5-.38 1.02-.518 1.547-.19.73-.325 1.47-.425 2.216-.11.828-.177 1.662-.21 2.497-.06 1.538-.004 3.083.155 4.614.166 1.606.45 3.202.897 4.755.046.157.094.313.143.47zM46.946 34.03c.558-.625 1.09-1.274 1.583-1.95.406-.558.79-1.134 1.12-1.74.2-.365.383-.743.506-1.14.037-.116.067-.234.086-.354.012-.08.02-.162.01-.242-.03-.006-.06-.008-.09-.01-.036-.002-.073-.002-.11.003-.115.02-.222.08-.317.145-.15.103-.28.23-.4.366-.235.263-.434.556-.617.857-.24.392-.45.8-.644 1.216-.14.302-.274.606-.4.913-.168.403-.323.81-.475 1.22-.087.24-.172.477-.254.716z" fill-rule="evenodd"/></symbol><symbol viewBox="0 0 15 22" id="svg-scroll-mouse"><title>icon (scoll mouse)</title><path d="M7.5 5c-.14 0-.258.048-.355.144-.097.097-.145.214-.145.353v2.006c0 .14.048.256.145.353.097.096.215.144.355.144.14 0 .258-.048.355-.144.097-.097.145-.214.145-.353V5.497c0-.14-.048-.256-.145-.353C7.758 5.048 7.64 5 7.5 5zM0 4.992C0 2.235 2.246 0 4.995 0h5.01C12.765 0 15 2.23 15 4.992v12.016C15 19.765 12.754 22 10.005 22h-5.01C2.235 22 0 19.77 0 17.008V4.992zm1 1.003C1 3.235 3.235 1 6.008 1h2.984C11.758 1 14 3.236 14 5.995v10.01C14 18.765 11.765 21 8.992 21H6.008C3.242 21 1 18.764 1 16.005V5.995z" fill-rule="evenodd"/></symbol><symbol viewBox="0 0 30 30" id="svg-twitter-icon"><title>Imported Layers</title><path d="M30 15c0 8.285-6.715 15-15 15-8.284 0-15-6.715-15-15C0 6.716 6.716 0 15 0c8.285 0 15 6.716 15 15zM7.38 8.46s2.718 3.603 7.442 3.85c0 0-.64-2.126 1.32-3.753 1.962-1.63 4.388-.25 4.853.364 0 0 1.38-.214 2.343-.862 0 0-.314 1.243-1.478 1.992 0 0 1.363-.18 1.994-.547 0 0-.665 1.064-1.81 1.878 0 0 .48 4.497-3.383 8.21-3.863 3.715-10.22 2.942-12.513.998 0 0 3.115.35 5.31-1.52 0 0-2.593-.05-3.34-2.47 0 0 1.295.1 1.52-.15 0 0-2.792-.67-2.817-3.588 0 0 .848.423 1.62.45 0 0-2.692-1.946-1.06-4.85z" fill-rule="evenodd"/></symbol></svg>